<?xml version="1.0" encoding="utf-8"?>
<!-- Generator: Avocode 2.4.5 - http://avocode.com -->
<svg height="15" width="16" xmlns:xlink="http://www.w3.org/1999/xlink" xmlns="http://www.w3.org/2000/svg" viewBox="0 0 16 15">
    <path stroke-linejoin="miter" stroke-linecap="butt" stroke-width="1" stroke="#693c2d" fill="none" fill-rule="evenodd" d="M 13.01 9.95 C 12.98 10.21 12.95 10.52 12.93 10.97 C 12.87 12.21 14.31 15 14.31 15 C 14.31 15 10.44 14.83 8.91 13.15 C 8.07 12.22 7.64 11.21 7.42 10.47 C 7.42 10.47 5.24 10.47 5.24 10.47 C 2.35 10.47 0 8.13 0 5.24 C 0 2.34 2.35 0 5.24 0 C 5.24 0 10.76 0 10.76 0 C 13.65 0 16 2.34 16 5.24 C 16 7.32 14.77 9.11 13.01 9.95 Z" />
</svg>