<?xml version="1.0" standalone="no"?>
<!DOCTYPE svg PUBLIC "-//W3C//DTD SVG 1.1//EN" "http://www.w3.org/Graphics/SVG/1.1/DTD/svg11.dtd" >
<svg>
<metadata>
Created by FontForge 20090622 at Thu Dec  3 17:54:23 2015
 By deploy user
Copyright (c) 2012 by Art. Lebedev Studio. All rights reserved.
</metadata>
<defs>
<font id="Bingley" horiz-adv-x="600" >
  <font-face 
    font-family="Bingley"
    font-weight="400"
    font-stretch="normal"
    units-per-em="1000"
    panose-1="2 0 5 3 7 0 0 2 0 3"
    ascent="750"
    descent="-250"
    x-height="398"
    cap-height="681"
    bbox="-143 -314 1142 913"
    underline-thickness="50"
    underline-position="-50"
    unicode-range="U+0020-U+FB04"
  />
<missing-glyph horiz-adv-x="500" 
 />
    <glyph glyph-name="ff" unicode="ff" horiz-adv-x="635" 
d="M348 398h43q2 70 11 113q10 51 36 90q-44 36 -101 36q-118 0 -151 -137q-10 -42 -12 -102h123v-34h-123v-95q0 -160 8 -193q12 -52 78 -52v-24h-228v23q15 1 24.5 4.5t18.5 15t13 31.5q8 38 8 151v139h-44v34h43q2 63 15 108q25 80 81.5 122.5t136.5 42.5q77 0 131 -44
q51 52 127 52q59 0 93.5 -27.5t34.5 -64.5q0 -25 -13.5 -42.5t-37.5 -17.5q-23 0 -35 12.5t-12 28.5q0 15 8.5 27t17 18.5t8.5 7.5q0 8 -16.5 16t-40.5 8q-43 0 -74.5 -31t-42.5 -95q-8 -43 -8 -121h125v-34h-125v-139q0 -116 8 -149q12 -52 78 -52v-24h-226v23
q15 1 24.5 4.5t18.5 15t13 31.5q8 38 8 151v139h-44v34z" />
    <glyph glyph-name="fi" unicode="fi" horiz-adv-x="586" 
d="M391 332q-5 13 -11 18.5t-26 9.5t-57 4h-123v-139q0 -116 8 -149q12 -52 78 -52v-24h-228v23q15 1 24.5 4.5t18.5 15t13 31.5q8 38 8 151v139h-44v34h45q3 57 17 104q22 77 79 127t146 50q66 0 101.5 -30t35.5 -67q0 -22 -14 -40t-36 -18q-25 0 -36.5 12.5t-11.5 29.5
q0 14 9 26.5t18 19.5t9 8q0 4 -8.5 9.5t-26.5 10.5t-40 5q-59 0 -99 -41t-55 -112q-11 -47 -11 -94h308q-3 -104 -3 -158v-56q0 -85 8 -114q13 -46 58 -46v-24h-208v24q26 0 37.5 11.5t18.5 37.5q8 30 8 111v40q0 80 -10 108z" />
    <glyph glyph-name="fl" unicode="fl" horiz-adv-x="588" 
d="M477 414v-154q0 -159 9 -192q12 -44 57 -44v-24h-206v24q44 0 55 44q9 39 9 192v221q0 37 -1 55.5t-5.5 43.5t-13.5 36.5t-27 20t-44 8.5q-47 0 -83 -31t-47 -95q-8 -43 -8 -121h123v-34h-123v-139q0 -116 8 -149q12 -52 78 -52v-24h-226v23q15 1 24.5 4.5t18.5 15
t13 31.5q8 38 8 151v139h-64v34h63q2 70 11 113q17 84 71 126t129 42q18 0 54 -2t69 -2l52 3q-4 -155 -4 -264z" />
    <glyph glyph-name="ffi" unicode="ffi" horiz-adv-x="870" 
d="M692 332q-8 18 -26.5 25t-72.5 7h-113v-95q0 -160 8 -193q12 -52 78 -52v-24h-228v23q15 1 24.5 4.5t18.5 15t13 31.5q8 38 8 151v139h-44v34h43q2 63 16 111q13 47 39 81q-45 47 -113 47q-120 0 -150 -146q-9 -45 -9 -93h123v-34h-123v-95q0 -160 8 -193q12 -52 78 -52
v-24h-228v23q15 1 24.5 4.5t18.5 15t13 31.5q8 38 8 151v139h-44v34h43q2 63 15 108q51 165 217 165q84 0 143 -53q63 61 158 61q65 0 101.5 -27.5t36.5 -64.5q0 -23 -12.5 -41.5t-39.5 -18.5q-20 0 -32.5 11.5t-12.5 30.5q0 15 8.5 26.5t16.5 18t8 7.5q0 8 -19 16t-48 8
q-62 0 -101.5 -40.5t-54.5 -112.5q-9 -45 -9 -94h299q-3 -103 -3 -158v-56q0 -85 8 -114q13 -46 58 -46v-24h-208v24q26 0 37.5 11.5t18.5 37.5q8 30 8 111v77q0 57 -6 71z" />
    <glyph glyph-name="ffl" unicode="ffl" horiz-adv-x="881" 
d="M357 398h44q2 70 11 113q9 47 30 80q-17 20 -48 33t-61 13q-118 0 -149 -140q-9 -42 -11 -99h123v-34h-123v-95q0 -160 8 -193q12 -52 78 -52v-24h-226v23q15 1 24.5 4.5t18.5 15t13 31.5q8 38 8 151v139h-44v34h43q2 65 14 106q25 80 81 123.5t135 43.5q82 0 140 -50
q55 58 146 58q18 0 54 -2t69 -2l52 3q-4 -163 -4 -273v-144q0 -172 10 -200q7 -20 19 -28.5t37 -8.5v-24h-206v24q39 0 52 34q12 31 12 204v219q0 37 -1 55.5t-5.5 43.5t-13.5 36.5t-27 20t-44 8.5q-47 0 -83 -31t-47 -95q-8 -43 -8 -121h123v-34h-123v-139q0 -116 8 -149
q12 -52 78 -52v-24h-226v23q15 1 24.5 4.5t18.5 15t13 31.5q8 38 8 151v139h-45v34z" />
    <glyph glyph-name="f_k" unicode="fk" horiz-adv-x="840" 
d="M32 398h63q2 70 11 113q17 84 71 126t129 42q18 0 54 -2t69 -2l52 3q-4 -163 -4 -273v-201l122 97q36 29 36 54q0 20 -47 20v23h209v-23q-60 -7 -99 -38l-118 -91l159 -178q40 -44 98 -44v-24h-224v24q14 0 28.5 5t14.5 12q0 9 -7 17l-125 141l-47 -36q0 -74 10 -102
q7 -20 19 -28.5t37 -8.5v-24h-206v24q39 0 52 34q12 32 12 188v235q0 37 -1 55.5t-5.5 43.5t-13.5 36.5t-27 20t-44 8.5q-47 0 -83 -31t-47 -95q-8 -43 -8 -121h123v-34h-123v-139q0 -116 8 -149q12 -52 78 -52v-24h-226v23q15 1 24.5 4.5t18.5 15t13 31.5q8 38 8 151v139
h-64v34z" />
    <glyph glyph-name="f_b" unicode="fb" horiz-adv-x="878" 
d="M401 248v233q0 37 -1 55.5t-5.5 43.5t-13.5 36.5t-27 20t-44 8.5q-47 0 -83 -31t-47 -95q-8 -43 -8 -121h123v-34h-123v-139q0 -116 8 -149q12 -52 78 -52v-24h-226v23q15 1 24.5 4.5t18.5 15t13 31.5q8 38 8 151v139h-64v34h63q2 70 11 113q17 84 71 126t129 42
q18 0 54 -2t69 -2l52 3q-4 -155 -4 -264v-77q58 76 159 76q80 0 132.5 -52.5t52.5 -144.5q0 -99 -61.5 -163.5t-147.5 -64.5q-74 0 -128 48q-8 7 -12 7t-9 -6l-46 -47l-24 4q8 84 8 254zM610 21q57 0 91 48t34 123q0 85 -36.5 129.5t-97.5 44.5q-57 0 -90.5 -37.5
t-33.5 -77.5v-75q0 -68 36.5 -111.5t96.5 -43.5z" />
    <glyph glyph-name="f_j" unicode="fj" horiz-adv-x="574" 
d="M403 224q0 80 -10 108q-5 13 -11 18.5t-26 9.5t-57 4h-125v-139q0 -116 8 -149q12 -52 78 -52v-24h-228v23q15 1 24.5 4.5t18.5 15t13 31.5q8 38 8 151v139h-44v34h45q3 57 17 104q22 77 79 127t146 50q66 0 101.5 -30t35.5 -67q0 -22 -14 -40t-36 -18q-25 0 -36.5 12.5
t-11.5 29.5q0 14 9 26.5t18 19.5t9 8q0 4 -8.5 9.5t-26.5 10.5t-40 5q-59 0 -99 -41t-55 -112q-11 -47 -11 -94h308q-3 -104 -3 -158v-178q0 -89 -12.5 -149t-45.5 -106q-60 -83 -147 -83q-50 0 -80 25.5t-30 65.5q0 25 14.5 43t39.5 18q20 0 32.5 -11t12.5 -30
q0 -15 -8.5 -27t-17 -18.5t-8.5 -9.5q0 -8 10 -14q11 -8 32 -8q45 0 76 34.5t43.5 83t12.5 106.5v242z" />
    <glyph glyph-name="f_f_k" unicode="ffk" horiz-adv-x="1145" 
d="M356 398h44q2 70 11 113q9 45 31 80q-18 21 -50.5 33.5t-59.5 12.5q-118 0 -149 -140q-9 -42 -11 -99h123v-34h-123v-95q0 -160 8 -193q12 -52 78 -52v-24h-226v23q15 1 24.5 4.5t18.5 15t13 31.5q8 38 8 151v139h-44v34h43q2 65 14 106q25 80 81 123.5t135 43.5
q76 0 139 -51q56 59 147 59q17 0 54 -2t69 -2l52 3q-4 -163 -4 -273v-201l122 97q36 29 36 54q0 20 -47 20v23h209v-23q-60 -7 -99 -38l-118 -91l159 -178q40 -44 98 -44v-24h-224v24q14 0 28.5 5t14.5 12q0 9 -7 17l-125 141l-47 -36q0 -74 10 -102q7 -20 19 -28.5t37 -8.5
v-24h-206v24q39 0 52 34q12 31 12 188v235q0 37 -1 55.5t-5.5 43.5t-13.5 36.5t-27 20t-44 8.5q-47 0 -83 -31t-47 -95q-8 -43 -8 -121h123v-34h-123v-139q0 -116 8 -149q12 -52 78 -52v-24h-226v23q15 1 24.5 4.5t18.5 15t13 31.5q8 38 8 151v139h-45v34z" />
    <glyph glyph-name="f_f_j" unicode="ffj" horiz-adv-x="894" 
d="M708 224q-3 95 -8 108q-8 18 -26.5 25t-72.5 7h-113v-95q0 -160 8 -193q12 -52 78 -52v-24h-228v23q15 1 24.5 4.5t18.5 15t13 31.5q8 38 8 151v139h-44v34h43q2 63 16 111q13 47 39 81q-45 47 -113 47q-120 0 -150 -146q-9 -45 -9 -93h123v-34h-123v-95q0 -160 8 -193
q12 -52 78 -52v-24h-228v23q15 1 24.5 4.5t18.5 15t13 31.5q8 38 8 151v139h-44v34h43q2 63 15 108q51 165 217 165q84 0 143 -53q63 61 158 61q65 0 101.5 -27.5t36.5 -64.5q0 -23 -12.5 -41.5t-39.5 -18.5q-20 0 -32.5 11.5t-12.5 30.5q0 15 8.5 26.5t16.5 18t8 7.5
q0 8 -19 16t-48 8q-62 0 -101.5 -40.5t-54.5 -112.5q-9 -45 -9 -94h299q-3 -103 -3 -158v-178q0 -89 -12.5 -149t-45.5 -106q-60 -83 -147 -83q-50 0 -80 25.5t-30 65.5q0 25 14.5 43t39.5 18q20 0 32.5 -11t12.5 -30q0 -15 -8.5 -27t-17 -18.5t-8.5 -9.5q0 -8 10 -14
q11 -8 32 -8q45 0 76 34.5t43.5 83t12.5 106.5v242z" />
    <glyph glyph-name=".notdef" horiz-adv-x="500" 
 />
    <glyph glyph-name=".null" horiz-adv-x="0" 
 />
    <glyph glyph-name="nonmarkingreturn" horiz-adv-x="333" 
 />
    <glyph glyph-name="space" unicode=" " horiz-adv-x="250" 
 />
    <glyph glyph-name="exclam" unicode="!" horiz-adv-x="255" 
d="M130 172l-35 418q-3 30 -3 42q0 35 15 49.5t35 14.5t35 -15t15 -49q0 -21 -2 -41l-36 -419h-24zM80 54q0 26 18 44.5t44 18.5t44.5 -18.5t18.5 -44.5t-18.5 -44t-44.5 -18t-44 18t-18 44z" />
    <glyph glyph-name="quotedbl" unicode="&#x22;" horiz-adv-x="291" 
d="M119 626l-13 -101h-46l-15 101q0 1 -2.5 18t-2.5 22q0 16 12.5 26.5t28.5 10.5q18 0 30.5 -10.5t12.5 -26.5q0 -5 -2.5 -21t-2.5 -19zM246 626l-13 -101h-46l-15 101q0 1 -2.5 18t-2.5 22q0 16 12.5 26.5t28.5 10.5q18 0 30.5 -10.5t12.5 -26.5q0 -5 -2.5 -21t-2.5 -19z
" />
    <glyph glyph-name="numbersign" unicode="#" horiz-adv-x="750" 
d="M419 0l40 213h-224l-40 -213h-48l40 213h-167l10 46h165l38 198h-168l10 46h166l37 193h48l-37 -193h224l37 193h48l-37 -193h169l-10 -46h-167l-38 -198h170l-10 -46h-168l-40 -213h-48zM281 457l-38 -198h224l38 198h-224z" />
    <glyph glyph-name="dollar" unicode="$" 
d="M281 -111v102q-85 2 -147 40t-62 94q0 24 12.5 41.5t38.5 17.5q19 0 30.5 -12t11.5 -29q0 -15 -8 -25.5t-16 -15t-8 -6.5q0 -14 22 -32q46 -33 126 -33v294q-7 3 -24 11t-23 12q-68 37 -106 79t-38 100q0 78 59.5 118.5t131.5 40.5v105h32v-106q75 -6 118 -39.5t43 -79.5
q0 -62 -49 -62q-20 0 -31.5 10.5t-11.5 28.5q0 16 8 27t16 16t8 6q0 22 -29 37q-26 13 -72 16v-234q70 -38 73 -40q86 -50 112 -85t26 -91q0 -83 -56 -138.5t-155 -65.5v-102h-32zM340 294l-27 14v-277q63 6 96 45.5t33 87.5q0 42 -18 66.5t-84 63.5zM174 557q0 -66 73 -111
q1 -1 34 -19v218q-48 0 -77.5 -24t-29.5 -64z" />
    <glyph glyph-name="percent" unicode="%" horiz-adv-x="721" 
d="M148 -43l390 739h48l-390 -739h-48zM400 129q0 61 42 98.5t103 37.5t103.5 -37t42.5 -97q0 -62 -43.5 -101t-102.5 -39q-60 0 -102.5 37t-42.5 101zM473 126q0 -47 20 -74t52 -27t52.5 27.5t20.5 75.5t-19.5 76t-52.5 28q-34 0 -53.5 -28.5t-19.5 -77.5zM50 521
q0 61 42 98.5t103 37.5t103.5 -37t42.5 -97q0 -62 -43.5 -101t-102.5 -39q-60 0 -102.5 37t-42.5 101zM123 518q0 -47 20 -74t52 -27t52.5 27.5t20.5 75.5t-19.5 76t-52.5 28q-34 0 -53.5 -28.5t-19.5 -77.5z" />
    <glyph glyph-name="ampersand" unicode="&#x26;" horiz-adv-x="780" 
d="M550 256q-24 -84 -50 -129q50 -45 88 -65q32 -17 63 -17q57 0 96 41l13 -23q-7 -8 -20 -20.5t-49.5 -33.5t-70.5 -21q-47 0 -89 21q-38 18 -80 58q-87 -79 -188 -79q-98 0 -155.5 54t-57.5 135q0 73 38.5 121.5t112.5 84.5q-53 85 -53 157q0 66 45 103.5t121 37.5
q63 0 108 -32t45 -90q0 -59 -44.5 -101t-138.5 -72q95 -155 182 -232q13 19 22.5 50t9.5 54q0 54 -59 54v24h173v-24q-46 0 -62 -56zM214 362q-35 -22 -54 -64t-19 -88q0 -69 44 -115t115 -46t117 46q-118 118 -203 267zM232 551q0 -78 40 -142q59 28 85 70t26 82
q0 85 -73 85q-33 0 -55.5 -23t-22.5 -72z" />
    <glyph glyph-name="quotesingle" unicode="'" horiz-adv-x="164" 
d="M120 625l-14 -100h-46l-15 101q0 1 -2.5 18t-2.5 22q0 16 12.5 26.5t28.5 10.5q18 0 30.5 -10.5t12.5 -26.5q0 -1 -4 -41z" />
    <glyph glyph-name="parenleft" unicode="(" horiz-adv-x="376" 
d="M321 725l15 -15q-78 -93 -133 -222.5t-55 -279.5q0 -149 55 -280.5t133 -225.5l-12 -16q-56 54 -94.5 99.5t-81.5 112t-65.5 145t-22.5 165.5q0 85 23 163.5t64.5 144t81.5 112.5t92 97z" />
    <glyph glyph-name="parenright" unicode=")" horiz-adv-x="376" 
d="M40 710l15 15q52 -50 92 -97t81.5 -112.5t64.5 -144t23 -163.5q0 -87 -22.5 -165.5t-65.5 -145t-81.5 -112t-94.5 -99.5l-12 16q78 94 133 225.5t55 280.5q0 150 -55 279.5t-133 222.5z" />
    <glyph glyph-name="asterisk" unicode="*" horiz-adv-x="339" 
d="M254 551l-60 12l-1 -4l60 -29q25 -12 25 -36q0 -16 -11.5 -27.5t-28.5 -11.5q-13 0 -24.5 8.5t-13.5 21.5l-13 70h-4l-12 -64q-3 -16 -14 -26t-26 -10q-16 0 -27 11.5t-11 27.5q0 24 23 36l62 29l-1 4l-66 -13q-4 -1 -12 -1q-16 0 -27.5 12t-11.5 29q0 16 10.5 27.5
t28.5 11.5q17 0 31 -14l48 -46l4 3l-28 53q-7 14 -7 25q0 15 11.5 26.5t26.5 11.5q17 0 28.5 -11.5t11.5 -26.5q0 -13 -6 -24l-29 -54l3 -3l45 44q18 16 32 16q16 0 27.5 -12t11.5 -28q0 -17 -11.5 -28.5t-27.5 -11.5q-8 0 -16 2z" />
    <glyph glyph-name="plus" unicode="+" 
d="M275 473h48v-182h183v-46h-183v-185h-48v185h-182v46h182v182z" />
    <glyph glyph-name="comma" unicode="," horiz-adv-x="255" 
d="M80 54q0 26 18 44.5t44 18.5q25 0 44 -18t19 -45q0 -42 -22 -90.5t-67 -83.5l-20 17q41 39 55 96q-3 -1 -9 -1q-26 0 -44 18t-18 44z" />
    <glyph glyph-name="hyphen" unicode="-" horiz-adv-x="393" 
d="M70 213v48h253v-48h-253z" />
    <glyph glyph-name="period" unicode="." horiz-adv-x="255" 
d="M80 54q0 26 18 44.5t44 18.5t44.5 -18.5t18.5 -44.5t-18.5 -44t-44.5 -18t-44 18t-18 44z" />
    <glyph glyph-name="slash" unicode="/" horiz-adv-x="438" 
d="M10 -43l370 701h48l-370 -701h-48z" />
    <glyph glyph-name="zero" unicode="0" 
d="M41 334q0 156 75.5 255t185.5 99q111 0 183.5 -95.5t72.5 -254.5q0 -95 -29.5 -173t-89.5 -126.5t-139 -48.5q-122 0 -190.5 93.5t-68.5 250.5zM302 24q73 0 115 90.5t42 234.5q0 139 -45 222t-117 83q-71 0 -114 -83.5t-43 -222.5q0 -141 44 -232.5t118 -91.5z" />
    <glyph glyph-name="one" unicode="1" 
d="M348 686q-4 -310 -4 -390q0 -129 2.5 -170t10.5 -63q5 -12 13 -20t21 -12t20 -5t21 -2v-24h-258v24q6 0 16 1t28.5 11.5t23.5 28.5q12 40 12 227v245q0 34 -15 44.5t-46 10.5l-37 -2l-3 25l172 81z" />
    <glyph glyph-name="two" unicode="2" 
d="M317 689q77 0 130 -44.5t53 -128.5q0 -60 -33 -127t-80.5 -119.5t-95 -97t-80.5 -68.5l-33 -24h234q62 0 83 83h25l-7 -163h-456l2 36q86 52 160 120.5t127.5 160.5t53.5 179q0 63 -34.5 98.5t-91.5 35.5q-106 0 -164 -98l-20 15q25 53 83.5 97.5t143.5 44.5z" />
    <glyph glyph-name="three" unicode="3" 
d="M295 390v-4q123 -10 177.5 -63t54.5 -123q0 -84 -65.5 -148t-187.5 -64q-85 0 -136.5 29t-51.5 73q0 24 13 37.5t34 13.5q20 0 33 -12.5t13 -29.5q0 -15 -9 -28t-9 -16q0 -9 13 -16q34 -17 84 -17q80 0 124.5 52t44.5 127q0 80 -55 124.5t-140 44.5h-44v29h45
q57 0 100.5 43.5t43.5 107.5q0 105 -116 105q-60 0 -101 -31q-7 -6 -7 -11q0 -3 7.5 -8t15.5 -14.5t8 -23.5q0 -17 -13.5 -30t-33.5 -13q-23 0 -35 13.5t-12 33.5q0 39 60 78.5t146 39.5q74 0 126 -33.5t52 -93.5q0 -59 -44 -106t-135 -66z" />
    <glyph glyph-name="four" unicode="4" 
d="M508 327h25l-8 -149h-116q0 -72 2 -86q2 -34 18 -50q17 -18 49 -18v-24h-255v24q45 0 68 18q21 17 25 60q3 29 3 76h-336l-5 29l402 474h29v-434h22q35 0 52.5 20t24.5 60zM319 550l-256 -303h256v303z" />
    <glyph glyph-name="five" unicode="5" 
d="M141 676h227q47 0 69.5 22t32.5 71h24l-6 -173h-307v-134h5q338 0 338 -243q0 -92 -71.5 -160.5t-189.5 -68.5q-56 0 -103 15.5t-66 30.5l-18 16l12 25q58 -38 155 -38q75 0 128 46t53 134q0 53 -23.5 88t-65.5 50.5t-81.5 21t-91.5 5.5l-21 -1v293z" />
    <glyph glyph-name="six" unicode="6" 
d="M505 665l-6 -25q-42 15 -87 15q-57 0 -103 -29t-74 -78t-45 -102t-23 -111q30 31 80 52.5t105 21.5q92 0 148 -49.5t56 -140.5q0 -93 -72.5 -161.5t-173.5 -68.5q-117 0 -183.5 74.5t-66.5 200.5q0 181 91.5 302.5t242.5 121.5q64 0 111 -23zM160 250q0 -108 44.5 -167.5
t111.5 -59.5q59 0 99 53t40 133q0 73 -36 116.5t-103 43.5q-47 0 -90.5 -23t-63.5 -48q-2 -14 -2 -48z" />
    <glyph glyph-name="seven" unicode="7" 
d="M115 723h25q14 -24 30 -42h380l20 -24l-353 -669l-84 41q39 56 362 574h-251q-39 0 -66.5 -28.5t-36.5 -81.5h-26v230z" />
    <glyph glyph-name="eight" unicode="8" 
d="M307 692q77 0 130 -33.5t53 -97.5q0 -54 -40 -92t-86 -59l22 -13q32 -19 47.5 -29t40.5 -30t37 -37.5t21.5 -44t9.5 -56.5q0 -81 -69 -145t-174 -64q-112 0 -177 51.5t-65 132.5q0 45 16.5 82t46.5 63t53.5 40.5t56.5 29.5q-112 72 -112 146q0 72 55.5 114t133.5 42z
M142 181q0 -72 44.5 -114t118.5 -42q64 0 108 40t44 103q0 27 -8.5 49.5t-27 41t-31 28t-36.5 24.5l-100 64q-35 -19 -73.5 -73.5t-38.5 -120.5zM407 560q0 47 -28 72.5t-72 25.5q-43 0 -72.5 -26t-29.5 -67q0 -34 23.5 -61.5t74.5 -57.5l37 -22q23 19 45 57t22 79z" />
    <glyph glyph-name="nine" unicode="9" 
d="M117 38q44 -16 85 -16q74 0 130 47.5t83.5 117.5t32.5 154q-31 -32 -79.5 -53.5t-106.5 -21.5q-92 0 -147 49.5t-55 140.5q0 93 72 161.5t172 68.5q117 0 185 -75.5t68 -200.5q0 -57 -11.5 -114.5t-37.5 -113.5t-63.5 -98.5t-93.5 -68.5t-124 -26q-63 0 -116 22zM454 425
q0 108 -44.5 167.5t-111.5 59.5q-58 0 -98.5 -51t-40.5 -133q0 -70 35.5 -115t103.5 -45q36 0 71.5 14.5t53 27.5t29.5 26q2 14 2 49z" />
    <glyph glyph-name="colon" unicode=":" horiz-adv-x="255" 
d="M80 358q0 26 18 44.5t44 18.5t44.5 -18.5t18.5 -44.5t-18.5 -44t-44.5 -18t-44 18t-18 44zM80 54q0 26 18 44.5t44 18.5t44.5 -18.5t18.5 -44.5t-18.5 -44t-44.5 -18t-44 18t-18 44z" />
    <glyph glyph-name="semicolon" unicode=";" horiz-adv-x="255" 
d="M80 362q0 26 18 44.5t44 18.5t44.5 -18.5t18.5 -44.5t-18.5 -44t-44.5 -18t-44 18t-18 44zM80 54q0 26 18 44.5t44 18.5q25 0 44 -18t19 -45q0 -42 -22 -90.5t-67 -83.5l-20 17q41 39 55 96q-3 -1 -9 -1q-26 0 -44 18t-18 44z" />
    <glyph glyph-name="less" unicode="&#x3c;" 
d="M556 66l-512 280l512 279v-66l-403 -214l403 -212v-67z" />
    <glyph glyph-name="equal" unicode="=" 
d="M94 243v48h413v-48h-413zM94 345v48h413v-48h-413z" />
    <glyph glyph-name="greater" unicode="&#x3e;" 
d="M556 346l-512 -280v67l403 212l-403 214v66z" />
    <glyph glyph-name="question" unicode="?" horiz-adv-x="467" 
d="M201 163h-38v173q45 3 87.5 23t74 64.5t31.5 102.5q0 68 -37 105t-104 37q-37 0 -69.5 -13.5t-47.5 -30.5q-7 -7 -7 -14q0 -4 9 -10t18 -18t9 -29q0 -14 -14.5 -27.5t-31.5 -13.5q-24 0 -36.5 14t-12.5 35q0 51 60 93.5t152 42.5q93 0 147 -46.5t54 -120.5
q0 -106 -69.5 -175.5t-174.5 -88.5v-103zM122 54q0 26 18 44.5t44 18.5t44.5 -18.5t18.5 -44.5t-18.5 -44t-44.5 -18t-44 18t-18 44z" />
    <glyph glyph-name="at" unicode="@" horiz-adv-x="930" 
d="M870 317q0 -102 -61.5 -177t-158.5 -75q-107 0 -120 106q-30 -46 -77 -76t-102 -30q-46 0 -74 27t-28 71q0 53 48 105.5t115.5 86.5t131.5 45l2 25q0 7 7 8h60q10 0 9 -9l-11 -166q-4 -52 -4 -74q0 -85 67 -85q55 0 96 62.5t41 147.5q0 50 -18.5 96.5t-54.5 86.5t-99 64
t-143 24q-153 0 -264 -101t-111 -267q0 -163 111.5 -251t285.5 -88q133 0 227 61l9 -19q-117 -83 -285 -83q-80 0 -153 24t-130.5 69t-91.5 116t-34 157q0 98 37 177.5t98.5 129.5t139 76.5t162.5 26.5q155 0 264 -79t109 -212zM409 123q42 0 82 37.5t42 72.5l9 137
q-81 -14 -143 -64.5t-62 -113.5q0 -32 19 -50.5t53 -18.5z" />
    <glyph glyph-name="A" unicode="A" horiz-adv-x="758" 
d="M77 80l281 623h53l264 -616q18 -40 39 -53q15 -10 42 -10v-24h-224v24q58 0 58 35q0 7 -4 17l-79 184h-308l-72 -159q-10 -24 -10 -41q0 -18 11 -27t42 -9v-24h-165v24q47 0 72 56zM360 623l-146 -329h281z" />
    <glyph glyph-name="B" unicode="B" horiz-adv-x="646" 
d="M538 544q0 -59 -42.5 -101.5t-108.5 -59.5v-4q104 -12 159 -58t55 -118q0 -96 -77.5 -149.5t-203.5 -53.5h-272v24q48 0 57 50q7 37 7 169v263q0 107 -15 127q-17 22 -49 24v24h279q211 0 211 -137zM202 357v-273q0 -28 12.5 -39t36.5 -11h59q99 0 145 48.5t46 124.5
q0 80 -49.5 115t-163.5 35h-86zM202 391h86q66 0 108 32.5t42 102.5q0 121 -134 121h-53q-49 0 -49 -50v-206z" />
    <glyph glyph-name="C" unicode="C" horiz-adv-x="706" 
d="M383 685q107 0 201 -47q23 25 38 64h25v-216h-27q-68 165 -235 165q-98 0 -167 -79.5t-69 -203.5q0 -157 84.5 -238t223.5 -81q108 0 192 44l12 -28q-105 -74 -250 -74q-161 0 -262 91t-101 247q0 112 48.5 195t123 122t163.5 39z" />
    <glyph glyph-name="D" unicode="D" horiz-adv-x="741" 
d="M703 379q0 -91 -33.5 -165.5t-88 -120t-120.5 -69.5t-135 -24h-278v24q25 0 37 10.5t19 37.5q8 31 8 172v259q0 41 -0.5 60.5t-5 41.5t-12.5 32q-17 20 -46 20v24h283q182 0 277 -77t95 -225zM202 501v-259q0 -115 4 -158q5 -50 50 -50h65q124 0 203 89t79 244
q0 138 -70 209t-207 71h-71q-21 0 -35 -12.5t-16 -38.5q-2 -19 -2 -95z" />
    <glyph glyph-name="E" unicode="E" horiz-adv-x="629" 
d="M364 355h-166v-73q0 -156 5 -199q3 -24 14.5 -36.5t35.5 -12.5h167q58 0 91.5 39t42.5 97h25l-7 -170h-527v24q44 0 55 43q8 30 8 176v205v33v29.5v24.5t-0.5 23t-1 18.5t-1 16.5t-2 13t-3 12t-3.5 9q-15 30 -52 30v24h438q17 19 27 35h25v-216h-26q-12 76 -47.5 111.5
t-107.5 35.5h-104q-25 0 -37 -11.5t-13 -38.5q-2 -41 -2 -150v-58h166q43 0 65 21q19 18 21 55h25v-192h-25q-3 42 -21 61q-18 21 -65 21z" />
    <glyph glyph-name="F" unicode="F" horiz-adv-x="579" 
d="M372 339h-174v-94q0 -144 7 -171q13 -50 77 -50v-24h-238v24q25 0 38.5 11.5t18.5 37.5q7 34 7 171v217q0 87 -2 121q-3 75 -62 75v24h439q18 18 27 35h25v-212h-26q-11 77 -47.5 110t-105.5 33h-106q-26 0 -36.5 -12t-12.5 -38q-3 -38 -3 -128v-96h174q39 0 57.5 15
t20.5 62h25v-193h-25q-3 23 -5.5 34.5t-10.5 24.5t-23 18t-39 5z" />
    <glyph glyph-name="G" unicode="G" horiz-adv-x="777" 
d="M388 686q46 0 87 -9t61 -17.5t58 -27.5q21 25 38 70h25v-216h-27q-56 166 -246 166q-109 0 -174.5 -80t-65.5 -206q0 -148 78 -232.5t213 -84.5q75 0 122 34q34 25 34 70q0 76 -9 100q-9 25 -27 35.5t-51 13.5v24h233v-24q-48 -4 -58 -49q-6 -24 -6 -110q0 -91 4 -150
h-24l-31 62q-7 10 -13 10q-9 0 -20 -7q-93 -67 -206 -67q-153 0 -246.5 91t-93.5 244q0 168 96 264t249 96z" />
    <glyph glyph-name="H" unicode="H" horiz-adv-x="810" 
d="M724 640q-15 -17 -18.5 -43.5t-3.5 -92.5v-260q0 -110 2.5 -143t14.5 -53q15 -24 47 -24v-24h-218v24q28 0 42 16q15 16 18.5 58.5t3.5 145.5v104h-405v-104q0 -107 3.5 -144t16.5 -55q13 -17 44 -21v-24h-218v24q32 0 44 19q13 19 16.5 61.5t3.5 140.5v259q0 56 -1 72
q-3 46 -22 65q-13 13 -41 16v24h218v-24q-22 0 -35 -11q-18 -15 -23.5 -40.5t-5.5 -108.5v-115h405v115q0 78 -4 103t-18 41q-15 16 -42 16v24h218v-24q-27 0 -42 -17z" />
    <glyph glyph-name="I" unicode="I" horiz-adv-x="315" 
d="M229 640q-15 -17 -18.5 -43.5t-3.5 -92.5v-260q0 -110 2.5 -143t14.5 -53q15 -24 47 -24v-24h-218v24q28 0 42 16q15 16 18.5 58.5t3.5 145.5v253q0 78 -4 103.5t-18 41.5q-14 15 -42 15v24h218v-24q-27 0 -42 -17z" />
    <glyph glyph-name="J" unicode="J" horiz-adv-x="321" 
d="M236 641q-15 -14 -19 -43.5t-4 -93.5v-338q0 -13 0.5 -43.5t0.5 -49.5q0 -122 -107 -180q-16 -8 -37 -15.5t-34 -11.5l-14 -3l-6 27q32 6 58 26q40 31 44 104q5 112 5 143v342q0 63 -3.5 91t-17.5 44q-16 17 -43 17v24h218v-24q-25 0 -41 -16z" />
    <glyph glyph-name="K" unicode="K" horiz-adv-x="684" 
d="M53 657v24h218v-24q-34 0 -49 -26q-10 -17 -12.5 -39.5t-2.5 -86.5v-116h39q17 0 34 15l174 172q30 30 30 56q0 25 -41 25v24h196v-24q-55 -6 -102 -53l-220 -217q74 -99 151 -189q61 -73 112 -120q29 -27 50 -38.5t52 -15.5v-24h-158q-149 170 -276 342q-10 13 -27 13
h-14v-108q0 -157 11 -188q12 -35 53 -35v-24h-218v24q39 0 52 33q12 31 12 188v260q0 58 -4 93q-6 59 -60 59z" />
    <glyph glyph-name="L" unicode="L" horiz-adv-x="602" 
d="M201 487v-240q0 -141 2 -163q5 -50 50 -50h131q132 0 158 139h25l-7 -173h-513v24q45 0 56 45q8 30 8 176v239q0 46 -2 98q-2 39 -17 56q-14 18 -45 19v24h218v-24q-32 -2 -45 -21q-13 -18 -16 -43.5t-3 -105.5z" />
    <glyph glyph-name="M" unicode="M" horiz-adv-x="957" 
d="M15 0v24q47 0 66 42q8 19 16 66l76 441q4 28 4 37q0 39 -52 45v24h142l205 -551l243 553h154v-24q-35 0 -51 -17q-19 -19 -19 -57q0 -53 6 -99q14 -125 35 -247t35 -165q8 -24 23 -35.5t44 -12.5v-24h-242v24q40 0 55 12q17 13 17 52q0 18 -7 67q-41 276 -54 421
l-256 -586h-30l-213 587q-22 -122 -49 -287.5t-30 -180.5q-5 -27 -5 -49q0 -17 16 -26t39 -9v-25h-168z" />
    <glyph glyph-name="N" unicode="N" horiz-adv-x="760" 
d="M652 580v-579l-26 -7l-468 559v-454q0 -41 17 -58q15 -17 61 -17v-24h-192v24q44 0 56 12q20 20 20 132v255l-1 141q0 53 -20 72q-18 17 -54 21v24h122l447 -540v439q0 41 -22 60q-18 17 -55 17v24h193v-24q-27 0 -42 -7q-36 -17 -36 -70z" />
    <glyph glyph-name="O" unicode="O" horiz-adv-x="824" 
d="M427 691q154 0 250.5 -90.5t96.5 -237.5q0 -165 -107.5 -270.5t-270.5 -105.5q-155 0 -251.5 94.5t-96.5 241.5q0 163 106 265.5t273 102.5zM427 27q107 0 176 87t69 222q0 149 -68.5 233t-205.5 84q-103 0 -176.5 -82t-73.5 -218q0 -152 72.5 -239t206.5 -87z" />
    <glyph glyph-name="P" unicode="P" horiz-adv-x="594" 
d="M53 657v24h282q42 0 79 -7.5t72.5 -25t56.5 -52.5t21 -83q0 -96 -74 -152.5t-174 -56.5h-108v-65q0 -121 6 -161q8 -54 78 -54v-24h-238v24q44 0 55 43q9 36 9 137v301q0 107 -15 127q-19 25 -50 25zM208 338h84q84 0 128 46.5t44 121.5q0 68 -42.5 104.5t-114.5 36.5
h-46q-44 0 -50 -50q-3 -29 -3 -87v-172z" />
    <glyph glyph-name="Q" unicode="Q" horiz-adv-x="827" 
d="M424 688q152 0 248 -93t96 -240q0 -128 -72.5 -222.5t-190.5 -127.5q6 -5 18 -17l21.5 -21t14.5 -13q48 -41 81.5 -58t79.5 -17q77 0 131 61l16 -23q-24 -35 -72 -62.5t-104 -27.5q-111 0 -209 77q-21 17 -97 87q-146 2 -241.5 95t-95.5 237q0 158 105 261.5t271 103.5z
M427 28q101 0 170.5 88.5t69.5 219.5q0 146 -72 231.5t-197 85.5q-104 0 -177.5 -82.5t-73.5 -219.5q0 -145 77 -234t203 -89z" />
    <glyph glyph-name="R" unicode="R" horiz-adv-x="677" 
d="M53 657v24h263q247 0 247 -158q0 -70 -52.5 -117.5t-135.5 -67.5l104 -147q43 -59 78 -98q51 -59 120 -69v-24h-160q-109 134 -239 333h-71v-88q0 -148 6 -169q14 -52 78 -52v-24h-238v24q45 0 56 45q8 32 8 176v261q0 108 -16 128q-19 23 -48 23zM229 367h49
q89 0 137 38t48 111q0 131 -161 131h-44q-25 0 -36 -12t-13 -38q-2 -25 -2 -70v-139q0 -21 22 -21z" />
    <glyph glyph-name="S" unicode="S" horiz-adv-x="589" 
d="M500 499h-26q-19 65 -71.5 109.5t-118.5 44.5q-47 0 -73.5 -22.5t-26.5 -62.5q0 -25 12 -47t42 -45.5t55 -39l77 -45.5q103 -59 141 -98t38 -105q0 -90 -63.5 -142t-145.5 -52q-49 0 -93 16t-69 32l-24 16q-4 0 -8 -6q-20 -36 -29 -71h-24v241h25q24 -96 87 -145t133 -49
q62 0 96 35t34 89q0 51 -33.5 84t-117.5 82l-49 28t-42.5 26.5t-41.5 29.5l-31.5 29t-28 34t-14.5 35t-7 42q0 74 51.5 109.5t124.5 35.5q76 0 162 -54q19 27 34 64h25v-198z" />
    <glyph glyph-name="T" unicode="T" horiz-adv-x="735" 
d="M82 677h569q8 12 22 36h25v-207h-26q-25 75 -49.5 105.5t-68.5 30.5h-117q-20 0 -20 -20v-298q0 -206 4 -238q8 -62 60 -62v-24h-218v24q47 0 56 45q8 39 8 254v299q0 20 -20 20h-126q-45 0 -72.5 -32t-45.5 -104h-26v207h25q8 -17 20 -36z" />
    <glyph glyph-name="U" unicode="U" horiz-adv-x="759" 
d="M652 548v-298q0 -44 -16 -88t-46.5 -83.5t-84 -64t-120.5 -24.5q-126 0 -203.5 69t-77.5 188v257q0 100 -12 123q-15 30 -52 30v24h218v-24q-56 0 -62 -76q-2 -21 -2 -77v-284q0 -99 53.5 -147.5t143.5 -48.5q100 0 160.5 65t60.5 170v286q0 66 -15 89q-14 23 -49 23v24
h168v-24q-30 0 -45 -21q-19 -25 -19 -88z" />
    <glyph glyph-name="V" unicode="V" horiz-adv-x="729" 
d="M63 607q-18 49 -60 49v25h218v-24q-21 0 -33.5 -13.5t-12.5 -32.5t11 -45l206 -471l202 462q15 35 15 64q0 36 -54 36v24h169v-24q-46 0 -67 -50l-269 -617h-42z" />
    <glyph glyph-name="W" unicode="W" horiz-adv-x="1103" 
d="M302 -9l-215 591q-15 39 -25 51q-19 24 -47 24v24h218v-24q-46 0 -46 -42q0 -25 19 -78l145 -418l204 557h36l205 -563l162 441q14 36 14 63q0 11 -2.5 18t-15 14.5t-36.5 7.5v24h170v-24q-31 -1 -47 -18.5t-32 -59.5l-217 -588h-46l-202 544l-199 -544h-43z" />
    <glyph glyph-name="X" unicode="X" horiz-adv-x="737" 
d="M737 24v-24h-247v24q47 0 47 22q0 15 -14 33l-171 229l-197 -249q-8 -10 -8 -17q0 -18 56 -18v-24h-198v24q75 0 106 41l217 274l-208 273q-33 44 -80 44v24h238v-24q-20 0 -33 -7.5t-13 -19.5q0 -21 17 -42l138 -185l162 213q7 11 7 19q0 23 -54 23v24h177v-24
q-31 0 -49.5 -12.5t-41.5 -42.5l-177 -231l216 -284q41 -55 110 -63z" />
    <glyph glyph-name="Y" unicode="Y" horiz-adv-x="722" 
d="M315 319l-189 250q-34 44 -64 65q-26 19 -62 23v24h247v-24q-47 0 -47 -29q0 -17 23 -48l164 -209l167 218q18 24 18 41q0 27 -53 27v24h203v-24q-68 0 -110 -56l-207 -270v-137q0 -92 8 -127q8 -38 56 -43v-24h-218v24q46 4 57 43q7 26 7 127v125z" />
    <glyph glyph-name="Z" unicode="Z" horiz-adv-x="655" 
d="M101 506h-26v207h25q4 -16 17 -36h477v-37l-450 -606h318q57 0 84.5 33.5t40.5 94.5h26l-6 -162h-565v37l450 606h-242q-125 0 -149 -137z" />
    <glyph glyph-name="bracketleft" unicode="[" horiz-adv-x="353" 
d="M100 -314v1011h153v-28h-71v-955h71v-28h-153z" />
    <glyph glyph-name="backslash" unicode="\" horiz-adv-x="428" 
d="M68 658l370 -701h-48l-370 701h48z" />
    <glyph glyph-name="bracketright" unicode="]" horiz-adv-x="353" 
d="M253 697v-1011h-153v28h71v955h-71v28h153z" />
    <glyph glyph-name="asciicircum" unicode="^" 
d="M51 352l250 372l249 -372h-66l-184 280l-182 -280h-67z" />
    <glyph glyph-name="underscore" unicode="_" horiz-adv-x="409" 
d="M-2 -174v58h413v-58h-413z" />
    <glyph glyph-name="grave" unicode="`" horiz-adv-x="198" 
d="M198 478h-27l-153 109q-18 12 -18 28q0 12 11 20t28 8q33 0 53 -25z" />
    <glyph glyph-name="a" unicode="a" horiz-adv-x="486" 
d="M469 26l4 -23q-25 -12 -60 -12q-55 0 -78 35q-10 16 -16 52q-1 10 -5 10t-8 -7q-29 -45 -69.5 -69t-83.5 -24q-53 0 -83 28.5t-30 74.5q0 137 270 161l-2 41q-5 91 -93 91q-24 0 -42.5 -5.5t-26.5 -12t-8 -12.5t5 -11q1 -1 4.5 -4t4.5 -4.5t3.5 -4t3.5 -4t2 -5t1.5 -7
t0.5 -7.5q0 -17 -13.5 -29.5t-34.5 -12.5q-20 0 -33 13t-13 35q0 45 47.5 72.5t109.5 27.5q81 0 118 -32.5t40 -92.5l5 -104q7 -114 15 -134q7 -16 16 -21.5t27 -5.5q13 0 22 3zM192 44q48 0 85.5 45.5t35.5 89.5l-1 32q0 9 -9 9q-68 0 -115 -24q-60 -31 -60 -87
q0 -30 17 -47.5t47 -17.5z" />
    <glyph glyph-name="b" unicode="b" horiz-adv-x="559" 
d="M295 21q57 0 91 48t34 123q0 85 -36.5 129.5t-97.5 44.5q-57 0 -90.5 -37.5t-33.5 -77.5v-75q0 -68 36.5 -111.5t96.5 -43.5zM321 413q80 0 132.5 -52.5t52.5 -144.5q0 -99 -61.5 -163.5t-147.5 -64.5q-74 0 -128 48q-8 7 -12 7t-9 -6l-46 -47l-24 4q8 84 8 254v160
q0 91 -6 133.5t-25 61.5q-20 20 -47 24v24l134 45l20 -8v-274v-77q58 76 159 76z" />
    <glyph glyph-name="c" unicode="c" horiz-adv-x="472" 
d="M326 279q0 21 14 35q3 3 8 6.5l8.5 6t3.5 4.5q0 19 -24.5 33t-59.5 14q-60 0 -102.5 -42t-42.5 -121q0 -81 45 -126.5t121 -45.5q70 0 125 31l12 -31q-78 -57 -175 -57q-94 0 -154 55t-60 150q0 106 69 164t155 58q75 0 115 -33.5t40 -80.5q0 -28 -14.5 -45t-37.5 -17
q-18 0 -32 11.5t-14 30.5z" />
    <glyph glyph-name="d" unicode="d" horiz-adv-x="565" 
d="M392 172v52q0 74 -39.5 114.5t-98.5 40.5q-56 0 -89 -46.5t-33 -120.5q0 -86 35.5 -132t100.5 -46q54 0 89 40t35 98zM535 24l-1 -24h-142l3 73q-63 -86 -166 -86q-77 0 -130 50.5t-53 143.5q0 108 61 170t142 62q84 0 143 -63v99q0 106 -13 132q-10 21 -23.5 31
t-41.5 15v24l134 45l23 -6q-3 -103 -3 -137v-262q0 -144 4 -195q3 -36 16.5 -53.5t46.5 -18.5z" />
    <glyph glyph-name="e" unicode="e" horiz-adv-x="487" 
d="M435 286q2 -14 2 -21q0 -6 -8 -14t-13 -8h-283q-1 -15 -1 -25q0 -81 44.5 -127t116.5 -46q68 0 123 34l15 -29q-28 -24 -74 -43t-96 -19q-104 0 -159.5 59.5t-55.5 144.5q0 102 65.5 161.5t146.5 59.5q46 0 82 -15t55 -37.5t28.5 -41.5t11.5 -33zM138 273h191q19 0 19 18
q0 36 -27.5 63t-69.5 27t-73.5 -32.5t-39.5 -75.5z" />
    <glyph glyph-name="f" unicode="f" horiz-adv-x="340" 
d="M33 398h63q2 70 11 113q17 83 67 125.5t117 42.5q59 0 93.5 -27.5t34.5 -64.5q0 -25 -13.5 -42.5t-37.5 -17.5q-23 0 -35 12.5t-12 28.5q0 15 8.5 27t17 18.5t8.5 7.5q0 8 -16.5 16t-40.5 8q-43 0 -74.5 -31t-42.5 -95q-8 -43 -8 -121h123v-34h-123v-139q0 -116 8 -149
q12 -52 78 -52v-24h-226v23q15 1 24.5 4.5t18.5 15t13 31.5q8 38 8 151v139h-64v34z" />
    <glyph glyph-name="g" unicode="g" horiz-adv-x="488" 
d="M235 412q24 0 54 -5q9 44 30 72q25 34 69 34q57 0 57 -52q0 -17 -11.5 -30.5t-31.5 -13.5q-18 0 -32 13.5t-16 13.5q-21 0 -36 -44q97 -31 97 -130q0 -64 -49.5 -114t-138.5 -50q-32 0 -66 8q-24 -39 -24 -55q0 -12 7.5 -19.5t37.5 -15t83 -10.5q36 -2 57.5 -4t49.5 -7
t43.5 -12.5t31 -20t22 -31.5t6.5 -44q0 -66 -63 -121t-173 -55q-114 0 -172 40.5t-58 96.5q0 63 44 105q3 3 8 3q14 0 14 -11q0 -1 -1 -16.5t-1 -35.5q0 -77 49 -113.5t135 -36.5q65 0 106 31t41 78q0 41 -35.5 56t-120.5 21q-94 6 -130 28.5t-36 58.5q0 20 14 49
q6 11 33 51q-88 44 -88 127q0 25 9 50.5t29 51.5t60.5 42.5t95.5 16.5zM223 378q-44 0 -70 -33.5t-26 -83.5q0 -55 28 -87t76 -32q41 0 70 31t29 82q0 61 -30 92t-77 31z" />
    <glyph glyph-name="h" unicode="h" horiz-adv-x="570" 
d="M13 627l5 24l133 45l23 -6q-3 -78 -3 -239v-136q24 43 66 69t89 26q73 0 111 -37.5t38 -124.5q0 -144 9 -179q11 -45 57 -45v-24h-206v24q39 0 52 37q12 33 12 178q0 120 -98 120q-54 0 -92 -40.5t-38 -91.5q0 -124 10 -160q6 -21 22.5 -32t33.5 -11v-24h-206v24
q37 0 52 36q12 29 12 252v139q0 89 -14 127t-68 49z" />
    <glyph glyph-name="i" unicode="i" horiz-adv-x="266" 
d="M78 336q-17 25 -57 32l5 24l126 22l23 -5q-3 -104 -3 -160v-75q0 -75 8 -104q13 -46 58 -46v-24h-206v24q26 0 37.5 11.5t18.5 37.5q8 30 8 100v69q0 67 -18 94zM173 545q0 -21 -14.5 -36t-35.5 -15t-35.5 15t-14.5 36q0 20 14.5 34.5t35.5 14.5t35.5 -14.5t14.5 -34.5z
" />
    <glyph glyph-name="j" unicode="j" horiz-adv-x="267" 
d="M77 335q-14 23 -56 33l5 24l126 22l23 -6l-1 -12v-34t-0.5 -46.5t-1 -58.5t-0.5 -64v-131q0 -89 -12.5 -149t-45.5 -106q-60 -83 -147 -83q-50 0 -80 25.5t-30 65.5q0 25 14.5 43t39.5 18q20 0 32.5 -11t12.5 -30q0 -15 -8.5 -27t-17 -18.5t-8.5 -9.5q0 -8 10 -14
q11 -8 32 -8q45 0 76 34.5t43.5 83t12.5 106.5v216q0 107 -19 137zM170 545q0 -21 -14.5 -36t-34.5 -15q-21 0 -36 15t-15 36q0 20 15 34.5t36 14.5q20 0 34.5 -14.5t14.5 -34.5z" />
    <glyph glyph-name="k" unicode="k" horiz-adv-x="529" 
d="M8 627l5 24l133 45l23 -6q-3 -191 -3 -301v-185l122 97q36 29 36 54q0 20 -47 20v23h209v-23q-60 -7 -99 -38l-118 -91l159 -178q40 -44 98 -44v-24h-224v24q14 0 28.5 5t14.5 12q0 9 -7 17l-125 141l-47 -36q0 -74 10 -102q7 -20 19 -28.5t37 -8.5v-24h-206v24
q39 0 52 34q12 31 12 254v76q0 101 -4.5 143t-22.5 66q-15 22 -55 30z" />
    <glyph glyph-name="l" unicode="l" horiz-adv-x="262" 
d="M8 627l5 24l133 45l23 -6q-3 -120 -3 -248v-182q0 -159 9 -192q12 -44 57 -44v-24h-206v24q44 0 55 44q9 39 9 192v180q0 121 -20 149t-62 38z" />
    <glyph glyph-name="m" unicode="m" horiz-adv-x="834" 
d="M96 179v28q0 103 -18 129q-16 23 -57 32l5 24l126 22l20 -5q-3 -43 -7 -93q52 96 153 96q49 0 86 -24t52 -70q55 94 149 94q62 0 98.5 -33t36.5 -99v-101q0 -83 10 -114q12 -41 56 -41v-24h-205v24q46 0 55 44q8 39 8 112v80q0 101 -89 101q-47 0 -83 -41t-36 -78v-61
q0 -69 10 -111q11 -46 57 -46v-24h-205v24q45 2 55 40q7 26 7 117v80q0 49 -25 74t-68 25q-49 0 -82 -37t-33 -82v-66q0 -80 13 -118q9 -33 53 -33v-24h-206v24q42 0 54 39q10 32 10 116z" />
    <glyph glyph-name="n" unicode="n" horiz-adv-x="570" 
d="M32 0v24q43 0 53 36q11 35 11 117v32q0 93 -14 120q-9 17 -22 25.5t-39 13.5l5 24l126 22l20 -5l-4 -98q21 40 64 70.5t92 30.5q152 0 152 -161v-69q0 -72 7 -104q6 -29 19 -41.5t40 -12.5v-24h-206v24q50 0 57 55q7 56 7 103v63q0 116 -99 116q-54 0 -91.5 -41.5
t-37.5 -88.5v-53q0 -60 7 -102q7 -52 60 -52v-24h-207z" />
    <glyph glyph-name="o" unicode="o" horiz-adv-x="547" 
d="M139 204q0 -90 41.5 -134.5t98.5 -44.5t91.5 48t34.5 122q0 89 -37 135t-101 46q-55 0 -91.5 -44t-36.5 -128zM50 189q0 105 66.5 164.5t165.5 59.5q91 0 151.5 -52t60.5 -147q0 -105 -68 -166t-166 -61q-89 0 -149.5 50.5t-60.5 151.5z" />
    <glyph glyph-name="p" unicode="p" horiz-adv-x="567" 
d="M331 412q80 0 131.5 -49t51.5 -147q0 -101 -58.5 -164.5t-144.5 -63.5q-79 0 -140 59q0 -222 9 -257q12 -44 67 -44v-24h-216v24q39 0 52 35q12 32 12 275v79q0 114 -4.5 151t-18.5 56q-13 18 -52 26l5 24l126 22l20 -5v-72q66 75 160 75zM305 21q56 0 89.5 47t33.5 118
q0 176 -134 176q-46 0 -84.5 -34.5t-38.5 -95.5v-76q0 -59 41.5 -97t92.5 -38z" />
    <glyph glyph-name="q" unicode="q" horiz-adv-x="571" 
d="M442 412h28q0 -1 -0.5 -15.5t-1 -38.5t-0.5 -53t-0.5 -66t-0.5 -72v-97q0 -244 9 -279q3 -12 6.5 -20t16.5 -16.5t34 -8.5v-24h-217v24q56 0 66 48q8 39 8 264q-67 -70 -154 -70q-83 0 -136.5 56t-53.5 144q0 105 59 164.5t145 59.5q39 0 70 -12t77 -41q6 -3 10 -3
q8 0 13 8q5 9 22 48zM391 151v87q0 65 -39.5 101t-93.5 36q-57 0 -91.5 -44.5t-34.5 -118.5q0 -88 38 -136t98 -48q49 0 86 41.5t37 81.5z" />
    <glyph glyph-name="r" unicode="r" horiz-adv-x="457" 
d="M25 392l126 22l20 -5q-2 -61 -11 -138h5q23 68 65 104t96 36q45 0 72.5 -24t27.5 -69q0 -29 -13 -47.5t-39 -18.5q-19 0 -32 12t-13 31q0 15 9 28q2 3 6 8l6 7.5t2 5.5q0 26 -45 26q-58 0 -97 -63.5t-39 -138.5q0 -73 9 -103q12 -41 56 -41v-24h-205v24q39 0 51 31
q13 35 13 124v41q0 87 -18 116q-16 25 -57 32z" />
    <glyph glyph-name="s" unicode="s" horiz-adv-x="426" 
d="M324 430h25v-164h-25q-47 116 -137 116q-28 0 -43 -14t-15 -35q0 -27 34 -52q36 -26 76 -43q29 -13 61 -31q65 -38 65 -93q0 -54 -39 -89t-99 -35q-65 0 -121 37q-8 4 -10 4q-5 0 -7 -6l-11 -41h-25v163h25q14 -65 59 -96t94 -31q30 0 48.5 17t18.5 44q0 18 -8.5 29
t-30.5 25q-16 10 -54 28q-66 34 -88 50q-54 39 -54 97q0 49 36 75.5t85 26.5q58 0 119 -40z" />
    <glyph glyph-name="t" unicode="t" horiz-adv-x="349" 
d="M162 398h142v-34h-141v-231q0 -52 20 -74.5t60 -22.5q34 0 72 19l11 -29q-23 -17 -56.5 -27.5t-60.5 -10.5q-122 0 -122 136v240h-76v29q52 0 82 30q24 24 38 72h31v-97z" />
    <glyph glyph-name="u" unicode="u" horiz-adv-x="567" 
d="M74 333q-19 33 -59 41v24h157q-4 -68 -4 -105v-136q0 -119 93 -119q50 0 92.5 45.5t42.5 97.5v72q0 62 -20 89q-19 26 -57 32v24h157q0 -1 -1 -30t-2 -68.5t-1 -65.5v-46q0 -90 10 -123q12 -41 56 -41v-24h-142v91q-63 -103 -159 -103q-57 0 -98 32.5t-45 92.5
q-2 32 -2 75v58q0 56 -18 87z" />
    <glyph glyph-name="v" unicode="v" horiz-adv-x="517" 
d="M228 -12l-165 339q-23 47 -74 47v24h201v-24q-18 0 -31 -7t-13 -18q0 -8 5 -20l116 -256l114 228q12 26 12 41q0 32 -53 32v24h170v-24q-52 0 -87 -68l-164 -318h-31z" />
    <glyph glyph-name="w" unicode="w" horiz-adv-x="733" 
d="M208 -9l-129 338q-15 39 -64 45v24h197v-24q-47 -3 -47 -32q0 -18 12 -52l72 -192l121 300h46l112 -302l86 220q9 22 9 34q0 24 -48 24v24h143v-24q-48 -4 -65 -48l-135 -335h-32l-118 316l-128 -316h-32z" />
    <glyph glyph-name="x" unicode="x" horiz-adv-x="535" 
d="M518 24v-24h-211v24q41 0 41 22q0 11 -9 20l-90 108l-108 -117q-9 -10 -9 -18q0 -15 45 -15v-24h-162v24q22 0 48 12.5t40 27.5l127 132l-106 130q-35 43 -85 48v24h207v-24q-36 0 -36 -22q0 -14 48 -69l28 -32l77 82q13 15 13 26q0 15 -28 15v24h142v-24q-46 0 -83 -37
l-103 -109l133 -162q35 -42 81 -42z" />
    <glyph glyph-name="y" unicode="y" horiz-adv-x="536" 
d="M159 292l113 -218l121 223q16 28 16 47q0 30 -61 30v24h183v-24q-51 0 -82 -56l-265 -478q-12 -21 -22 -36.5t-26.5 -33.5t-36.5 -28t-42 -10q-37 0 -58.5 20t-21.5 50q0 24 13.5 41t38.5 17q19 0 32.5 -10.5t13.5 -29.5q0 -15 -8.5 -28.5t-8.5 -15.5q0 -7 11 -7
q22 0 50 39q24 35 58 97l49 92l-164 318q-27 53 -81 59v24h225v-24q-60 0 -60 -37q0 -19 13 -45z" />
    <glyph glyph-name="z" unicode="z" horiz-adv-x="470" 
d="M417 0h-379v24l280 342h-128q-50 0 -77.5 -31t-27.5 -84h-25v180h25l18 -33h318v-24l-284 -342h170q38 0 61.5 33.5t23.5 68.5h25v-134z" />
    <glyph glyph-name="braceleft" unicode="{" horiz-adv-x="358" 
d="M308 -289v-25q-81 0 -142 51t-61 140q0 13 15 97t15 111q0 43 -24 67t-61 24v30q37 0 61 24t24 67q0 27 -15 111t-15 97q0 92 60.5 141.5t142.5 49.5v-25q-63 0 -95 -39t-32 -106q0 -16 15 -107t15 -115q0 -36 -26.5 -68t-72.5 -43v-4q46 -12 72.5 -43.5t26.5 -67.5
q0 -24 -15 -115t-15 -107q0 -67 33 -106t94 -39z" />
    <glyph glyph-name="bar" unicode="|" horiz-adv-x="442" 
d="M200 -255v881h42v-881h-42z" />
    <glyph glyph-name="braceright" unicode="}" horiz-adv-x="358" 
d="M50 -314v25q61 0 94 39t33 106q0 16 -15 107t-15 115q0 36 26.5 67.5t72.5 43.5v4q-46 11 -72.5 43t-26.5 68q0 24 15 115t15 107q0 67 -32 106t-95 39v25q82 0 142.5 -49.5t60.5 -141.5q0 -13 -15 -97t-15 -111q0 -43 24 -67t61 -24v-30q-37 0 -61 -24t-24 -67
q0 -27 15 -111t15 -97q0 -89 -61 -140t-142 -51z" />
    <glyph glyph-name="asciitilde" unicode="~" 
d="M66 243l-27 8q18 81 56.5 115.5t85.5 34.5q25 0 57.5 -13t78 -37.5t69.5 -35.5q33 -15 57 -15q33 0 61 39q9 13 17 29t11 26l4 9l25 -14q-17 -60 -58 -105q-35 -39 -88 -39q-39 0 -80 19l-70 33.5l-67 32.5q-26 12 -46 12q-41 0 -70 -56z" />
    <glyph glyph-name="uni00A0" unicode="&#xa0;" horiz-adv-x="250" 
 />
    <glyph glyph-name="exclamdown" unicode="&#xa1;" horiz-adv-x="255" 
d="M53 -188l35 418h24l36 -419q2 -20 2 -41q0 -34 -15 -49t-35 -15t-35 14.5t-15 49.5q0 12 3 42zM38 348q0 26 18 44t44 18t44.5 -18t18.5 -44t-18.5 -44.5t-44.5 -18.5t-44 18.5t-18 44.5z" />
    <glyph glyph-name="cent" unicode="&#xa2;" 
d="M289 -110v97q-85 8 -137 61.5t-52 142.5q0 94 55.5 150.5t133.5 68.5v100h42v-97q71 -2 109.5 -35t38.5 -79q0 -28 -14.5 -45t-37.5 -17q-18 0 -32 11.5t-14 30.5q0 21 14 35q3 3 8 6.5l8.5 6t3.5 4.5q0 19 -24.5 33t-59.5 14q-60 0 -102.5 -42t-42.5 -121
q0 -81 45 -126.5t121 -45.5q70 0 125 31l12 -31q-71 -53 -158 -56v-97h-42z" />
    <glyph glyph-name="sterling" unicode="&#xa3;" 
d="M116 404h49q4 57 19 105q26 76 84 127.5t150 51.5q59 0 90 -25.5t31 -60.5q0 -18 -10.5 -33.5t-29.5 -15.5q-17 0 -27.5 9.5t-10.5 24.5q0 10 7 19.5t14 15.5t7 7q0 7 -10 13q-24 14 -56 14q-62 0 -101.5 -43.5t-56.5 -114.5q-12 -50 -12 -94h216v-35h-217v-234
q135 -76 231 -76q43 0 59 21t16 60q0 16 -1 24h23q5 -25 5 -45q0 -58 -32 -94.5t-84 -36.5q-93 0 -237 71q-47 -61 -108 -61q-41 0 -62.5 21.5t-21.5 53.5q0 37 23.5 63.5t61.5 26.5q18 0 36 -5v211h-45v35zM110 29q22 0 34 21q14 23 14 51q-25 16 -46 16q-16 0 -27.5 -12
t-11.5 -33t11 -32t26 -11z" />
    <glyph glyph-name="currency" unicode="&#xa4;" 
d="M68 657v24h262q42 0 79 -7.5t72.5 -25t56.5 -52.5t21 -83q0 -97 -74 -153t-184 -56h-78v-60h247v-34h-247q0 -96 6 -132q8 -54 78 -54v-24h-238v24q44 0 55 43q9 36 9 137v6h-128v34h128v60h-128v34h128v167q0 107 -15 127q-19 25 -50 25zM223 338h64q84 0 128 46.5
t44 121.5q0 68 -42.5 104.5t-114.5 36.5h-26q-44 0 -50 -50q-3 -29 -3 -87v-172z" />
    <glyph glyph-name="yen" unicode="&#xa5;" 
d="M561 325h-217v-60h217v-34h-217v-37q0 -92 8 -127q11 -43 56 -43v-24h-218v24q45 0 55 43q9 40 9 127v37h-218v34h218v60h-218v34h218q-163 217 -166 220q-28 34 -54.5 54.5t-62.5 24.5v23h241v-24q-22 0 -33.5 -9.5t-11.5 -21.5q0 -16 20 -43l140 -185l130 190
q17 23 17 40q0 28 -52 29v24h207v-24q-70 0 -110 -56l-171 -242h213v-34z" />
    <glyph glyph-name="brokenbar" unicode="&#xa6;" horiz-adv-x="442" 
d="M200 -255v357h42v-357h-42zM200 269v357h42v-357h-42z" />
    <glyph glyph-name="section" unicode="&#xa7;" horiz-adv-x="548" 
d="M456 219q0 -87 -55 -173q45 -50 45 -107q0 -69 -52.5 -107.5t-127.5 -38.5q-72 0 -119.5 31.5t-47.5 82.5q0 26 13.5 44.5t37.5 18.5q18 0 31.5 -10.5t13.5 -27.5q0 -23 -22 -38q-3 -2 -8.5 -4t-8.5 -4t-3 -4q0 -18 31 -38t75 -20q48 0 76.5 25.5t28.5 67.5q0 59 -78 105
l-100 60q-82 51 -82 149q0 69 60 162q-50 45 -50 112q0 69 52 107.5t131 38.5q68 0 117.5 -30t49.5 -84q0 -26 -13.5 -44.5t-37.5 -18.5q-19 0 -32 10.5t-13 27.5q0 24 21 38q3 2 8.5 4t9 4t3.5 4q0 20 -31 39.5t-77 19.5q-50 0 -78.5 -25.5t-28.5 -68.5q0 -59 79 -105
l99 -59q44 -27 63.5 -61t19.5 -83zM194 368l-12 8q-24 -47 -24 -96q0 -38 17 -68t68 -62q13 -8 54 -31.5t67 -41.5l20 -14q18 52 18 101q0 38 -17.5 68t-68.5 62q-13 9 -54.5 33t-67.5 41z" />
    <glyph glyph-name="dieresis" unicode="&#xa8;" horiz-adv-x="276" 
d="M0 555q0 21 15 36t35 15q21 0 36 -15t15 -36q0 -20 -15 -35t-36 -15q-20 0 -35 15t-15 35zM175 555q0 21 15 36t35 15q21 0 36 -15t15 -36q0 -20 -15 -35t-36 -15q-20 0 -35 15t-15 35z" />
    <glyph glyph-name="copyright" unicode="&#xa9;" horiz-adv-x="854" 
d="M70 346q0 148 104.5 253t251.5 105q148 0 253 -105t105 -253q0 -146 -103 -251t-255 -105t-254 102.5t-102 253.5zM121 346q0 -131 88 -223t217 -92q130 0 218.5 92t88.5 223q0 132 -88.5 224.5t-218.5 92.5q-129 0 -217 -92.5t-88 -224.5zM423 556q60 0 104 -28
q14 15 24 39h23v-135h-23q-40 93 -124 93q-63 0 -104 -42t-41 -116q0 -83 48.5 -130t125.5 -47q75 0 132 46l11 -19q-70 -68 -169 -68q-91 0 -152.5 53t-61.5 143q0 94 60 152.5t147 58.5z" />
    <glyph glyph-name="ordfeminine" unicode="&#xaa;" horiz-adv-x="522" 
d="M423 245l8 -24q-26 -14 -55 -14q-48 0 -71 30q-12 13 -20 42q-1 9 -4 9t-7 -6q-55 -78 -134 -78q-47 0 -73.5 26t-26.5 66q0 68 66 106t170 51q0 17 -1 22q-8 71 -74 71q-23 0 -41 -7.5t-18 -14.5q0 -4 5 -8q15 -12 15 -29q0 -14 -10.5 -24t-27.5 -10q-16 0 -26.5 12.5
t-10.5 30.5q0 39 42 60t95 21q62 0 88.5 -28t28.5 -81l5 -92q4 -84 16 -108q11 -25 42 -25q11 0 19 2zM175 256q42 0 73 38.5t31 77.5v6l-1 32q0 11 -11 11q-60 0 -105 -30.5t-45 -78.5q0 -25 15 -40.5t43 -15.5z" />
    <glyph glyph-name="guillemotleft" unicode="&#xab;" horiz-adv-x="500" 
d="M301 -1l-276 216l276 210h38l-208 -209l208 -217h-38zM411 49l-216 167l217 159h38l-159 -159l158 -167h-38z" />
    <glyph glyph-name="logicalnot" unicode="&#xac;" 
d="M458 245h-365v46h413v-231h-48v185z" />
    <glyph glyph-name="registered" unicode="&#xae;" horiz-adv-x="854" 
d="M264 531v23h153q141 0 141 -92q0 -43 -26.5 -71t-70.5 -38q57 -88 110 -133q27 -23 63 -30v-23h-106q-69 80 -134 183h-33q0 -116 3 -131q5 -26 48 -29v-23h-142v23q24 0 27 22q4 34 4 132v83q0 78 -8 90q-9 14 -29 14zM361 380h43q38 0 63 21t25 57q0 66 -83 66
q-26 0 -48 -2v-142zM70 346q0 148 104.5 253t251.5 105q148 0 253 -105t105 -253q0 -146 -103 -251t-255 -105t-254 102.5t-102 253.5zM121 346q0 -131 88 -223t217 -92q130 0 218.5 92t88.5 223q0 132 -88.5 224.5t-218.5 92.5q-129 0 -217 -92.5t-88 -224.5z" />
    <glyph glyph-name="macron" unicode="&#xaf;" horiz-adv-x="243" 
d="M0 497v45h243v-45h-243z" />
    <glyph glyph-name="degree" unicode="&#xb0;" horiz-adv-x="364" 
d="M49 583q0 51 36 87t87 36t87 -36t36 -87t-36 -87t-87 -36t-87 36t-36 87zM102 583q0 -31 20 -53.5t50 -22.5t50 22.5t20 53.5t-20 53.5t-50 22.5t-50 -22.5t-20 -53.5z" />
    <glyph glyph-name="plusminus" unicode="&#xb1;" 
d="M265 483h48v-182h183v-46h-183v-185h-48v185h-182v46h182v182zM103 46h413v-46h-413v46z" />
    <glyph glyph-name="twosuperior" unicode="&#xb2;" horiz-adv-x="431" 
d="M368 351l-6 -148h-312v28q104 74 156 137.5t52 124.5q0 36 -18 55.5t-50 19.5q-58 0 -102 -61l-20 18q30 44 66.5 69t93.5 25q54 0 86 -31.5t32 -79.5q0 -127 -193 -236h104q35 0 58 21q23 23 29 58h24z" />
    <glyph glyph-name="threesuperior" unicode="&#xb3;" horiz-adv-x="391" 
d="M184 438v-4q155 -14 155 -113q0 -53 -43.5 -90.5t-121.5 -37.5q-55 0 -90.5 22t-35.5 60q0 18 11.5 29t28.5 11q37 0 37 -34q0 -11 -9 -24l-9 -13q0 -8 16.5 -15t39.5 -7q37 0 64 26.5t27 74.5q0 46 -29.5 72t-80.5 26h-23v23h20q34 0 60 21.5t26 59.5q0 29 -16.5 44
t-44.5 15q-19 0 -30.5 -6.5t-11.5 -14.5q0 -1 12.5 -11t12.5 -24t-10.5 -23.5t-25.5 -9.5q-19 0 -28.5 11t-9.5 26q0 35 34 60.5t88 25.5q55 0 85.5 -22t30.5 -61q0 -34 -34.5 -62.5t-94.5 -34.5z" />
    <glyph glyph-name="acute" unicode="&#xb4;" horiz-adv-x="198" 
d="M27 479h-27l106 140q20 25 53 25q17 0 28 -8t11 -20q0 -18 -18 -30z" />
    <glyph glyph-name="mu" unicode="&#xb5;" horiz-adv-x="654" 
d="M119 332q-17 29 -55 36v24l126 22l23 -6q0 -2 -1.5 -43.5t-1.5 -71.5v-135q0 -58 26 -91t74 -33t88.5 46.5t40.5 99.5v50q0 84 -16 107q-15 23 -52 31v24l126 22l24 -6q0 -1 -1 -32.5t-2 -73.5t-1 -68v-167q0 -31 31 -31q14 0 32.5 10t28.5 22l8 -28q-44 -52 -97 -52
q-35 0 -58 20t-23 59v23q-48 -102 -132 -102q-73 0 -106 63l-5 -3q2 -38 5.5 -87t6.5 -83t3 -43q0 -23 -11.5 -38.5t-33.5 -15.5q-46 0 -46 55q0 3 7 145t7 207v36q0 82 -15 108z" />
    <glyph glyph-name="mu" unicode="&#x3bc;" horiz-adv-x="654" 
d="M119 332q-17 29 -55 36v24l126 22l23 -6q0 -2 -1.5 -43.5t-1.5 -71.5v-135q0 -58 26 -91t74 -33t88.5 46.5t40.5 99.5v50q0 84 -16 107q-15 23 -52 31v24l126 22l24 -6q0 -1 -1 -32.5t-2 -73.5t-1 -68v-167q0 -31 31 -31q14 0 32.5 10t28.5 22l8 -28q-44 -52 -97 -52
q-35 0 -58 20t-23 59v23q-48 -102 -132 -102q-73 0 -106 63l-5 -3q2 -38 5.5 -87t6.5 -83t3 -43q0 -23 -11.5 -38.5t-33.5 -15.5q-46 0 -46 55q0 3 7 145t7 207v36q0 82 -15 108z" />
    <glyph glyph-name="paragraph" unicode="&#xb6;" horiz-adv-x="455" 
d="M30 528q0 78 53 127t136 49h31v-959h-42v602q-80 3 -129 53t-49 128zM313 -255v959h42v-959h-42z" />
    <glyph glyph-name="periodcentered" unicode="&#xb7;" horiz-adv-x="325" 
d="M100 233q0 26 18 44.5t44 18.5t44.5 -18.5t18.5 -44.5t-18.5 -44t-44.5 -18t-44 18.5t-18 43.5z" />
    <glyph glyph-name="cedilla" unicode="&#xb8;" horiz-adv-x="129" 
d="M46 4h37l-29 -60q5 1 14 1q27 0 44 -15t17 -45q0 -42 -33 -69.5t-92 -27.5l-4 28q31 0 50 14.5t19 42.5q0 30 -33 30q-18 0 -32 -7l-2 19z" />
    <glyph glyph-name="onesuperior" unicode="&#xb9;" horiz-adv-x="309" 
d="M199 614v-230q0 -89 9 -116q14 -41 57 -41v-24h-205v24q41 0 56 41q11 32 11 117v73q0 37 -11.5 51.5t-36.5 14.5l-30 -5l-3 25l135 73z" />
    <glyph glyph-name="ordmasculine" unicode="&#xba;" horiz-adv-x="558" 
d="M131 394q0 -80 37 -118t89 -38t83 41t31 107q0 78 -33 117.5t-91 39.5q-51 0 -83.5 -38t-32.5 -111zM53 380q0 93 59.5 145.5t147.5 52.5q80 0 135 -46t55 -130q0 -93 -61 -146t-149 -53q-78 0 -132.5 44.5t-54.5 132.5z" />
    <glyph glyph-name="guillemotright" unicode="&#xbb;" horiz-adv-x="500" 
d="M472 216l-274 -217h-37l208 217l-208 209h37zM305 215l-218 -166h-36l155 167l-156 159h37z" />
    <glyph glyph-name="onequarter" unicode="&#xbc;" horiz-adv-x="1021" 
d="M276 -43l296 738h48l-296 -738h-48zM203 634v-229q0 -110 9 -137q14 -41 57 -41v-24h-205v24q41 0 56 41q11 32 11 137v73q0 37 -11.5 51.5t-36.5 14.5l-30 -5l-3 25l135 73zM878 218h24l-5 -105h-74q0 -37 1 -47q3 -23 12 -31q12 -11 31 -11v-24h-178v24q29 0 44 11
q13 11 16 36q1 14 1 42h-213l-3 18l256 302h33v-266h14q16 0 27.5 13.5t13.5 37.5zM750 344l-147 -177h147v177z" />
    <glyph glyph-name="onehalf" unicode="&#xbd;" horiz-adv-x="1001" 
d="M921 153l-6 -153h-322v29q107 77 160.5 142t53.5 128q0 77 -70 77q-60 0 -105 -62l-20 18q31 46 68.5 71.5t96.5 25.5q56 0 88.5 -32.5t32.5 -81.5q0 -131 -199 -244h113q36 0 59 22q24 22 30 60h20zM203 634v-229q0 -110 9 -137q14 -41 57 -41v-24h-205v24q42 0 55 41
q12 39 12 137v73q0 37 -11.5 51.5t-36.5 14.5l-30 -5l-3 25l135 73zM296 -43l296 738h48l-296 -738h-48z" />
    <glyph glyph-name="threequarters" unicode="&#xbe;" horiz-adv-x="933" 
d="M276 -43l296 738h48l-296 -738h-48zM719 246v-4q164 -14 164 -119q0 -56 -45.5 -95.5t-128.5 -39.5q-58 0 -95.5 23t-37.5 63q0 19 12 31t30 12q16 0 27.5 -8.5t11.5 -27.5q0 -12 -9 -25l-10 -14q0 -9 17 -16t42 -7q40 0 68 27.5t28 78.5q0 48 -31 75.5t-85 27.5h-24v25
h21q36 0 63.5 22.5t27.5 62.5q0 30 -18 46t-47 16q-20 0 -32 -7t-12 -15q0 -1 13 -11.5t13 -25.5t-11 -25t-27 -10q-19 0 -29.5 12t-10.5 27q0 37 36 64t93 27q58 0 90 -23.5t32 -63.5q0 -37 -36 -66.5t-100 -36.5zM203 634v-229q0 -110 9 -137q14 -41 57 -41v-24h-205v24
q41 0 56 41q11 32 11 137v73q0 37 -11.5 51.5t-36.5 14.5l-30 -5l-3 25l135 73z" />
    <glyph glyph-name="questiondown" unicode="&#xbf;" horiz-adv-x="475" 
d="M312 238l-39 1v-107q-109 -22 -176 -87.5t-67 -163.5q0 -76 51.5 -126t139.5 -50q46 0 89.5 15.5t63.5 31.5l21 15l-11 25q-56 -32 -123 -32q-66 0 -104 32t-38 91q0 85 59.5 132t133.5 51v172zM353 348q0 -26 -18 -44.5t-44 -18.5t-44.5 18.5t-18.5 44.5t18.5 44
t44.5 18q25 0 43.5 -18t18.5 -44z" />
    <glyph glyph-name="Agrave" unicode="&#xc0;" horiz-adv-x="758" 
d="M77 80l281 623h53l264 -616q18 -40 39 -53q15 -10 42 -10v-24h-224v24q58 0 58 35q0 7 -4 17l-79 184h-308l-72 -159q-10 -24 -10 -41q0 -18 11 -27t42 -9v-24h-165v24q47 0 72 56zM360 623l-146 -329h281zM454 748h-27l-169 61q-22 8 -22 30q0 13 11 21.5t28 8.5
q27 0 55 -23z" />
    <glyph glyph-name="Aacute" unicode="&#xc1;" horiz-adv-x="758" 
d="M77 80l281 623h53l264 -616q18 -40 39 -53q15 -10 42 -10v-24h-224v24q58 0 58 35q0 7 -4 17l-79 184h-308l-72 -159q-10 -24 -10 -41q0 -18 11 -27t42 -9v-24h-165v24q47 0 72 56zM360 623l-146 -329h281zM332 748h-27l124 98q28 23 55 23q17 0 28 -8.5t11 -21.5
q0 -22 -22 -30z" />
    <glyph glyph-name="Acircumflex" unicode="&#xc2;" horiz-adv-x="758" 
d="M77 80l281 623h53l264 -616q18 -40 39 -53q15 -10 42 -10v-24h-224v24q58 0 58 35q0 7 -4 17l-79 184h-308l-72 -159q-10 -24 -10 -41q0 -18 11 -27t42 -9v-24h-165v24q47 0 72 56zM360 623l-146 -329h281zM382 885l143 -118l-18 -19l-126 59l-124 -59l-18 20z" />
    <glyph glyph-name="Atilde" unicode="&#xc3;" horiz-adv-x="758" 
d="M77 80l281 623h53l264 -616q18 -40 39 -53q15 -10 42 -10v-24h-224v24q58 0 58 35q0 7 -4 17l-79 184h-308l-72 -159q-10 -24 -10 -41q0 -18 11 -27t42 -9v-24h-165v24q47 0 72 56zM360 623l-146 -329h281zM385 820l21 -7q50 -16 60 -16q16 0 23.5 10.5t13.5 34.5l22 -5
q-12 -57 -31 -77t-47 -20q-19 0 -52 11l-27 9q-56 18 -65 18q-20 0 -29 -43l-22 5q12 60 26 77.5t43 17.5q17 0 64 -15z" />
    <glyph glyph-name="Adieresis" unicode="&#xc4;" horiz-adv-x="758" 
d="M77 80l281 623h53l264 -616q18 -40 39 -53q15 -10 42 -10v-24h-224v24q58 0 58 35q0 7 -4 17l-79 184h-308l-72 -159q-10 -24 -10 -41q0 -18 11 -27t42 -9v-24h-165v24q47 0 72 56zM360 623l-146 -329h281zM249 798q0 21 15 36t35 15q21 0 36 -15t15 -36q0 -20 -15 -35
t-36 -15q-20 0 -35 15t-15 35zM424 798q0 21 15 36t35 15q21 0 36 -15t15 -36q0 -20 -15 -35t-36 -15q-20 0 -35 15t-15 35z" />
    <glyph glyph-name="Aring" unicode="&#xc5;" horiz-adv-x="758" 
d="M77 80l281 623h53l264 -616q18 -40 39 -53q15 -10 42 -10v-24h-224v24q58 0 58 35q0 7 -4 17l-79 184h-308l-72 -159q-10 -24 -10 -41q0 -18 11 -27t42 -9v-24h-165v24q47 0 72 56zM360 623l-146 -329h281zM301 824q0 33 22 54.5t54 21.5q33 0 55 -21.5t22 -54.5
q0 -32 -22.5 -54t-54.5 -22t-54 21.5t-22 54.5zM340 824q0 -16 11 -27.5t26 -11.5q16 0 26.5 11.5t10.5 27.5t-10.5 27.5t-26.5 11.5q-15 0 -26 -11.5t-11 -27.5z" />
    <glyph glyph-name="AE" unicode="&#xc6;" horiz-adv-x="1049" 
d="M784 355h-166v-73q0 -156 5 -199q3 -24 14.5 -36.5t35.5 -12.5h167q58 0 91.5 39t42.5 97h25l-7 -170h-528v24q44 0 55 43q8 29 8 172h-274l-97 -129q-23 -32 -23 -50q0 -36 65 -36v-24h-198v24q40 0 82 56l445 601h376q17 19 27 35h25v-216h-26q-12 76 -47.5 111.5
t-107.5 35.5h-104q-25 0 -37 -11.5t-13 -38.5q-2 -41 -2 -150v-58h166q43 0 65 21q19 18 21 55h25v-192h-25q-3 42 -21 61q-18 21 -65 21zM527 277v339l-247 -339h247z" />
    <glyph glyph-name="Ccedilla" unicode="&#xc7;" horiz-adv-x="729" 
d="M385 685q107 0 201 -47q23 25 38 64h25v-216h-27q-68 165 -235 165q-98 0 -167 -79.5t-69 -203.5q0 -157 84.5 -238t223.5 -81q108 0 192 44l12 -28q-98 -70 -233 -74l-23 -47q5 1 14 1q27 0 44 -15t17 -45q0 -42 -33 -69.5t-92 -27.5l-4 28q31 0 50 14.5t19 42.5
q0 30 -33 30q-18 0 -32 -7l-2 19l37 77q-152 6 -247 96.5t-95 240.5q0 112 48.5 195t123 122t163.5 39z" />
    <glyph glyph-name="Egrave" unicode="&#xc8;" horiz-adv-x="619" 
d="M364 355h-166v-73q0 -156 5 -199q3 -24 14.5 -36.5t35.5 -12.5h167q58 0 91.5 39t42.5 97h25l-7 -170h-527v24q44 0 55 43q8 30 8 176v205v33v29.5v24.5t-0.5 23t-1 18.5t-1 16.5t-2 13t-3 12t-3.5 9q-15 30 -52 30v24h438q17 19 27 35h25v-216h-26q-12 76 -47.5 111.5
t-107.5 35.5h-104q-25 0 -37 -11.5t-13 -38.5q-2 -41 -2 -150v-58h166q43 0 65 21q19 18 21 55h25v-192h-25q-3 42 -21 61q-18 21 -65 21zM372 748h-27l-169 61q-22 8 -22 30q0 13 11 21.5t28 8.5q27 0 55 -23z" />
    <glyph glyph-name="Eacute" unicode="&#xc9;" horiz-adv-x="619" 
d="M364 355h-166v-73q0 -156 5 -199q3 -24 14.5 -36.5t35.5 -12.5h167q58 0 91.5 39t42.5 97h25l-7 -170h-527v24q44 0 55 43q8 30 8 176v205v33v29.5v24.5t-0.5 23t-1 18.5t-1 16.5t-2 13t-3 12t-3.5 9q-15 30 -52 30v24h438q17 19 27 35h25v-216h-26q-12 76 -47.5 111.5
t-107.5 35.5h-104q-25 0 -37 -11.5t-13 -38.5q-2 -41 -2 -150v-58h166q43 0 65 21q19 18 21 55h25v-192h-25q-3 42 -21 61q-18 21 -65 21zM214 748h-27l124 98q28 23 55 23q17 0 28 -8.5t11 -21.5q0 -22 -22 -30z" />
    <glyph glyph-name="Ecircumflex" unicode="&#xca;" horiz-adv-x="619" 
d="M364 355h-166v-73q0 -156 5 -199q3 -24 14.5 -36.5t35.5 -12.5h167q58 0 91.5 39t42.5 97h25l-7 -170h-527v24q44 0 55 43q8 30 8 176v205v33v29.5v24.5t-0.5 23t-1 18.5t-1 16.5t-2 13t-3 12t-3.5 9q-15 30 -52 30v24h438q17 19 27 35h25v-216h-26q-12 76 -47.5 111.5
t-107.5 35.5h-104q-25 0 -37 -11.5t-13 -38.5q-2 -41 -2 -150v-58h166q43 0 65 21q19 18 21 55h25v-192h-25q-3 42 -21 61q-18 21 -65 21zM259 885l143 -118l-18 -19l-126 59l-124 -59l-18 20z" />
    <glyph glyph-name="Edieresis" unicode="&#xcb;" horiz-adv-x="619" 
d="M364 355h-166v-73q0 -156 5 -199q3 -24 14.5 -36.5t35.5 -12.5h167q58 0 91.5 39t42.5 97h25l-7 -170h-527v24q44 0 55 43q8 30 8 176v205v33v29.5v24.5t-0.5 23t-1 18.5t-1 16.5t-2 13t-3 12t-3.5 9q-15 30 -52 30v24h438q17 19 27 35h25v-216h-26q-12 76 -47.5 111.5
t-107.5 35.5h-104q-25 0 -37 -11.5t-13 -38.5q-2 -41 -2 -150v-58h166q43 0 65 21q19 18 21 55h25v-192h-25q-3 42 -21 61q-18 21 -65 21zM138 798q0 21 15 36t35 15q21 0 36 -15t15 -36q0 -20 -15 -35t-36 -15q-20 0 -35 15t-15 35zM313 798q0 21 15 36t35 15q21 0 36 -15
t15 -36q0 -20 -15 -35t-36 -15q-20 0 -35 15t-15 35z" />
    <glyph glyph-name="Igrave" unicode="&#xcc;" horiz-adv-x="323" 
d="M226 640q-15 -17 -18.5 -43.5t-3.5 -92.5v-260q0 -110 2.5 -143t14.5 -53q15 -24 47 -24v-24h-218v24q28 0 42 16q15 16 18.5 58.5t3.5 145.5v253q0 78 -4 103.5t-18 41.5q-14 15 -42 15v24h218v-24q-27 0 -42 -17zM266 748h-27l-169 61q-22 8 -22 30q0 13 11 21.5
t28 8.5q27 0 55 -23z" />
    <glyph glyph-name="Iacute" unicode="&#xcd;" horiz-adv-x="323" 
d="M226 640q-15 -17 -18.5 -43.5t-3.5 -92.5v-260q0 -110 2.5 -143t14.5 -53q15 -24 47 -24v-24h-218v24q28 0 42 16q15 16 18.5 58.5t3.5 145.5v253q0 78 -4 103.5t-18 41.5q-14 15 -42 15v24h218v-24q-27 0 -42 -17zM81 748h-27l124 98q28 23 55 23q17 0 28 -8.5t11 -21.5
q0 -22 -22 -30z" />
    <glyph glyph-name="Icircumflex" unicode="&#xce;" horiz-adv-x="323" 
d="M226 640q-15 -17 -18.5 -43.5t-3.5 -92.5v-260q0 -110 2.5 -143t14.5 -53q15 -24 47 -24v-24h-218v24q28 0 42 16q15 16 18.5 58.5t3.5 145.5v253q0 78 -4 103.5t-18 41.5q-14 15 -42 15v24h218v-24q-27 0 -42 -17zM157 885l143 -118l-18 -19l-126 59l-124 -59l-18 20z
" />
    <glyph glyph-name="Idieresis" unicode="&#xcf;" horiz-adv-x="323" 
d="M226 640q-15 -17 -18.5 -43.5t-3.5 -92.5v-260q0 -110 2.5 -143t14.5 -53q15 -24 47 -24v-24h-218v24q28 0 42 16q15 16 18.5 58.5t3.5 145.5v253q0 78 -4 103.5t-18 41.5q-14 15 -42 15v24h218v-24q-27 0 -42 -17zM21 798q0 21 15 36t35 15q21 0 36 -15t15 -36
q0 -20 -15 -35t-36 -15q-20 0 -35 15t-15 35zM196 798q0 21 15 36t35 15q21 0 36 -15t15 -36q0 -20 -15 -35t-36 -15q-20 0 -35 15t-15 35z" />
    <glyph glyph-name="Eth" unicode="&#xd0;" horiz-adv-x="751" 
d="M13 357v41h99v105q0 41 -0.5 60.5t-5 41.5t-12.5 32q-17 20 -46 20v24h283q182 0 277 -77t95 -225q0 -91 -33.5 -165.5t-88 -120t-120.5 -69.5t-135 -24h-278v24q25 0 37 10.5t19 37.5q8 31 8 172v113h-99zM202 501v-103h100v-41h-100v-115q0 -115 4 -158q5 -50 50 -50
h65q124 0 203 89t79 244q0 138 -70 209t-207 71h-71q-21 0 -35 -12.5t-16 -38.5q-2 -19 -2 -95z" />
    <glyph glyph-name="Ntilde" unicode="&#xd1;" horiz-adv-x="756" 
d="M648 580v-579l-26 -7l-468 559v-454q0 -41 17 -58q15 -17 61 -17v-24h-192v24q44 0 56 12q20 20 20 132v255l-1 141q0 53 -20 72q-18 17 -54 21v24h122l447 -540v439q0 41 -22 60q-18 17 -55 17v24h193v-24q-27 0 -42 -7q-36 -17 -36 -70zM385 820l21 -7q50 -16 60 -16
q16 0 23.5 10.5t13.5 34.5l22 -5q-12 -57 -31 -77t-47 -20q-19 0 -52 11l-27 9q-56 18 -65 18q-20 0 -29 -43l-22 5q12 60 26 77.5t43 17.5q17 0 64 -15z" />
    <glyph glyph-name="Ograve" unicode="&#xd2;" horiz-adv-x="844" 
d="M504 748h-27l-169 61q-22 8 -22 30q0 13 11 21.5t28 8.5q27 0 55 -23zM434 691q154 0 250.5 -90.5t96.5 -237.5q0 -165 -107.5 -270.5t-270.5 -105.5q-155 0 -251.5 94.5t-96.5 241.5q0 163 106 265.5t273 102.5zM434 27q107 0 176 87t69 222q0 149 -68.5 233t-205.5 84
q-103 0 -176.5 -82t-73.5 -218q0 -152 72.5 -239t206.5 -87z" />
    <glyph glyph-name="Oacute" unicode="&#xd3;" horiz-adv-x="844" 
d="M353 748h-27l124 98q28 23 55 23q17 0 28 -8.5t11 -21.5q0 -22 -22 -30zM434 691q154 0 250.5 -90.5t96.5 -237.5q0 -165 -107.5 -270.5t-270.5 -105.5q-155 0 -251.5 94.5t-96.5 241.5q0 163 106 265.5t273 102.5zM434 27q107 0 176 87t69 222q0 149 -68.5 233
t-205.5 84q-103 0 -176.5 -82t-73.5 -218q0 -152 72.5 -239t206.5 -87z" />
    <glyph glyph-name="Ocircumflex" unicode="&#xd4;" horiz-adv-x="844" 
d="M418 885l143 -118l-18 -19l-126 59l-124 -59l-18 20zM434 691q154 0 250.5 -90.5t96.5 -237.5q0 -165 -107.5 -270.5t-270.5 -105.5q-155 0 -251.5 94.5t-96.5 241.5q0 163 106 265.5t273 102.5zM434 27q107 0 176 87t69 222q0 149 -68.5 233t-205.5 84
q-103 0 -176.5 -82t-73.5 -218q0 -152 72.5 -239t206.5 -87z" />
    <glyph glyph-name="Otilde" unicode="&#xd5;" horiz-adv-x="824" 
d="M410 820l21 -7q50 -16 60 -16q16 0 23.5 10.5t13.5 34.5l22 -5q-12 -57 -31 -77t-47 -20q-19 0 -52 11l-27 9q-56 18 -65 18q-20 0 -29 -43l-22 5q12 60 26 77.5t43 17.5q17 0 64 -15zM427 691q154 0 250.5 -90.5t96.5 -237.5q0 -165 -107.5 -270.5t-270.5 -105.5
q-155 0 -251.5 94.5t-96.5 241.5q0 163 106 265.5t273 102.5zM427 27q107 0 176 87t69 222q0 149 -68.5 233t-205.5 84q-103 0 -176.5 -82t-73.5 -218q0 -152 72.5 -239t206.5 -87z" />
    <glyph glyph-name="Odieresis" unicode="&#xd6;" horiz-adv-x="844" 
d="M276 798q0 21 15 36t35 15q21 0 36 -15t15 -36q0 -20 -15 -35t-36 -15q-20 0 -35 15t-15 35zM451 798q0 21 15 36t35 15q21 0 36 -15t15 -36q0 -20 -15 -35t-36 -15q-20 0 -35 15t-15 35zM434 691q154 0 250.5 -90.5t96.5 -237.5q0 -165 -107.5 -270.5t-270.5 -105.5
q-155 0 -251.5 94.5t-96.5 241.5q0 163 106 265.5t273 102.5zM434 27q107 0 176 87t69 222q0 149 -68.5 233t-205.5 84q-103 0 -176.5 -82t-73.5 -218q0 -152 72.5 -239t206.5 -87z" />
    <glyph glyph-name="multiply" unicode="&#xd7;" 
d="M444 444l34 -34l-144 -145l144 -144l-33 -33l-144 145l-146 -146l-34 34l146 146l-144 143l33 33l144 -144z" />
    <glyph glyph-name="Oslash" unicode="&#xd8;" horiz-adv-x="829" 
d="M427 691q97 0 175 -39l51 69l36 -25l-49 -66q134 -91 134 -267q0 -165 -107.5 -270.5t-270.5 -105.5q-112 0 -195 51l-49 -66l-35 26l48 65q-117 95 -117 260q0 163 106 265.5t273 102.5zM427 27q107 0 176 87t69 222q0 156 -73 238l-358 -482q71 -65 186 -65zM148 353
q0 -144 63 -228l355 479q-64 49 -168 49q-103 0 -176.5 -82t-73.5 -218z" />
    <glyph glyph-name="Ugrave" unicode="&#xd9;" horiz-adv-x="765" 
d="M652 548v-298q0 -44 -16 -88t-46.5 -83.5t-84 -64t-120.5 -24.5q-126 0 -203.5 69t-77.5 188v257q0 100 -12 123q-15 30 -52 30v24h218v-24q-56 0 -62 -76q-2 -21 -2 -77v-284q0 -99 53.5 -147.5t143.5 -48.5q100 0 160.5 65t60.5 170v286q0 66 -15 89q-14 23 -49 23v24
h168v-24q-30 0 -45 -21q-19 -25 -19 -88zM509 748h-27l-169 61q-22 8 -22 30q0 13 11 21.5t28 8.5q27 0 55 -23z" />
    <glyph glyph-name="Uacute" unicode="&#xda;" horiz-adv-x="765" 
d="M652 548v-298q0 -44 -16 -88t-46.5 -83.5t-84 -64t-120.5 -24.5q-126 0 -203.5 69t-77.5 188v257q0 100 -12 123q-15 30 -52 30v24h218v-24q-56 0 -62 -76q-2 -21 -2 -77v-284q0 -99 53.5 -147.5t143.5 -48.5q100 0 160.5 65t60.5 170v286q0 66 -15 89q-14 23 -49 23v24
h168v-24q-30 0 -45 -21q-19 -25 -19 -88zM351 748h-27l124 98q28 23 55 23q17 0 28 -8.5t11 -21.5q0 -22 -22 -30z" />
    <glyph glyph-name="Ucircumflex" unicode="&#xdb;" horiz-adv-x="765" 
d="M652 548v-298q0 -44 -16 -88t-46.5 -83.5t-84 -64t-120.5 -24.5q-126 0 -203.5 69t-77.5 188v257q0 100 -12 123q-15 30 -52 30v24h218v-24q-56 0 -62 -76q-2 -21 -2 -77v-284q0 -99 53.5 -147.5t143.5 -48.5q100 0 160.5 65t60.5 170v286q0 66 -15 89q-14 23 -49 23v24
h168v-24q-30 0 -45 -21q-19 -25 -19 -88zM416 885l143 -118l-18 -19l-126 59l-124 -59l-18 20z" />
    <glyph glyph-name="Udieresis" unicode="&#xdc;" horiz-adv-x="765" 
d="M652 548v-298q0 -44 -16 -88t-46.5 -83.5t-84 -64t-120.5 -24.5q-126 0 -203.5 69t-77.5 188v257q0 100 -12 123q-15 30 -52 30v24h218v-24q-56 0 -62 -76q-2 -21 -2 -77v-284q0 -99 53.5 -147.5t143.5 -48.5q100 0 160.5 65t60.5 170v286q0 66 -15 89q-14 23 -49 23v24
h168v-24q-30 0 -45 -21q-19 -25 -19 -88zM275 798q0 21 15 36t35 15q21 0 36 -15t15 -36q0 -20 -15 -35t-36 -15q-20 0 -35 15t-15 35zM450 798q0 21 15 36t35 15q21 0 36 -15t15 -36q0 -20 -15 -35t-36 -15q-20 0 -35 15t-15 35z" />
    <glyph glyph-name="Yacute" unicode="&#xdd;" horiz-adv-x="762" 
d="M335 319l-189 250q-34 44 -64 65q-26 19 -62 23v24h247v-24q-47 0 -47 -29q0 -17 23 -48l164 -209l167 218q18 24 18 41q0 27 -53 27v24h203v-24q-68 0 -110 -56l-207 -270v-137q0 -92 8 -127q8 -38 56 -43v-24h-218v24q46 4 57 43q7 26 7 127v125zM340 748h-27l124 98
q28 23 55 23q17 0 28 -8.5t11 -21.5q0 -22 -22 -30z" />
    <glyph glyph-name="Thorn" unicode="&#xde;" horiz-adv-x="579" 
d="M103 156v404q0 57 -19 78q-17 19 -44 19v24h218v-24q-19 0 -33 -9q-30 -20 -30 -72v-21q5 0 19.5 0.5t20.5 0.5q78 0 141.5 -18t108 -63t44.5 -111q0 -114 -86.5 -173.5t-217.5 -59.5q-18 0 -29 1v-13q0 -46 15 -71q16 -24 47 -24v-24h-218v24q26 0 42 16q21 21 21 116z
M223 169q94 0 150 47.5t56 135.5q0 84 -56.5 125t-155.5 41q-16 0 -22 -1q0 -51 -0.5 -110t-0.5 -78q0 -97 1 -159q9 -1 28 -1z" />
    <glyph glyph-name="germandbls" unicode="&#xdf;" horiz-adv-x="599" 
d="M95 362q18 16 20 44q5 54 17 96q22 76 78.5 126.5t140.5 50.5q71 0 116 -28t45 -84q0 -45 -24.5 -69.5t-86.5 -57.5q-71 -37 -71 -89q0 -47 56 -79l64 -35.5t66 -37.5q53 -33 53 -94q0 -54 -38 -85.5t-100 -31.5q-36 0 -66.5 12t-47 24t-17.5 12q-6 0 -13 -16t-7 -31h-24
v209h24q8 -90 48.5 -132.5t103.5 -42.5q32 0 51 15t19 42q0 20 -11 34t-38 29q-8 4 -18 9.5t-24 12.5l-24 12q-65 34 -95.5 67t-30.5 78q0 74 87 128q82 51 82 119q0 39 -21.5 59.5t-58.5 20.5q-56 0 -94 -39.5t-54 -107.5q-10 -43 -10 -134v-99q0 -201 7 -269h-149v23
q15 1 24.5 4.5t18.5 15t13 31.5q8 38 8 151v99h-64v23q27 0 45 15z" />
    <glyph glyph-name="agrave" unicode="&#xe0;" horiz-adv-x="486" 
d="M469 26l4 -23q-25 -12 -60 -12q-55 0 -78 35q-10 16 -16 52q-1 10 -5 10t-8 -7q-29 -45 -69.5 -69t-83.5 -24q-53 0 -83 28.5t-30 74.5q0 137 270 161l-2 41q-5 91 -93 91q-24 0 -42.5 -5.5t-26.5 -12t-8 -12.5t5 -11q1 -1 4.5 -4t4.5 -4.5t3.5 -4t3.5 -4t2 -5t1.5 -7
t0.5 -7.5q0 -17 -13.5 -29.5t-34.5 -12.5q-20 0 -33 13t-13 35q0 45 47.5 72.5t109.5 27.5q81 0 118 -32.5t40 -92.5l5 -104q7 -114 15 -134q7 -16 16 -21.5t27 -5.5q13 0 22 3zM192 44q48 0 85.5 45.5t35.5 89.5l-1 32q0 9 -9 9q-68 0 -115 -24q-60 -31 -60 -87
q0 -30 17 -47.5t47 -17.5zM307 478h-27l-153 109q-18 12 -18 28q0 12 11 20t28 8q33 0 53 -25z" />
    <glyph glyph-name="aacute" unicode="&#xe1;" horiz-adv-x="486" 
d="M469 26l4 -23q-25 -12 -60 -12q-55 0 -78 35q-10 16 -16 52q-1 10 -5 10t-8 -7q-29 -45 -69.5 -69t-83.5 -24q-53 0 -83 28.5t-30 74.5q0 137 270 161l-2 41q-5 91 -93 91q-24 0 -42.5 -5.5t-26.5 -12t-8 -12.5t5 -11q1 -1 4.5 -4t4.5 -4.5t3.5 -4t3.5 -4t2 -5t1.5 -7
t0.5 -7.5q0 -17 -13.5 -29.5t-34.5 -12.5q-20 0 -33 13t-13 35q0 45 47.5 72.5t109.5 27.5q81 0 118 -32.5t40 -92.5l5 -104q7 -114 15 -134q7 -16 16 -21.5t27 -5.5q13 0 22 3zM192 44q48 0 85.5 45.5t35.5 89.5l-1 32q0 9 -9 9q-68 0 -115 -24q-60 -31 -60 -87
q0 -30 17 -47.5t47 -17.5zM167 479h-27l106 140q20 25 53 25q17 0 28 -8t11 -20q0 -18 -18 -30z" />
    <glyph glyph-name="acircumflex" unicode="&#xe2;" horiz-adv-x="486" 
d="M469 26l4 -23q-25 -12 -60 -12q-55 0 -78 35q-10 16 -16 52q-1 10 -5 10t-8 -7q-29 -45 -69.5 -69t-83.5 -24q-53 0 -83 28.5t-30 74.5q0 137 270 161l-2 41q-5 91 -93 91q-24 0 -42.5 -5.5t-26.5 -12t-8 -12.5t5 -11q1 -1 4.5 -4t4.5 -4.5t3.5 -4t3.5 -4t2 -5t1.5 -7
t0.5 -7.5q0 -17 -13.5 -29.5t-34.5 -12.5q-20 0 -33 13t-13 35q0 45 47.5 72.5t109.5 27.5q81 0 118 -32.5t40 -92.5l5 -104q7 -114 15 -134q7 -16 16 -21.5t27 -5.5q13 0 22 3zM192 44q48 0 85.5 45.5t35.5 89.5l-1 32q0 9 -9 9q-68 0 -115 -24q-60 -31 -60 -87
q0 -30 17 -47.5t47 -17.5zM237 645l143 -147l-18 -19l-126 86l-124 -87l-18 20z" />
    <glyph glyph-name="atilde" unicode="&#xe3;" horiz-adv-x="486" 
d="M469 26l4 -23q-25 -12 -60 -12q-55 0 -78 35q-10 16 -16 52q-1 10 -5 10t-8 -7q-29 -45 -69.5 -69t-83.5 -24q-53 0 -83 28.5t-30 74.5q0 137 270 161l-2 41q-5 91 -93 91q-24 0 -42.5 -5.5t-26.5 -12t-8 -12.5t5 -11q1 -1 4.5 -4t4.5 -4.5t3.5 -4t3.5 -4t2 -5t1.5 -7
t0.5 -7.5q0 -17 -13.5 -29.5t-34.5 -12.5q-20 0 -33 13t-13 35q0 45 47.5 72.5t109.5 27.5q81 0 118 -32.5t40 -92.5l5 -104q7 -114 15 -134q7 -16 16 -21.5t27 -5.5q13 0 22 3zM192 44q48 0 85.5 45.5t35.5 89.5l-1 32q0 9 -9 9q-68 0 -115 -24q-60 -31 -60 -87
q0 -30 17 -47.5t47 -17.5zM259 567q36 -19 55 -19q13 0 25 15t16 34l21 -5q-14 -55 -34.5 -78t-52.5 -23q-28 0 -79 27q-35 19 -53 19q-16 0 -28.5 -14.5t-15.5 -34.5l-22 5q15 55 35.5 78t52.5 23q29 0 80 -27z" />
    <glyph glyph-name="adieresis" unicode="&#xe4;" horiz-adv-x="486" 
d="M469 26l4 -23q-25 -12 -60 -12q-55 0 -78 35q-10 16 -16 52q-1 10 -5 10t-8 -7q-29 -45 -69.5 -69t-83.5 -24q-53 0 -83 28.5t-30 74.5q0 137 270 161l-2 41q-5 91 -93 91q-24 0 -42.5 -5.5t-26.5 -12t-8 -12.5t5 -11q1 -1 4.5 -4t4.5 -4.5t3.5 -4t3.5 -4t2 -5t1.5 -7
t0.5 -7.5q0 -17 -13.5 -29.5t-34.5 -12.5q-20 0 -33 13t-13 35q0 45 47.5 72.5t109.5 27.5q81 0 118 -32.5t40 -92.5l5 -104q7 -114 15 -134q7 -16 16 -21.5t27 -5.5q13 0 22 3zM192 44q48 0 85.5 45.5t35.5 89.5l-1 32q0 9 -9 9q-68 0 -115 -24q-60 -31 -60 -87
q0 -30 17 -47.5t47 -17.5zM90 555q0 21 15 36t35 15q21 0 36 -15t15 -36q0 -20 -15 -35t-36 -15q-20 0 -35 15t-15 35zM265 555q0 21 15 36t35 15q21 0 36 -15t15 -36q0 -20 -15 -35t-36 -15q-20 0 -35 15t-15 35z" />
    <glyph glyph-name="aring" unicode="&#xe5;" horiz-adv-x="486" 
d="M469 26l4 -23q-25 -12 -60 -12q-55 0 -78 35q-10 16 -16 52q-1 10 -5 10t-8 -7q-29 -45 -69.5 -69t-83.5 -24q-53 0 -83 28.5t-30 74.5q0 137 270 161l-2 41q-5 91 -93 91q-24 0 -42.5 -5.5t-26.5 -12t-8 -12.5t5 -11q1 -1 4.5 -4t4.5 -4.5t3.5 -4t3.5 -4t2 -5t1.5 -7
t0.5 -7.5q0 -17 -13.5 -29.5t-34.5 -12.5q-20 0 -33 13t-13 35q0 45 47.5 72.5t109.5 27.5q81 0 118 -32.5t40 -92.5l5 -104q7 -114 15 -134q7 -16 16 -21.5t27 -5.5q13 0 22 3zM192 44q48 0 85.5 45.5t35.5 89.5l-1 32q0 9 -9 9q-68 0 -115 -24q-60 -31 -60 -87
q0 -30 17 -47.5t47 -17.5zM126 578q0 43 29 71t71 28t71 -28t29 -71q0 -42 -29 -70.5t-71 -28.5t-71 28t-29 71zM172 578q0 -24 15.5 -40.5t38.5 -16.5t38.5 16.5t15.5 40.5t-15.5 40.5t-38.5 16.5t-38.5 -16.5t-15.5 -40.5z" />
    <glyph glyph-name="ae" unicode="&#xe6;" horiz-adv-x="733" 
d="M509 413q82 0 130 -48.5t48 -96.5q0 -6 -8.5 -15.5t-13.5 -9.5h-263v-26q0 -82 43.5 -127t119.5 -45q60 0 117 34l15 -30q-28 -26 -75.5 -43.5t-87.5 -17.5q-79 0 -131.5 33.5t-75.5 91.5q-69 -125 -173 -125q-53 0 -83.5 28t-30.5 75q0 136 270 161q0 32 -2 44
q-8 88 -95 88q-36 0 -60 -13q-15 -9 -15 -18q0 -5 6 -10q19 -16 19 -36q0 -15 -13.5 -28.5t-33.5 -13.5t-33.5 13t-13.5 35q0 44 45.5 72t111.5 28q53 0 84.5 -14t56.5 -48q56 62 142 62zM192 46q48 0 85.5 44t35.5 88l-1 31q0 11 -17 11q-72 -3 -119.5 -32.5t-47.5 -76.5
q0 -30 17 -47.5t47 -17.5zM405 273h178q7 0 11.5 8t2.5 16q-8 38 -31 61t-57 23q-41 0 -68.5 -32t-35.5 -76z" />
    <glyph glyph-name="ccedilla" unicode="&#xe7;" horiz-adv-x="487" 
d="M336 279q0 21 14 35q3 3 8 6.5l8.5 6t3.5 4.5q0 19 -24.5 33t-59.5 14q-60 0 -102.5 -42t-42.5 -121q0 -81 45 -126.5t121 -45.5q70 0 125 31l12 -31q-71 -53 -158 -56l-20 -43q5 1 14 1q27 0 44 -15t17 -45q0 -42 -33 -69.5t-92 -27.5l-4 28q31 0 50 14.5t19 42.5
q0 30 -33 30q-18 0 -32 -7l-2 19l35 72q-86 5 -140 59.5t-54 144.5q0 106 69 164t155 58q75 0 115 -33.5t40 -80.5q0 -28 -14.5 -45t-37.5 -17q-18 0 -32 11.5t-14 30.5z" />
    <glyph glyph-name="egrave" unicode="&#xe8;" horiz-adv-x="482" 
d="M444 286q2 -14 2 -21q0 -6 -8 -14t-13 -8h-283q-1 -15 -1 -25q0 -81 44.5 -127t116.5 -46q68 0 123 34l15 -29q-28 -24 -74 -43t-96 -19q-104 0 -159.5 59.5t-55.5 144.5q0 102 65.5 161.5t146.5 59.5q46 0 82 -15t55 -37.5t28.5 -41.5t11.5 -33zM147 273h191q19 0 19 18
q0 36 -27.5 63t-69.5 27t-73.5 -32.5t-39.5 -75.5zM351 478h-27l-153 109q-18 12 -18 28q0 12 11 20t28 8q33 0 53 -25z" />
    <glyph glyph-name="eacute" unicode="&#xe9;" horiz-adv-x="482" 
d="M444 286q2 -14 2 -21q0 -6 -8 -14t-13 -8h-283q-1 -15 -1 -25q0 -81 44.5 -127t116.5 -46q68 0 123 34l15 -29q-28 -24 -74 -43t-96 -19q-104 0 -159.5 59.5t-55.5 144.5q0 102 65.5 161.5t146.5 59.5q46 0 82 -15t55 -37.5t28.5 -41.5t11.5 -33zM147 273h191q19 0 19 18
q0 36 -27.5 63t-69.5 27t-73.5 -32.5t-39.5 -75.5zM189 479h-27l106 140q20 25 53 25q17 0 28 -8t11 -20q0 -18 -18 -30z" />
    <glyph glyph-name="ecircumflex" unicode="&#xea;" horiz-adv-x="482" 
d="M444 286q2 -14 2 -21q0 -6 -8 -14t-13 -8h-283q-1 -15 -1 -25q0 -81 44.5 -127t116.5 -46q68 0 123 34l15 -29q-28 -24 -74 -43t-96 -19q-104 0 -159.5 59.5t-55.5 144.5q0 102 65.5 161.5t146.5 59.5q46 0 82 -15t55 -37.5t28.5 -41.5t11.5 -33zM147 273h191q19 0 19 18
q0 36 -27.5 63t-69.5 27t-73.5 -32.5t-39.5 -75.5zM264 645l143 -147l-18 -19l-126 86l-124 -87l-18 20z" />
    <glyph glyph-name="edieresis" unicode="&#xeb;" horiz-adv-x="482" 
d="M444 286q2 -14 2 -21q0 -6 -8 -14t-13 -8h-283q-1 -15 -1 -25q0 -81 44.5 -127t116.5 -46q68 0 123 34l15 -29q-28 -24 -74 -43t-96 -19q-104 0 -159.5 59.5t-55.5 144.5q0 102 65.5 161.5t146.5 59.5q46 0 82 -15t55 -37.5t28.5 -41.5t11.5 -33zM147 273h191q19 0 19 18
q0 36 -27.5 63t-69.5 27t-73.5 -32.5t-39.5 -75.5zM116 547q0 21 15 36t35 15q21 0 36 -15t15 -36q0 -20 -15 -35t-36 -15q-20 0 -35 15t-15 35zM291 547q0 21 15 36t35 15q21 0 36 -15t15 -36q0 -20 -15 -35t-36 -15q-20 0 -35 15t-15 35z" />
    <glyph glyph-name="igrave" unicode="&#xec;" horiz-adv-x="319" 
d="M92 336q-17 25 -57 32l5 24l126 22l23 -5q-3 -104 -3 -160v-75q0 -75 8 -104q13 -46 58 -46v-24h-206v24q26 0 37.5 11.5t18.5 37.5q8 30 8 100v69q0 67 -18 94zM233 478h-27l-153 109q-18 12 -18 28q0 12 11 20t28 8q33 0 53 -25z" />
    <glyph glyph-name="iacute" unicode="&#xed;" horiz-adv-x="319" 
d="M92 336q-17 25 -57 32l5 24l126 22l23 -5q-3 -104 -3 -160v-75q0 -75 8 -104q13 -46 58 -46v-24h-206v24q26 0 37.5 11.5t18.5 37.5q8 30 8 100v69q0 67 -18 94zM87 479h-27l106 140q20 25 53 25q17 0 28 -8t11 -20q0 -18 -18 -30z" />
    <glyph glyph-name="icircumflex" unicode="&#xee;" horiz-adv-x="319" 
d="M92 336q-17 25 -57 32l5 24l126 22l23 -5q-3 -104 -3 -160v-75q0 -75 8 -104q13 -46 58 -46v-24h-206v24q26 0 37.5 11.5t18.5 37.5q8 30 8 100v69q0 67 -18 94zM159 645l143 -147l-18 -19l-126 86l-124 -87l-18 20z" />
    <glyph glyph-name="idieresis" unicode="&#xef;" horiz-adv-x="319" 
d="M92 336q-17 25 -57 32l5 24l126 22l23 -5q-3 -104 -3 -160v-75q0 -75 8 -104q13 -46 58 -46v-24h-206v24q26 0 37.5 11.5t18.5 37.5q8 30 8 100v69q0 67 -18 94zM14 547q0 21 15 36t35 15q21 0 36 -15t15 -36q0 -20 -15 -35t-36 -15q-20 0 -35 15t-15 35zM189 547
q0 21 15 36t35 15q21 0 36 -15t15 -36q0 -20 -15 -35t-36 -15q-20 0 -35 15t-15 35z" />
    <glyph glyph-name="eth" unicode="&#xf0;" horiz-adv-x="551" 
d="M150 504l121 70q-63 65 -139 101l13 22q102 -43 173 -96l107 63l18 -33l-94 -54q152 -128 152 -296q0 -131 -64 -211.5t-179 -80.5q-97 0 -152.5 58t-55.5 143q0 93 63 156t155 63q77 0 129 -40q-29 96 -100 177l-129 -75zM413 261q0 28 -5 61q-53 51 -128 51
q-64 0 -102.5 -47.5t-38.5 -128.5q0 -78 38 -124.5t96 -46.5t99 60.5t41 174.5z" />
    <glyph glyph-name="ntilde" unicode="&#xf1;" horiz-adv-x="570" 
d="M32 0v24q43 0 53 36q11 35 11 117v32q0 93 -14 120q-9 17 -22 25.5t-39 13.5l5 24l126 22l20 -5l-4 -98q21 40 64 70.5t92 30.5q152 0 152 -161v-69q0 -72 7 -104q6 -29 19 -41.5t40 -12.5v-24h-206v24q50 0 57 55q7 56 7 103v63q0 116 -99 116q-54 0 -91.5 -41.5
t-37.5 -88.5v-53q0 -60 7 -102q7 -52 60 -52v-24h-207zM325 567q36 -19 55 -19q13 0 25 15t16 34l21 -5q-14 -55 -34.5 -78t-52.5 -23q-28 0 -79 27q-35 19 -53 19q-16 0 -28.5 -14.5t-15.5 -34.5l-22 5q15 55 35.5 78t52.5 23q29 0 80 -27z" />
    <glyph glyph-name="ograve" unicode="&#xf2;" horiz-adv-x="543" 
d="M135 204q0 -90 41.5 -134.5t98.5 -44.5t91.5 48t34.5 122q0 89 -37 135t-101 46q-55 0 -91.5 -44t-36.5 -128zM46 189q0 105 66.5 164.5t165.5 59.5q91 0 151.5 -52t60.5 -147q0 -105 -68 -166t-166 -61q-89 0 -149.5 50.5t-60.5 151.5zM378 478h-27l-153 109
q-18 12 -18 28q0 12 11 20t28 8q33 0 53 -25z" />
    <glyph glyph-name="oacute" unicode="&#xf3;" horiz-adv-x="543" 
d="M135 204q0 -90 41.5 -134.5t98.5 -44.5t91.5 48t34.5 122q0 89 -37 135t-101 46q-55 0 -91.5 -44t-36.5 -128zM46 189q0 105 66.5 164.5t165.5 59.5q91 0 151.5 -52t60.5 -147q0 -105 -68 -166t-166 -61q-89 0 -149.5 50.5t-60.5 151.5zM234 479h-27l106 140q20 25 53 25
q17 0 28 -8t11 -20q0 -18 -18 -30z" />
    <glyph glyph-name="ocircumflex" unicode="&#xf4;" horiz-adv-x="543" 
d="M135 204q0 -90 41.5 -134.5t98.5 -44.5t91.5 48t34.5 122q0 89 -37 135t-101 46q-55 0 -91.5 -44t-36.5 -128zM46 189q0 105 66.5 164.5t165.5 59.5q91 0 151.5 -52t60.5 -147q0 -105 -68 -166t-166 -61q-89 0 -149.5 50.5t-60.5 151.5zM268 645l143 -147l-18 -19
l-126 86l-124 -87l-18 20z" />
    <glyph glyph-name="otilde" unicode="&#xf5;" horiz-adv-x="543" 
d="M135 204q0 -90 41.5 -134.5t98.5 -44.5t91.5 48t34.5 122q0 89 -37 135t-101 46q-55 0 -91.5 -44t-36.5 -128zM46 189q0 105 66.5 164.5t165.5 59.5q91 0 151.5 -52t60.5 -147q0 -105 -68 -166t-166 -61q-89 0 -149.5 50.5t-60.5 151.5zM306 567q36 -19 55 -19
q13 0 25 15t16 34l21 -5q-14 -55 -34.5 -78t-52.5 -23q-28 0 -79 27q-35 19 -53 19q-16 0 -28.5 -14.5t-15.5 -34.5l-22 5q15 55 35.5 78t52.5 23q29 0 80 -27z" />
    <glyph glyph-name="odieresis" unicode="&#xf6;" horiz-adv-x="543" 
d="M135 204q0 -90 41.5 -134.5t98.5 -44.5t91.5 48t34.5 122q0 89 -37 135t-101 46q-55 0 -91.5 -44t-36.5 -128zM46 189q0 105 66.5 164.5t165.5 59.5q91 0 151.5 -52t60.5 -147q0 -105 -68 -166t-166 -61q-89 0 -149.5 50.5t-60.5 151.5zM128 547q0 21 15 36t35 15
q21 0 36 -15t15 -36q0 -20 -15 -35t-36 -15q-20 0 -35 15t-15 35zM303 547q0 21 15 36t35 15q21 0 36 -15t15 -36q0 -20 -15 -35t-36 -15q-20 0 -35 15t-15 35z" />
    <glyph glyph-name="divide" unicode="&#xf7;" 
d="M93 291h413v-46h-413v46zM238 415q0 26 18 44.5t44 18.5t44.5 -18.5t18.5 -44.5t-18.5 -44t-44.5 -18t-44 18.5t-18 43.5zM237 120q0 26 18 44.5t44 18.5t44.5 -18.5t18.5 -44.5t-18.5 -44t-44.5 -18q-25 0 -43.5 18t-18.5 44z" />
    <glyph glyph-name="oslash" unicode="&#xf8;" horiz-adv-x="558" 
d="M58 189q0 105 66.5 164.5t165.5 59.5q62 0 112 -26l35 44l30 -23l-33 -41q68 -55 68 -153q0 -105 -68 -166t-166 -61q-63 0 -112 25l-32 -40l-29 24l29 37q-66 53 -66 156zM413 195q0 68 -24 114l-194 -247q37 -37 92 -37q57 0 91.5 48t34.5 122zM147 204q0 -66 24 -111
l195 248q-37 35 -91 35q-55 0 -91.5 -44t-36.5 -128z" />
    <glyph glyph-name="ugrave" unicode="&#xf9;" horiz-adv-x="567" 
d="M74 333q-19 33 -59 41v24h157q-4 -68 -4 -105v-136q0 -119 93 -119q50 0 92.5 45.5t42.5 97.5v72q0 62 -20 89q-19 26 -57 32v24h157q0 -1 -1 -30t-2 -68.5t-1 -65.5v-46q0 -90 10 -123q12 -41 56 -41v-24h-142v91q-63 -103 -159 -103q-57 0 -98 32.5t-45 92.5
q-2 32 -2 75v58q0 56 -18 87zM334 478h-27l-153 109q-18 12 -18 28q0 12 11 20t28 8q33 0 53 -25z" />
    <glyph glyph-name="uacute" unicode="&#xfa;" horiz-adv-x="567" 
d="M74 333q-19 33 -59 41v24h157q-4 -68 -4 -105v-136q0 -119 93 -119q50 0 92.5 45.5t42.5 97.5v72q0 62 -20 89q-19 26 -57 32v24h157q0 -1 -1 -30t-2 -68.5t-1 -65.5v-46q0 -90 10 -123q12 -41 56 -41v-24h-142v91q-63 -103 -159 -103q-57 0 -98 32.5t-45 92.5
q-2 32 -2 75v58q0 56 -18 87zM199 479h-27l106 140q20 25 53 25q17 0 28 -8t11 -20q0 -18 -18 -30z" />
    <glyph glyph-name="ucircumflex" unicode="&#xfb;" horiz-adv-x="567" 
d="M74 333q-19 33 -59 41v24h157q-4 -68 -4 -105v-136q0 -119 93 -119q50 0 92.5 45.5t42.5 97.5v72q0 62 -20 89q-19 26 -57 32v24h157q0 -1 -1 -30t-2 -68.5t-1 -65.5v-46q0 -90 10 -123q12 -41 56 -41v-24h-142v91q-63 -103 -159 -103q-57 0 -98 32.5t-45 92.5
q-2 32 -2 75v58q0 56 -18 87zM255 645l143 -147l-18 -19l-126 86l-124 -87l-18 20z" />
    <glyph glyph-name="udieresis" unicode="&#xfc;" horiz-adv-x="567" 
d="M74 333q-19 33 -59 41v24h157q-4 -68 -4 -105v-136q0 -119 93 -119q50 0 92.5 45.5t42.5 97.5v72q0 62 -20 89q-19 26 -57 32v24h157q0 -1 -1 -30t-2 -68.5t-1 -65.5v-46q0 -90 10 -123q12 -41 56 -41v-24h-142v91q-63 -103 -159 -103q-57 0 -98 32.5t-45 92.5
q-2 32 -2 75v58q0 56 -18 87zM113 547q0 21 15 36t35 15q21 0 36 -15t15 -36q0 -20 -15 -35t-36 -15q-20 0 -35 15t-15 35zM288 547q0 21 15 36t35 15q21 0 36 -15t15 -36q0 -20 -15 -35t-36 -15q-20 0 -35 15t-15 35z" />
    <glyph glyph-name="yacute" unicode="&#xfd;" horiz-adv-x="536" 
d="M159 292l113 -218l121 223q16 28 16 47q0 30 -61 30v24h183v-24q-51 0 -82 -56l-265 -478q-12 -21 -22 -36.5t-26.5 -33.5t-36.5 -28t-42 -10q-37 0 -58.5 20t-21.5 50q0 24 13.5 41t38.5 17q19 0 32.5 -10.5t13.5 -29.5q0 -15 -8.5 -28.5t-8.5 -15.5q0 -7 11 -7
q22 0 50 39q24 35 58 97l49 92l-164 318q-27 53 -81 59v24h225v-24q-60 0 -60 -37q0 -19 13 -45zM269 479h-27l106 140q20 25 53 25q17 0 28 -8t11 -20q0 -18 -18 -30z" />
    <glyph glyph-name="thorn" unicode="&#xfe;" horiz-adv-x="566" 
d="M332 413q76 0 128.5 -52t52.5 -145q0 -96 -60.5 -162t-147.5 -66q-85 0 -135 36q0 -199 9 -234q12 -44 67 -44v-24h-218v24q39 0 52 35q12 32 12 275v358q0 137 -14 165q-18 37 -68 48l5 24l134 45l21 -8v-348q34 39 71.5 56t90.5 17zM302 20q60 0 92.5 49.5t32.5 126.5
t-34.5 121.5t-98.5 44.5q-48 0 -86 -32.5t-38 -80.5v-94q0 -60 42 -97.5t90 -37.5z" />
    <glyph glyph-name="ydieresis" unicode="&#xff;" horiz-adv-x="561" 
d="M174 292l113 -218l121 223q16 28 16 47q0 30 -61 30v24h183v-24q-51 0 -82 -56l-265 -478q-12 -21 -22 -36.5t-26.5 -33.5t-36.5 -28t-42 -10q-37 0 -58.5 20t-21.5 50q0 24 13.5 41t38.5 17q19 0 32.5 -10.5t13.5 -29.5q0 -15 -8.5 -28.5t-8.5 -15.5q0 -7 11 -7
q22 0 50 39q24 35 58 97l49 92l-164 318q-27 53 -81 59v24h225v-24q-60 0 -60 -37q0 -19 13 -45zM154 555q0 21 15 36t35 15q21 0 36 -15t15 -36q0 -20 -15 -35t-36 -15q-20 0 -35 15t-15 35zM329 555q0 21 15 36t35 15q21 0 36 -15t15 -36q0 -20 -15 -35t-36 -15
q-20 0 -35 15t-15 35z" />
    <glyph glyph-name="Amacron" unicode="&#x100;" horiz-adv-x="758" 
d="M77 80l281 623h53l264 -616q18 -40 39 -53q15 -10 42 -10v-24h-224v24q58 0 58 35q0 7 -4 17l-79 184h-308l-72 -159q-10 -24 -10 -41q0 -18 11 -27t42 -9v-24h-165v24q47 0 72 56zM360 623l-146 -329h281zM260 748v45h243v-45h-243z" />
    <glyph glyph-name="amacron" unicode="&#x101;" horiz-adv-x="486" 
d="M469 26l4 -23q-25 -12 -60 -12q-55 0 -78 35q-10 16 -16 52q-1 10 -5 10t-8 -7q-29 -45 -69.5 -69t-83.5 -24q-53 0 -83 28.5t-30 74.5q0 137 270 161l-2 41q-5 91 -93 91q-24 0 -42.5 -5.5t-26.5 -12t-8 -12.5t5 -11q1 -1 4.5 -4t4.5 -4.5t3.5 -4t3.5 -4t2 -5t1.5 -7
t0.5 -7.5q0 -17 -13.5 -29.5t-34.5 -12.5q-20 0 -33 13t-13 35q0 45 47.5 72.5t109.5 27.5q81 0 118 -32.5t40 -92.5l5 -104q7 -114 15 -134q7 -16 16 -21.5t27 -5.5q13 0 22 3zM192 44q48 0 85.5 45.5t35.5 89.5l-1 32q0 9 -9 9q-68 0 -115 -24q-60 -31 -60 -87
q0 -30 17 -47.5t47 -17.5zM111 497v45h243v-45h-243z" />
    <glyph glyph-name="Aogonek" unicode="&#x104;" horiz-adv-x="758" 
d="M77 80l281 623h50l264 -616q18 -40 39 -53q15 -10 42 -10v-24q-36 -24 -56.5 -49t-20.5 -63q0 -34 22 -53t58 -19l-15 -28q-54 0 -89.5 26t-35.5 68q0 34 23.5 61.5t45 38.5t42.5 18h-195v24q58 0 58 35q0 7 -4 17l-79 184h-308l-72 -159q-10 -24 -10 -41q0 -18 11 -27
t42 -9v-24h-165v24q47 0 72 56zM360 623l-146 -329h281z" />
    <glyph glyph-name="aogonek" unicode="&#x105;" horiz-adv-x="486" 
d="M469 26l4 -23q-23 -16 -37.5 -28t-27.5 -35t-13 -49q0 -34 22 -53t58 -19l-15 -28q-54 0 -89.5 26t-35.5 68q0 70 92 108q-11 -2 -14 -2q-55 0 -78 35q-10 16 -16 52q-1 10 -5 10t-8 -7q-29 -45 -69.5 -69t-83.5 -24q-53 0 -83 28.5t-30 74.5q0 137 270 161l-2 41
q-5 91 -93 91q-24 0 -42.5 -5.5t-26.5 -12t-8 -12.5t5 -11q1 -1 4.5 -4t4.5 -4.5t3.5 -4t3.5 -4t2 -5t1.5 -7t0.5 -7.5q0 -17 -13.5 -29.5t-34.5 -12.5q-20 0 -33 13t-13 35q0 45 47.5 72.5t109.5 27.5q81 0 118 -32.5t40 -92.5l5 -104q7 -114 15 -134q7 -16 16 -21.5
t27 -5.5q13 0 22 3zM192 44q48 0 85.5 45.5t35.5 89.5l-1 32q0 9 -9 9q-68 0 -115 -24q-60 -31 -60 -87q0 -30 17 -47.5t47 -17.5z" />
    <glyph glyph-name="Cacute" unicode="&#x106;" horiz-adv-x="709" 
d="M383 685q107 0 201 -47q23 25 38 64h25v-216h-27q-68 165 -235 165q-98 0 -167 -79.5t-69 -203.5q0 -157 84.5 -238t223.5 -81q108 0 192 44l12 -28q-105 -74 -250 -74q-161 0 -262 91t-101 247q0 112 48.5 195t123 122t163.5 39zM305 748h-27l124 98q28 23 55 23
q17 0 28 -8.5t11 -21.5q0 -22 -22 -30z" />
    <glyph glyph-name="cacute" unicode="&#x107;" horiz-adv-x="487" 
d="M336 279q0 21 14 35q3 3 8 6.5l8.5 6t3.5 4.5q0 19 -24.5 33t-59.5 14q-60 0 -102.5 -42t-42.5 -121q0 -81 45 -126.5t121 -45.5q70 0 125 31l12 -31q-78 -57 -175 -57q-94 0 -154 55t-60 150q0 106 69 164t155 58q75 0 115 -33.5t40 -80.5q0 -28 -14.5 -45t-37.5 -17
q-18 0 -32 11.5t-14 30.5zM216 479h-27l106 140q20 25 53 25q17 0 28 -8t11 -20q0 -18 -18 -30z" />
    <glyph glyph-name="Ccaron.001" unicode="&#x10c;" horiz-adv-x="709" 
d="M383 685q107 0 201 -47q23 25 38 64h25v-216h-27q-68 165 -235 165q-98 0 -167 -79.5t-69 -203.5q0 -157 84.5 -238t223.5 -81q108 0 192 44l12 -28q-105 -74 -250 -74q-161 0 -262 91t-101 247q0 112 48.5 195t123 122t163.5 39zM522 866l-145 -118l-141 117l18 20
l125 -69l125 69z" />
    <glyph glyph-name="ccaron" unicode="&#x10d;" horiz-adv-x="487" 
d="M336 279q0 21 14 35q3 3 8 6.5l8.5 6t3.5 4.5q0 19 -24.5 33t-59.5 14q-60 0 -102.5 -42t-42.5 -121q0 -81 45 -126.5t121 -45.5q70 0 125 31l12 -31q-78 -57 -175 -57q-94 0 -154 55t-60 150q0 106 69 164t155 58q75 0 115 -33.5t40 -80.5q0 -28 -14.5 -45t-37.5 -17
q-18 0 -32 11.5t-14 30.5zM415 625l-143 -147l-143 147l18 20l129 -87l122 86z" />
    <glyph glyph-name="Dcaron" unicode="&#x10e;" horiz-adv-x="751" 
d="M703 379q0 -91 -33.5 -165.5t-88 -120t-120.5 -69.5t-135 -24h-278v24q25 0 37 10.5t19 37.5q8 31 8 172v259q0 41 -0.5 60.5t-5 41.5t-12.5 32q-17 20 -46 20v24h283q182 0 277 -77t95 -225zM202 501v-259q0 -115 4 -158q5 -50 50 -50h65q124 0 203 89t79 244
q0 138 -70 209t-207 71h-71q-21 0 -35 -12.5t-16 -38.5q-2 -19 -2 -95zM486 866l-145 -118l-141 117l18 20l125 -69l125 69z" />
    <glyph glyph-name="dcaron" unicode="&#x10f;" horiz-adv-x="654" 
d="M392 172v52q0 74 -39.5 114.5t-98.5 40.5q-56 0 -89 -46.5t-33 -120.5q0 -86 35.5 -132t100.5 -46q54 0 89 40t35 98zM535 24l-1 -24h-142l3 73q-63 -86 -166 -86q-77 0 -130 50.5t-53 143.5q0 108 61 170t142 62q84 0 143 -63v99q0 106 -13 132q-10 21 -23.5 31
t-41.5 15v24l134 45l23 -6q-3 -103 -3 -137v-262q0 -144 4 -195q3 -36 16.5 -53.5t46.5 -18.5zM548 631q0 21 14.5 35.5t34.5 14.5q21 0 36 -14.5t15 -35.5q0 -34 -17.5 -72.5t-53.5 -66.5l-16 14q31 30 44 76q-3 -1 -8 -1q-20 0 -34.5 15t-14.5 35z" />
    <glyph glyph-name="Dcroat" unicode="&#x110;" horiz-adv-x="751" 
d="M13 357v41h99v105q0 41 -0.5 60.5t-5 41.5t-12.5 32q-17 20 -46 20v24h283q182 0 277 -77t95 -225q0 -91 -33.5 -165.5t-88 -120t-120.5 -69.5t-135 -24h-278v24q25 0 37 10.5t19 37.5q8 31 8 172v113h-99zM202 501v-103h100v-41h-100v-115q0 -121 4 -164q4 -44 55 -44
h60q124 0 203 89t79 244q0 138 -70 209t-207 71h-51q-34 0 -52 -14.5t-20 -49.5q-1 -19 -1 -82z" />
    <glyph glyph-name="Emacron" unicode="&#x112;" horiz-adv-x="609" 
d="M344 355h-166v-73q0 -156 5 -199q3 -24 14.5 -36.5t35.5 -12.5h167q58 0 91.5 39t42.5 97h25l-7 -170h-527v24q44 0 55 43q8 30 8 176v205v33v29.5v24.5t-0.5 23t-1 18.5t-1 16.5t-2 13t-3 12t-3.5 9q-15 30 -52 30v24h438q17 19 27 35h25v-216h-26q-12 76 -47.5 111.5
t-107.5 35.5h-104q-25 0 -37 -11.5t-13 -38.5q-2 -41 -2 -150v-58h166q43 0 65 21q19 18 21 55h25v-192h-25q-3 42 -21 61q-18 21 -65 21zM156 748v45h243v-45h-243z" />
    <glyph glyph-name="emacron" unicode="&#x113;" horiz-adv-x="487" 
d="M435 286q2 -14 2 -21q0 -6 -8 -14t-13 -8h-283q-1 -15 -1 -25q0 -81 44.5 -127t116.5 -46q68 0 123 34l15 -29q-28 -24 -74 -43t-96 -19q-104 0 -159.5 59.5t-55.5 144.5q0 102 65.5 161.5t146.5 59.5q46 0 82 -15t55 -37.5t28.5 -41.5t11.5 -33zM138 273h191q19 0 19 18
q0 36 -27.5 63t-69.5 27t-73.5 -32.5t-39.5 -75.5zM132 497v45h243v-45h-243z" />
    <glyph glyph-name="Edotaccent" unicode="&#x116;" horiz-adv-x="629" 
d="M364 355h-166v-73q0 -156 5 -199q3 -24 14.5 -36.5t35.5 -12.5h167q58 0 91.5 39t42.5 97h25l-7 -170h-527v24q44 0 55 43q8 30 8 176v205v33v29.5v24.5t-0.5 23t-1 18.5t-1 16.5t-2 13t-3 12t-3.5 9q-15 30 -52 30v24h438q17 19 27 35h25v-216h-26q-12 76 -47.5 111.5
t-107.5 35.5h-104q-25 0 -37 -11.5t-13 -38.5q-2 -41 -2 -150v-58h166q43 0 65 21q19 18 21 55h25v-192h-25q-3 42 -21 61q-18 21 -65 21zM255 798q0 21 15 36t35 15q21 0 36 -15t15 -36q0 -20 -15 -35t-36 -15q-20 0 -35 15t-15 35z" />
    <glyph glyph-name="edotaccent" unicode="&#x117;" horiz-adv-x="487" 
d="M435 286q2 -14 2 -21q0 -6 -8 -14t-13 -8h-283q-1 -15 -1 -25q0 -81 44.5 -127t116.5 -46q68 0 123 34l15 -29q-28 -24 -74 -43t-96 -19q-104 0 -159.5 59.5t-55.5 144.5q0 102 65.5 161.5t146.5 59.5q46 0 82 -15t55 -37.5t28.5 -41.5t11.5 -33zM138 273h191q19 0 19 18
q0 36 -27.5 63t-69.5 27t-73.5 -32.5t-39.5 -75.5zM197 555q0 21 15 36t35 15q21 0 36 -15t15 -36q0 -20 -15 -35t-36 -15q-20 0 -35 15t-15 35z" />
    <glyph glyph-name="Eogonek" unicode="&#x118;" horiz-adv-x="630" 
d="M365 355h-166v-73q0 -156 5 -199q3 -24 14.5 -36.5t35.5 -12.5h167q58 0 91.5 39t42.5 97h25l-7 -170q-23 -16 -37.5 -28t-27.5 -35t-13 -49q0 -34 22 -53t58 -19l-15 -28q-54 0 -89.5 26t-35.5 68q0 34 23.5 61.5t45 38.5t42.5 18h-501v24q44 0 55 43q8 30 8 176v205v33
v29.5v24.5t-0.5 23t-1 18.5t-1 16.5t-2 13t-3 12t-3.5 9q-15 30 -52 30v24h439q17 19 27 35h25v-216h-26q-12 76 -47.5 111.5t-107.5 35.5h-104q-25 0 -37 -11.5t-13 -38.5q-2 -41 -2 -150v-58h166q43 0 65 21q19 18 21 55h25v-192h-25q-3 42 -21 61q-18 21 -65 21z" />
    <glyph glyph-name="eogonek" unicode="&#x119;" horiz-adv-x="487" 
d="M435 286q2 -14 2 -21q0 -6 -8 -14t-13 -8h-283q-1 -15 -1 -25q0 -81 44.5 -127t116.5 -46q68 0 123 34l15 -29q-2 -2 -34 -24q-63 -43 -63 -107q0 -34 22 -53t58 -19l-15 -28q-54 0 -89.5 24.5t-35.5 65.5q0 54 58 90q-35 -11 -71 -11q-104 0 -159.5 59.5t-55.5 144.5
q0 102 65.5 161.5t146.5 59.5q46 0 82 -15t55 -37.5t28.5 -41.5t11.5 -33zM138 273h191q19 0 19 18q0 36 -27.5 63t-69.5 27t-73.5 -32.5t-39.5 -75.5z" />
    <glyph glyph-name="Ecaron" unicode="&#x11a;" horiz-adv-x="629" 
d="M364 355h-166v-73q0 -156 5 -199q3 -24 14.5 -36.5t35.5 -12.5h167q58 0 91.5 39t42.5 97h25l-7 -170h-527v24q44 0 55 43q8 30 8 176v205v33v29.5v24.5t-0.5 23t-1 18.5t-1 16.5t-2 13t-3 12t-3.5 9q-15 30 -52 30v24h438q17 19 27 35h25v-216h-26q-12 76 -47.5 111.5
t-107.5 35.5h-104q-25 0 -37 -11.5t-13 -38.5q-2 -41 -2 -150v-58h166q43 0 65 21q19 18 21 55h25v-192h-25q-3 42 -21 61q-18 21 -65 21zM429 866l-145 -118l-141 117l18 20l125 -69l125 69z" />
    <glyph glyph-name="ecaron" unicode="&#x11b;" horiz-adv-x="487" 
d="M435 286q2 -14 2 -21q0 -6 -8 -14t-13 -8h-283q-1 -15 -1 -25q0 -81 44.5 -127t116.5 -46q68 0 123 34l15 -29q-28 -24 -74 -43t-96 -19q-104 0 -159.5 59.5t-55.5 144.5q0 102 65.5 161.5t146.5 59.5q46 0 82 -15t55 -37.5t28.5 -41.5t11.5 -33zM138 273h191q19 0 19 18
q0 36 -27.5 63t-69.5 27t-73.5 -32.5t-39.5 -75.5zM387 625l-143 -147l-143 147l18 20l129 -87l122 86z" />
    <glyph glyph-name="Gcommaaccent" unicode="&#x122;" horiz-adv-x="816" 
d="M393 686q46 0 87 -9t61 -17.5t58 -27.5q21 25 38 70h25v-216h-27q-56 166 -246 166q-109 0 -174.5 -80t-65.5 -206q0 -148 78 -232.5t213 -84.5q75 0 122 34q34 25 34 70q0 76 -9 100q-9 25 -27 35.5t-51 13.5v24h233v-24q-48 -4 -58 -49q-6 -24 -6 -110q0 -91 4 -150
h-24l-31 62q-7 10 -13 10q-10 0 -20 -7q-93 -67 -206 -67q-153 0 -246.5 91t-93.5 244q0 168 96 264t249 96zM362 -139q0 21 14.5 35.5t34.5 14.5q21 0 36 -14.5t15 -35.5q0 -34 -17.5 -72.5t-53.5 -66.5l-16 14q31 30 44 76q-3 -1 -8 -1q-20 0 -34.5 15t-14.5 35z" />
    <glyph glyph-name="gcommaaccent" unicode="&#x123;" horiz-adv-x="474" 
d="M227 412q24 0 54 -5q9 44 30 72q25 34 69 34q57 0 57 -52q0 -17 -11.5 -30.5t-31.5 -13.5q-18 0 -32 13.5t-16 13.5q-21 0 -36 -44q97 -31 97 -130q0 -64 -49.5 -114t-138.5 -50q-32 0 -66 8q-24 -39 -24 -55q0 -12 7.5 -19.5t37.5 -15t83 -10.5q36 -2 57.5 -4t49.5 -7
t43.5 -12.5t31 -20t22 -31.5t6.5 -44q0 -66 -63 -121t-173 -55q-114 0 -172 40.5t-58 96.5q0 63 44 105q3 3 8 3q14 0 14 -11q0 -1 -1 -16.5t-1 -35.5q0 -77 49 -113.5t135 -36.5q65 0 106 31t41 78q0 41 -35.5 56t-120.5 21q-94 6 -130 28.5t-36 58.5q0 20 14 49
q6 11 33 51q-88 44 -88 127q0 25 9 50.5t29 51.5t60.5 42.5t95.5 16.5zM215 378q-44 0 -70 -33.5t-26 -83.5q0 -55 28 -87t76 -32q41 0 70 31t29 82q0 61 -30 92t-77 31zM260 547q0 -21 -14.5 -35.5t-34.5 -14.5q-21 0 -36 14.5t-15 35.5q0 34 17.5 72.5t53.5 66.5l16 -14
q-31 -30 -44 -76q3 1 8 1q20 0 34.5 -15t14.5 -35z" />
    <glyph glyph-name="imacron" unicode="&#x12b;" horiz-adv-x="319" 
d="M92 336q-17 25 -57 32l5 24l126 22l23 -5q-3 -104 -3 -160v-75q0 -75 8 -104q13 -46 58 -46v-24h-206v24q26 0 37.5 11.5t18.5 37.5q8 30 8 100v69q0 67 -18 94zM7 497v45h243v-45h-243z" />
    <glyph glyph-name="Iogonek" unicode="&#x12e;" horiz-adv-x="323" 
d="M226 640q-15 -17 -18.5 -43.5t-3.5 -92.5v-260q0 -110 2.5 -143t14.5 -53q15 -24 47 -24v-24q-36 -24 -56.5 -49t-20.5 -63q0 -34 22 -53t58 -19l-15 -28q-54 0 -89.5 26t-35.5 68q0 79 113 118h-194v24q28 0 42 16q15 16 18.5 58.5t3.5 145.5v253q0 78 -4 103.5
t-18 41.5q-14 15 -42 15v24h218v-24q-27 0 -42 -17z" />
    <glyph glyph-name="iogonek" unicode="&#x12f;" horiz-adv-x="266" 
d="M78 336q-17 25 -57 32l5 24l126 22l23 -5q-3 -104 -3 -160v-75q0 -75 8 -104q13 -46 58 -46v-24q-36 -24 -56.5 -49t-20.5 -63q0 -34 22 -53t58 -19l-15 -28q-54 0 -89.5 26t-35.5 68q0 26 12 48t31.5 36t34.5 21.5t30 12.5h-177v24q26 0 37.5 11.5t18.5 37.5q8 30 8 100
v69q0 67 -18 94zM173 545q0 -21 -14.5 -36t-35.5 -15t-35.5 15t-14.5 36q0 20 14.5 34.5t35.5 14.5t35.5 -14.5t14.5 -34.5z" />
    <glyph glyph-name="dotlessi" unicode="&#x131;" horiz-adv-x="266" 
d="M78 336q-17 25 -57 32l5 24l126 22l23 -5q-3 -104 -3 -160v-75q0 -75 8 -104q13 -46 58 -46v-24h-206v24q26 0 37.5 11.5t18.5 37.5q8 30 8 100v69q0 67 -18 94z" />
    <glyph glyph-name="Kcommaaccent" unicode="&#x136;" horiz-adv-x="684" 
d="M53 657v24h218v-24q-34 0 -49 -26q-10 -17 -12.5 -39.5t-2.5 -86.5v-116h39q17 0 34 15l174 172q30 30 30 56q0 25 -41 25v24h196v-24q-55 -6 -102 -53l-220 -217q74 -99 151 -189q61 -73 112 -120q29 -27 50 -38.5t52 -15.5v-24h-158q-149 170 -276 342q-10 13 -27 13
h-14v-108q0 -157 11 -188q12 -35 53 -35v-24h-218v24q39 0 52 33q12 31 12 188v260q0 58 -4 93q-6 59 -60 59zM321 -139q0 21 14.5 35.5t34.5 14.5q21 0 36 -14.5t15 -35.5q0 -34 -17.5 -72.5t-53.5 -66.5l-16 14q31 30 44 76q-3 -1 -8 -1q-20 0 -34.5 15t-14.5 35z" />
    <glyph glyph-name="kcommaaccent" unicode="&#x137;" horiz-adv-x="551" 
d="M13 627l5 24l133 45l23 -6q-3 -191 -3 -301v-185l122 97q36 29 36 54q0 20 -47 20v23h209v-23q-60 -7 -99 -38l-118 -91l159 -178q40 -44 98 -44v-24h-224v24q14 0 28.5 5t14.5 12q0 9 -7 17l-125 141l-47 -36q0 -74 10 -102q7 -20 19 -28.5t37 -8.5v-24h-206v24
q39 0 52 34q12 31 12 254v76q0 101 -4.5 143t-22.5 66q-15 22 -55 30zM214 -139q0 21 14.5 35.5t34.5 14.5q21 0 36 -14.5t15 -35.5q0 -34 -17.5 -72.5t-53.5 -66.5l-16 14q31 30 44 76q-3 -1 -8 -1q-20 0 -34.5 15t-14.5 35z" />
    <glyph glyph-name="Lacute" unicode="&#x139;" horiz-adv-x="618" 
d="M197 487v-240q0 -141 2 -163q5 -50 50 -50h131q132 0 158 139h25l-7 -173h-513v24q45 0 56 45q8 30 8 176v239q0 46 -2 98q-2 39 -17 56q-14 18 -45 19v24h218v-24q-32 -2 -45 -21q-13 -18 -16 -43.5t-3 -105.5zM76 748h-27l124 98q28 23 55 23q17 0 28 -8.5t11 -21.5
q0 -22 -22 -30z" />
    <glyph glyph-name="lacute" unicode="&#x13a;" horiz-adv-x="266" 
d="M13 627l5 24l133 45l23 -6q-3 -120 -3 -248v-182q0 -159 9 -192q12 -44 57 -44v-24h-206v24q44 0 55 44q9 39 9 192v180q0 121 -20 149t-62 38zM60 748h-27l124 98q28 23 55 23q17 0 28 -8.5t11 -21.5q0 -22 -22 -30z" />
    <glyph glyph-name="Lcommaaccent" unicode="&#x13b;" horiz-adv-x="618" 
d="M197 487v-240q0 -141 2 -163q5 -50 50 -50h131q132 0 158 139h25l-7 -173h-513v24q45 0 56 45q8 30 8 176v239q0 46 -2 98q-2 39 -17 56q-14 18 -45 19v24h218v-24q-32 -2 -45 -21q-13 -18 -16 -43.5t-3 -105.5zM431 631q0 21 14.5 35.5t34.5 14.5q21 0 36 -14.5
t15 -35.5q0 -34 -17.5 -72.5t-53.5 -66.5l-16 14q31 30 44 76q-3 -1 -8 -1q-20 0 -34.5 15t-14.5 35z" />
    <glyph glyph-name="lcommaaccent" unicode="&#x13c;" horiz-adv-x="266" 
d="M13 627l5 24l133 45l23 -6q-3 -120 -3 -248v-182q0 -159 9 -192q12 -44 57 -44v-24h-206v24q44 0 55 44q9 39 9 192v180q0 121 -20 149t-62 38zM81 -139q0 21 14.5 35.5t34.5 14.5q21 0 36 -14.5t15 -35.5q0 -34 -17.5 -72.5t-53.5 -66.5l-16 14q31 30 44 76q-3 -1 -8 -1
q-20 0 -34.5 15t-14.5 35z" />
    <glyph glyph-name="Lslash" unicode="&#x141;" horiz-adv-x="608" 
d="M207 487v-82l123 73l18 -33l-141 -83v-115q0 -141 2 -163q5 -50 50 -50h131q132 0 158 139h25l-7 -173h-513v24q45 0 56 45q8 30 8 176v64l-112 -66l-18 33l130 76v132q0 46 -2 98q-2 39 -17 56q-14 18 -45 19v24h218v-24q-32 -2 -45 -21q-13 -18 -16 -43.5t-3 -105.5z
" />
    <glyph glyph-name="lslash" unicode="&#x142;" horiz-adv-x="334" 
d="M48 627l5 24l133 45l23 -6q-3 -120 -3 -248v-31l124 73l18 -33l-142 -84v-107q0 -159 9 -192q12 -44 57 -44v-24h-206v24q44 0 55 44q9 39 9 192v62l-125 -73l-18 33l143 84v74q0 121 -20 149t-62 38z" />
    <glyph glyph-name="Nacute" unicode="&#x143;" horiz-adv-x="756" 
d="M648 580v-579l-26 -7l-468 559v-454q0 -41 17 -58q15 -17 61 -17v-24h-192v24q44 0 56 12q20 20 20 132v255l-1 141q0 53 -20 72q-18 17 -54 21v24h122l447 -540v439q0 41 -22 60q-18 17 -55 17v24h193v-24q-27 0 -42 -7q-36 -17 -36 -70zM306 748h-27l124 98
q28 23 55 23q17 0 28 -8.5t11 -21.5q0 -22 -22 -30z" />
    <glyph glyph-name="nacute" unicode="&#x144;" horiz-adv-x="570" 
d="M32 0v24q43 0 53 36q11 35 11 117v32q0 93 -14 120q-9 17 -22 25.5t-39 13.5l5 24l126 22l20 -5l-4 -98q21 40 64 70.5t92 30.5q152 0 152 -161v-69q0 -72 7 -104q6 -29 19 -41.5t40 -12.5v-24h-206v24q50 0 57 55q7 56 7 103v63q0 116 -99 116q-54 0 -91.5 -41.5
t-37.5 -88.5v-53q0 -60 7 -102q7 -52 60 -52v-24h-207zM243 479h-27l106 140q20 25 53 25q17 0 28 -8t11 -20q0 -18 -18 -30z" />
    <glyph glyph-name="Ncommaaccent" unicode="&#x145;" horiz-adv-x="759" 
d="M651 580v-579l-26 -7l-468 559v-454q0 -41 17 -58q15 -17 61 -17v-24h-192v24q44 0 56 12q20 20 20 132v255l-1 141q0 53 -20 72q-18 17 -54 21v24h122l447 -540v439q0 41 -22 60q-18 17 -55 17v24h193v-24q-27 0 -42 -7q-36 -17 -36 -70zM333 -139q0 21 14.5 35.5
t34.5 14.5q21 0 36 -14.5t15 -35.5q0 -34 -17.5 -72.5t-53.5 -66.5l-16 14q31 30 44 76q-3 -1 -8 -1q-20 0 -34.5 15t-14.5 35z" />
    <glyph glyph-name="ncommaaccent" unicode="&#x146;" horiz-adv-x="570" 
d="M21 0v24q43 0 53 36q11 35 11 117v32q0 93 -14 120q-9 17 -22 25.5t-39 13.5l5 24l126 22l20 -5l-4 -98q21 40 64 70.5t92 30.5q152 0 152 -161v-69q0 -72 7 -104q6 -29 19 -41.5t40 -12.5v-24h-206v24q50 0 57 55q7 56 7 103v63q0 116 -99 116q-54 0 -91.5 -41.5
t-37.5 -88.5v-53q0 -60 7 -102q7 -52 60 -52v-24h-207zM240 -139q0 21 14.5 35.5t34.5 14.5q21 0 36 -14.5t15 -35.5q0 -34 -17.5 -72.5t-53.5 -66.5l-16 14q31 30 44 76q-3 -1 -8 -1q-20 0 -34.5 15t-14.5 35z" />
    <glyph glyph-name="Ncaron" unicode="&#x147;" horiz-adv-x="760" 
d="M652 580v-579l-26 -7l-468 559v-454q0 -41 17 -58q15 -17 61 -17v-24h-192v24q44 0 56 12q20 20 20 132v255l-1 141q0 53 -20 72q-18 17 -54 21v24h122l447 -540v439q0 41 -22 60q-18 17 -55 17v24h193v-24q-27 0 -42 -7q-36 -17 -36 -70zM525 866l-145 -118l-141 117
l18 20l125 -69l125 69z" />
    <glyph glyph-name="ncaron" unicode="&#x148;" horiz-adv-x="570" 
d="M32 0v24q43 0 53 36q11 35 11 117v32q0 93 -14 120q-9 17 -22 25.5t-39 13.5l5 24l126 22l20 -5l-4 -98q21 40 64 70.5t92 30.5q152 0 152 -161v-69q0 -72 7 -104q6 -29 19 -41.5t40 -12.5v-24h-206v24q50 0 57 55q7 56 7 103v63q0 116 -99 116q-54 0 -91.5 -41.5
t-37.5 -88.5v-53q0 -60 7 -102q7 -52 60 -52v-24h-207zM438 625l-143 -147l-143 147l18 20l129 -87l122 86z" />
    <glyph glyph-name="Omacron" unicode="&#x14c;" horiz-adv-x="829" 
d="M427 691q154 0 250.5 -90.5t96.5 -237.5q0 -165 -107.5 -270.5t-270.5 -105.5q-155 0 -251.5 94.5t-96.5 241.5q0 163 106 265.5t273 102.5zM427 27q107 0 176 87t69 222q0 149 -68.5 233t-205.5 84q-103 0 -176.5 -82t-73.5 -218q0 -152 72.5 -239t206.5 -87zM288 748
v45h243v-45h-243z" />
    <glyph glyph-name="omacron" unicode="&#x14d;" horiz-adv-x="558" 
d="M147 204q0 -90 41.5 -134.5t98.5 -44.5t91.5 48t34.5 122q0 89 -37 135t-101 46q-55 0 -91.5 -44t-36.5 -128zM58 189q0 105 66.5 164.5t165.5 59.5q91 0 151.5 -52t60.5 -147q0 -105 -68 -166t-166 -61q-89 0 -149.5 50.5t-60.5 151.5zM163 497v45h243v-45h-243z" />
    <glyph glyph-name="Ohungarumlaut" unicode="&#x150;" horiz-adv-x="824" 
d="M427 691q154 0 250.5 -90.5t96.5 -237.5q0 -165 -107.5 -270.5t-270.5 -105.5q-155 0 -251.5 94.5t-96.5 241.5q0 163 106 265.5t273 102.5zM427 27q107 0 176 87t69 222q0 149 -68.5 233t-205.5 84q-103 0 -176.5 -82t-73.5 -218q0 -152 72.5 -239t206.5 -87zM280 748
h-27l124 98q28 23 55 23q17 0 28 -8.5t11 -21.5q0 -22 -27 -32zM422 748h-27l154 103q28 18 55 18q39 0 39 -30q0 -23 -26 -31z" />
    <glyph glyph-name="ohungarumlaut" unicode="&#x151;" horiz-adv-x="558" 
d="M147 204q0 -90 41.5 -134.5t98.5 -44.5t91.5 48t34.5 122q0 89 -37 135t-101 46q-55 0 -91.5 -44t-36.5 -128zM58 189q0 105 66.5 164.5t165.5 59.5q91 0 151.5 -52t60.5 -147q0 -105 -68 -166t-166 -61q-89 0 -149.5 50.5t-60.5 151.5zM220 479h-27l96 140q18 25 51 25
q41 0 41 -28q0 -16 -18 -30zM338 479h-27l142 140q27 25 57 25q39 0 39 -30q0 -22 -24 -36z" />
    <glyph glyph-name="OE" unicode="&#x152;" horiz-adv-x="1086" 
d="M821 355h-166v-73q0 -156 5 -199q3 -24 14.5 -36.5t35.5 -12.5h167q58 0 91.5 39t42.5 97h25l-7 -170h-431q-30 0 -94.5 -5t-99.5 -5q-150 0 -253 94t-103 239q0 156 111.5 260.5t275.5 104.5q25 0 81 -3.5t89 -3.5h335q17 19 27 35h25v-216h-26q-12 76 -47.5 111.5
t-107.5 35.5h-104q-25 0 -37 -11.5t-13 -38.5q-2 -41 -2 -150v-58h166q43 0 65 21q19 18 21 55h25v-192h-25q-3 42 -21 61q-18 21 -65 21zM439 30q94 0 114 36q9 16 11 103v287v41.5v37.5v28t-1.5 26t-4.5 18q-6 18 -45.5 30.5t-106.5 12.5q-106 0 -182 -80t-76 -216
q0 -147 83 -235.5t208 -88.5z" />
    <glyph glyph-name="oe" unicode="&#x153;" horiz-adv-x="854" 
d="M811 289q0 -2 1 -6.5t1.5 -8t0.5 -6.5q0 -6 -8.5 -15.5t-13.5 -9.5h-283q-1 -19 -1 -27q0 -81 45.5 -126t123.5 -45q61 0 115 34l15 -29q-28 -26 -76 -44t-96 -18q-120 0 -175 91q-59 -91 -185 -91q-93 0 -156.5 53t-63.5 151q0 99 69.5 158.5t165.5 59.5q115 0 176 -83
q30 43 75 64.5t89 21.5q47 0 83.5 -14t56 -36t29 -40t12.5 -34zM144 203q0 -91 44 -134t100 -43t95 42.5t39 123.5q0 86 -39.5 133.5t-106.5 47.5q-58 0 -95 -46t-37 -124zM514 273h191q19 0 19 17q0 36 -27.5 63.5t-68.5 27.5q-43 0 -74.5 -32.5t-39.5 -75.5z" />
    <glyph glyph-name="Racute" unicode="&#x154;" horiz-adv-x="677" 
d="M53 657v24h263q247 0 247 -158q0 -70 -52.5 -117.5t-135.5 -67.5l104 -147q43 -59 78 -98q51 -59 120 -69v-24h-160q-109 134 -239 333h-71v-88q0 -148 6 -169q14 -52 78 -52v-24h-238v24q45 0 56 45q8 32 8 176v261q0 108 -16 128q-19 23 -48 23zM229 367h49
q89 0 137 38t48 111q0 131 -161 131h-44q-25 0 -36 -12t-13 -38q-2 -25 -2 -70v-139q0 -21 22 -21zM258 748h-27l124 98q28 23 55 23q17 0 28 -8.5t11 -21.5q0 -22 -22 -30z" />
    <glyph glyph-name="racute" unicode="&#x155;" horiz-adv-x="457" 
d="M25 392l126 22l20 -5q-2 -61 -11 -138h5q23 68 65 104t96 36q45 0 72.5 -24t27.5 -69q0 -29 -13 -47.5t-39 -18.5q-19 0 -32 12t-13 31q0 15 9 28q2 3 6 8l6 7.5t2 5.5q0 26 -45 26q-58 0 -97 -63.5t-39 -138.5q0 -73 9 -103q12 -41 56 -41v-24h-205v24q39 0 51 31
q13 35 13 124v41q0 87 -18 116q-16 25 -57 32zM166 479h-27l106 140q20 25 53 25q17 0 28 -8t11 -20q0 -18 -18 -30z" />
    <glyph glyph-name="Rcommaaccent" unicode="&#x156;" horiz-adv-x="677" 
d="M53 657v24h263q247 0 247 -158q0 -70 -52.5 -117.5t-135.5 -67.5l104 -147q43 -59 78 -98q51 -59 120 -69v-24h-160q-109 134 -239 333h-71v-88q0 -148 6 -169q14 -52 78 -52v-24h-238v24q45 0 56 45q8 32 8 176v261q0 108 -16 128q-19 23 -48 23zM229 367h49
q89 0 137 38t48 111q0 131 -161 131h-44q-25 0 -36 -12t-13 -38q-2 -25 -2 -70v-139q0 -21 22 -21zM289 -139q0 21 14.5 35.5t34.5 14.5q21 0 36 -14.5t15 -35.5q0 -34 -17.5 -72.5t-53.5 -66.5l-16 14q31 30 44 76q-3 -1 -8 -1q-20 0 -34.5 15t-14.5 35z" />
    <glyph glyph-name="rcommaaccent" unicode="&#x157;" horiz-adv-x="457" 
d="M25 392l126 22l20 -5q-2 -61 -11 -138h5q23 68 65 104t96 36q45 0 72.5 -24t27.5 -69q0 -29 -13 -47.5t-39 -18.5q-19 0 -32 12t-13 31q0 15 9 28q2 3 6 8l6 7.5t2 5.5q0 26 -45 26q-58 0 -97 -63.5t-39 -138.5q0 -73 9 -103q12 -41 56 -41v-24h-205v24q39 0 51 31
q13 35 13 124v41q0 87 -18 116q-16 25 -57 32zM80 -139q0 21 14.5 35.5t34.5 14.5q21 0 36 -14.5t15 -35.5q0 -34 -17.5 -72.5t-53.5 -66.5l-16 14q31 30 44 76q-3 -1 -8 -1q-20 0 -34.5 15t-14.5 35z" />
    <glyph glyph-name="Rcaron" unicode="&#x158;" horiz-adv-x="677" 
d="M53 657v24h263q247 0 247 -158q0 -70 -52.5 -117.5t-135.5 -67.5l104 -147q43 -59 78 -98q51 -59 120 -69v-24h-160q-109 134 -239 333h-71v-88q0 -148 6 -169q14 -52 78 -52v-24h-238v24q45 0 56 45q8 32 8 176v261q0 108 -16 128q-19 23 -48 23zM229 367h49
q89 0 137 38t48 111q0 131 -161 131h-44q-25 0 -36 -12t-13 -38q-2 -25 -2 -70v-139q0 -21 22 -21zM466 866l-145 -118l-141 117l18 20l125 -69l125 69z" />
    <glyph glyph-name="rcaron" unicode="&#x159;" horiz-adv-x="457" 
d="M25 392l126 22l20 -5q-2 -61 -11 -138h5q23 68 65 104t96 36q45 0 72.5 -24t27.5 -69q0 -29 -13 -47.5t-39 -18.5q-19 0 -32 12t-13 31q0 15 9 28q2 3 6 8l6 7.5t2 5.5q0 26 -45 26q-58 0 -97 -63.5t-39 -138.5q0 -73 9 -103q12 -41 56 -41v-24h-205v24q39 0 51 31
q13 35 13 124v41q0 87 -18 116q-16 25 -57 32zM337 625l-143 -147l-143 147l18 20l129 -87l122 86z" />
    <glyph glyph-name="Sacute" unicode="&#x15a;" horiz-adv-x="589" 
d="M500 499h-26q-19 65 -71.5 109.5t-118.5 44.5q-47 0 -73.5 -22.5t-26.5 -62.5q0 -25 12 -47t42 -45.5t55 -39l77 -45.5q103 -59 141 -98t38 -105q0 -90 -63.5 -142t-145.5 -52q-49 0 -93 16t-69 32l-24 16q-4 0 -8 -6q-20 -36 -29 -71h-24v241h25q24 -96 87 -145t133 -49
q62 0 96 35t34 89q0 51 -33.5 84t-117.5 82l-49 28t-42.5 26.5t-41.5 29.5l-31.5 29t-28 34t-14.5 35t-7 42q0 74 51.5 109.5t124.5 35.5q76 0 162 -54q19 27 34 64h25v-198zM248 748h-27l124 98q28 23 55 23q17 0 28 -8.5t11 -21.5q0 -22 -22 -30z" />
    <glyph glyph-name="sacute" unicode="&#x15b;" horiz-adv-x="407" 
d="M316 430h25v-164h-25q-47 116 -137 116q-28 0 -43 -14t-15 -35q0 -27 34 -52q36 -26 76 -43q29 -13 61 -31q65 -38 65 -93q0 -54 -39 -89t-99 -35q-65 0 -121 37q-8 4 -10 4q-5 0 -7 -6l-11 -41h-25v163h25q14 -65 59 -96t94 -31q30 0 48.5 17t18.5 44q0 18 -8.5 29
t-30.5 25q-16 10 -54 28q-66 34 -88 50q-54 39 -54 97q0 49 36 75.5t85 26.5q58 0 119 -40zM152 479h-27l106 140q20 25 53 25q17 0 28 -8t11 -20q0 -18 -18 -30z" />
    <glyph glyph-name="Scaron" unicode="&#x160;" horiz-adv-x="589" 
d="M500 499h-26q-19 65 -71.5 109.5t-118.5 44.5q-47 0 -73.5 -22.5t-26.5 -62.5q0 -25 12 -47t42 -45.5t55 -39l77 -45.5q103 -59 141 -98t38 -105q0 -90 -63.5 -142t-145.5 -52q-49 0 -93 16t-69 32l-24 16q-4 0 -8 -6q-20 -36 -29 -71h-24v241h25q24 -96 87 -145t133 -49
q62 0 96 35t34 89q0 51 -33.5 84t-117.5 82l-49 28t-42.5 26.5t-41.5 29.5l-31.5 29t-28 34t-14.5 35t-7 42q0 74 51.5 109.5t124.5 35.5q76 0 162 -54q19 27 34 64h25v-198zM432 866l-145 -118l-141 117l18 20l125 -69l125 69z" />
    <glyph glyph-name="scaron" unicode="&#x161;" horiz-adv-x="407" 
d="M316 430h25v-164h-25q-47 116 -137 116q-28 0 -43 -14t-15 -35q0 -27 34 -52q36 -26 76 -43q29 -13 61 -31q65 -38 65 -93q0 -54 -39 -89t-99 -35q-65 0 -121 37q-8 4 -10 4q-5 0 -7 -6l-11 -41h-25v163h25q14 -65 59 -96t94 -31q30 0 48.5 17t18.5 44q0 18 -8.5 29
t-30.5 25q-16 10 -54 28q-66 34 -88 50q-54 39 -54 97q0 49 36 75.5t85 26.5q58 0 119 -40zM355 625l-143 -147l-143 147l18 20l129 -87l122 86z" />
    <glyph glyph-name="Tcaron" unicode="&#x164;" horiz-adv-x="767" 
d="M92 677h569q8 12 22 36h25v-207h-26q-25 75 -49.5 105.5t-68.5 30.5h-117q-20 0 -20 -20v-298q0 -206 4 -238q8 -62 60 -62v-24h-218v24q47 0 56 45q8 39 8 254v299q0 20 -20 20h-126q-45 0 -72.5 -32t-45.5 -104h-26v207h25q8 -17 20 -36zM521 866l-145 -118l-141 117
l18 20l125 -69l125 69z" />
    <glyph glyph-name="tcaron" unicode="&#x165;" horiz-adv-x="342" 
d="M154 398h142v-34h-141v-231q0 -52 20 -74.5t60 -22.5q34 0 72 19l11 -29q-23 -17 -56.5 -27.5t-60.5 -10.5q-122 0 -122 136v240h-76v29q52 0 82 30q24 24 38 72h31v-97zM306 503q0 21 14.5 35.5t34.5 14.5q21 0 36 -14.5t15 -35.5q0 -34 -17.5 -72.5t-53.5 -66.5l-16 14
q31 30 44 76q-3 -1 -8 -1q-20 0 -34.5 15t-14.5 35z" />
    <glyph glyph-name="Umacron" unicode="&#x16a;" horiz-adv-x="765" 
d="M652 548v-298q0 -44 -16 -88t-46.5 -83.5t-84 -64t-120.5 -24.5q-126 0 -203.5 69t-77.5 188v257q0 100 -12 123q-15 30 -52 30v24h218v-24q-56 0 -62 -76q-2 -21 -2 -77v-284q0 -99 53.5 -147.5t143.5 -48.5q100 0 160.5 65t60.5 170v286q0 66 -15 89q-14 23 -49 23v24
h168v-24q-30 0 -45 -21q-19 -25 -19 -88zM289 748v45h243v-45h-243z" />
    <glyph glyph-name="umacron" unicode="&#x16b;" horiz-adv-x="570" 
d="M96 333q-19 33 -59 41v24h157q-4 -68 -4 -105v-136q0 -119 93 -119q50 0 92.5 45.5t42.5 97.5v72q0 62 -20 89q-19 26 -57 32v24h157q0 -1 -1 -30t-2 -68.5t-1 -65.5v-46q0 -90 10 -123q12 -41 56 -41v-24h-142v91q-63 -103 -159 -103q-57 0 -98 32.5t-45 92.5
q-2 32 -2 75v58q0 56 -18 87zM147 497v45h243v-45h-243z" />
    <glyph glyph-name="Uring" unicode="&#x16e;" horiz-adv-x="765" 
d="M652 548v-298q0 -44 -16 -88t-46.5 -83.5t-84 -64t-120.5 -24.5q-126 0 -203.5 69t-77.5 188v257q0 100 -12 123q-15 30 -52 30v24h218v-24q-56 0 -62 -76q-2 -21 -2 -77v-284q0 -99 53.5 -147.5t143.5 -48.5q100 0 160.5 65t60.5 170v286q0 66 -15 89q-14 23 -49 23v24
h168v-24q-30 0 -45 -21q-19 -25 -19 -88zM334 824q0 33 22 54.5t54 21.5q33 0 55 -21.5t22 -54.5q0 -32 -22.5 -54t-54.5 -22t-54 21.5t-22 54.5zM373 824q0 -16 11 -27.5t26 -11.5q16 0 26.5 11.5t10.5 27.5t-10.5 27.5t-26.5 11.5q-15 0 -26 -11.5t-11 -27.5z" />
    <glyph glyph-name="uring" unicode="&#x16f;" horiz-adv-x="570" 
d="M96 333q-19 33 -59 41v24h157q-4 -68 -4 -105v-136q0 -119 93 -119q50 0 92.5 45.5t42.5 97.5v72q0 62 -20 89q-19 26 -57 32v24h157q0 -1 -1 -30t-2 -68.5t-1 -65.5v-46q0 -90 10 -123q12 -41 56 -41v-24h-142v91q-63 -103 -159 -103q-57 0 -98 32.5t-45 92.5
q-2 32 -2 75v58q0 56 -18 87zM182 578q0 43 29 71t71 28t71 -28t29 -71q0 -42 -29 -70.5t-71 -28.5t-71 28t-29 71zM228 578q0 -24 15.5 -40.5t38.5 -16.5t38.5 16.5t15.5 40.5t-15.5 40.5t-38.5 16.5t-38.5 -16.5t-15.5 -40.5z" />
    <glyph glyph-name="Uhungarumlaut" unicode="&#x170;" horiz-adv-x="765" 
d="M652 548v-298q0 -44 -16 -88t-46.5 -83.5t-84 -64t-120.5 -24.5q-126 0 -203.5 69t-77.5 188v257q0 100 -12 123q-15 30 -52 30v24h218v-24q-56 0 -62 -76q-2 -21 -2 -77v-284q0 -99 53.5 -147.5t143.5 -48.5q100 0 160.5 65t60.5 170v286q0 66 -15 89q-14 23 -49 23v24
h168v-24q-30 0 -45 -21q-19 -25 -19 -88zM322 748h-27l96 140q18 25 51 25q41 0 41 -28q0 -16 -18 -30zM440 748h-27l142 140q27 25 57 25q39 0 39 -30q0 -23 -24 -36z" />
    <glyph glyph-name="uhungarumlaut" unicode="&#x171;" horiz-adv-x="570" 
d="M96 333q-19 33 -59 41v24h157q-4 -68 -4 -105v-136q0 -119 93 -119q50 0 92.5 45.5t42.5 97.5v72q0 62 -20 89q-19 26 -57 32v24h157q0 -1 -1 -30t-2 -68.5t-1 -65.5v-46q0 -90 10 -123q12 -41 56 -41v-24h-142v91q-63 -103 -159 -103q-57 0 -98 32.5t-45 92.5
q-2 32 -2 75v58q0 56 -18 87zM180 479h-27l96 140q18 25 51 25q41 0 41 -28q0 -16 -18 -30zM298 479h-27l142 140q27 25 57 25q39 0 39 -30q0 -22 -24 -36z" />
    <glyph glyph-name="Uogonek" unicode="&#x172;" horiz-adv-x="765" 
d="M652 548v-298q0 -87 -57.5 -164.5t-165.5 -92.5q-23 -16 -37 -28t-26.5 -35t-12.5 -49q0 -34 22 -53t58 -19l-15 -28q-54 0 -89.5 26t-35.5 68q0 77 100 116q-1 0 -3.5 -0.5t-4.5 -0.5q-126 0 -203.5 69t-77.5 188v257q0 100 -12 123q-15 30 -52 30v24h218v-24
q-56 0 -62 -76q-2 -21 -2 -77v-284q0 -99 53.5 -147.5t143.5 -48.5q100 0 160.5 65t60.5 170v286q0 66 -15 89q-14 23 -49 23v24h168v-24q-30 0 -45 -21q-19 -25 -19 -88z" />
    <glyph glyph-name="uogonek" unicode="&#x173;" horiz-adv-x="570" 
d="M77 333q-19 33 -59 41v24h157q-4 -68 -4 -105v-136q0 -119 93 -119q50 0 92.5 45.5t42.5 97.5v72q0 62 -20 89q-19 26 -57 32v24h157q0 -1 -1 -30t-2 -68.5t-1 -65.5v-46q0 -90 10 -123q12 -41 56 -41v-24q-36 -24 -56.5 -49t-20.5 -63q0 -34 22 -53t58 -19l-15 -28
q-54 0 -89.5 26t-35.5 68q0 34 23 61.5t43.5 38t42.5 18.5h-114v91q-63 -103 -159 -103q-57 0 -98 32.5t-45 92.5q-2 32 -2 75v58q0 56 -18 87z" />
    <glyph glyph-name="Ydieresis" unicode="&#x178;" horiz-adv-x="762" 
d="M335 319l-189 250q-34 44 -64 65q-26 19 -62 23v24h247v-24q-47 0 -47 -29q0 -17 23 -48l164 -209l167 218q18 24 18 41q0 27 -53 27v24h203v-24q-68 0 -110 -56l-207 -270v-137q0 -92 8 -127q8 -38 56 -43v-24h-218v24q46 4 57 43q7 26 7 127v125zM262 798q0 21 15 36
t35 15q21 0 36 -15t15 -36q0 -20 -15 -35t-36 -15q-20 0 -35 15t-15 35zM437 798q0 21 15 36t35 15q21 0 36 -15t15 -36q0 -20 -15 -35t-36 -15q-20 0 -35 15t-15 35z" />
    <glyph glyph-name="Zacute" unicode="&#x179;" horiz-adv-x="655" 
d="M101 506h-26v207h25q4 -16 17 -36h477v-37l-450 -606h318q57 0 84.5 33.5t40.5 94.5h26l-6 -162h-565v37l450 606h-242q-125 0 -149 -137zM279 748h-27l124 98q28 23 55 23q17 0 28 -8.5t11 -21.5q0 -22 -22 -30z" />
    <glyph glyph-name="zacute" unicode="&#x17a;" horiz-adv-x="470" 
d="M417 0h-379v24l280 342h-128q-50 0 -77.5 -31t-27.5 -84h-25v180h25l18 -33h318v-24l-284 -342h170q38 0 61.5 33.5t23.5 68.5h25v-134zM216 479h-27l106 140q20 25 53 25q17 0 28 -8t11 -20q0 -18 -18 -30z" />
    <glyph glyph-name="Zdotaccent" unicode="&#x17b;" horiz-adv-x="655" 
d="M101 506h-26v207h25q4 -16 17 -36h477v-37l-450 -606h318q57 0 84.5 33.5t40.5 94.5h26l-6 -162h-565v37l450 606h-242q-125 0 -149 -137zM283 798q0 21 15 36t35 15q21 0 36 -15t15 -36q0 -20 -15 -35t-36 -15q-20 0 -35 15t-15 35z" />
    <glyph glyph-name="zdotaccent" unicode="&#x17c;" horiz-adv-x="470" 
d="M417 0h-379v24l280 342h-128q-50 0 -77.5 -31t-27.5 -84h-25v180h25l18 -33h318v-24l-284 -342h170q38 0 61.5 33.5t23.5 68.5h25v-134zM193 555q0 21 15 36t35 15q21 0 36 -15t15 -36q0 -20 -15 -35t-36 -15q-20 0 -35 15t-15 35z" />
    <glyph glyph-name="Zcaron" unicode="&#x17d;" horiz-adv-x="655" 
d="M101 506h-26v207h25q4 -16 17 -36h477v-37l-450 -606h318q57 0 84.5 33.5t40.5 94.5h26l-6 -162h-565v37l450 606h-242q-125 0 -149 -137zM475 866l-145 -118l-141 117l18 20l125 -69l125 69z" />
    <glyph glyph-name="zcaron" unicode="&#x17e;" horiz-adv-x="470" 
d="M417 0h-379v24l280 342h-128q-50 0 -77.5 -31t-27.5 -84h-25v180h25l18 -33h318v-24l-284 -342h170q38 0 61.5 33.5t23.5 68.5h25v-134zM384 625l-143 -147l-143 147l18 20l129 -87l122 86z" />
    <glyph glyph-name="florin" unicode="&#x192;" horiz-adv-x="585" 
d="M221 398h79q29 142 45 178q19 44 56.5 75.5t90.5 31.5q40 0 55.5 -15t15.5 -31q0 -22 -11 -33t-28 -11q-18 0 -36 31t-28 31q-21 0 -34.5 -31.5t-30.5 -102.5q-4 -17 -24 -123h112l-9 -42h-112l-88 -443q-39 -191 -176 -191q-30 0 -49 12.5t-19 33.5q0 16 9 30t30 14
q19 0 36 -31t28 -31q39 0 62 116l97 490h-80z" />
    <glyph glyph-name="circumflex" unicode="&#x2c6;" horiz-adv-x="286" 
d="M143 645l143 -147l-18 -19l-126 86l-124 -87l-18 20z" />
    <glyph glyph-name="caron" unicode="&#x2c7;" horiz-adv-x="286" 
d="M286 625l-143 -147l-143 147l18 20l129 -87l122 86z" />
    <glyph glyph-name="breve" unicode="&#x2d8;" horiz-adv-x="263" 
d="M132 487q-49 0 -82.5 31t-49.5 82l20 16q25 -34 50.5 -49t62.5 -15q38 0 63 15t49 49l18 -16q-49 -113 -131 -113z" />
    <glyph glyph-name="dotaccent" unicode="&#x2d9;" horiz-adv-x="101" 
d="M0 555q0 21 15 36t35 15q21 0 36 -15t15 -36q0 -20 -15 -35t-36 -15q-20 0 -35 15t-15 35z" />
    <glyph glyph-name="ring" unicode="&#x2da;" horiz-adv-x="200" 
d="M0 578q0 43 29 71t71 28t71 -28t29 -71q0 -42 -29 -70.5t-71 -28.5t-71 28t-29 71zM46 578q0 -24 15.5 -40.5t38.5 -16.5t38.5 16.5t15.5 40.5t-15.5 40.5t-38.5 16.5t-38.5 -16.5t-15.5 -40.5z" />
    <glyph glyph-name="ogonek" unicode="&#x2db;" horiz-adv-x="140" 
d="M118 3l19 -3q-36 -24 -56.5 -49t-20.5 -63q0 -34 22 -53t58 -19l-15 -28q-54 0 -89.5 26t-35.5 68q0 40 29.5 70t58.5 40z" />
    <glyph glyph-name="tilde" unicode="&#x2dc;" horiz-adv-x="285" 
d="M168 567q36 -19 55 -19q13 0 25 15t16 34l21 -5q-14 -55 -34.5 -78t-52.5 -23q-28 0 -79 27q-35 19 -53 19q-16 0 -28.5 -14.5t-15.5 -34.5l-22 5q15 55 35.5 78t52.5 23q29 0 80 -27z" />
    <glyph glyph-name="hungarumlaut" unicode="&#x2dd;" horiz-adv-x="356" 
d="M27 479h-27l96 140q18 25 51 25q41 0 41 -28q0 -16 -18 -30zM145 479h-27l142 140q27 25 57 25q39 0 39 -30q0 -22 -24 -36z" />
    <glyph glyph-name="Delta" unicode="&#x394;" horiz-adv-x="610" 
d="M550 0h-490l223 641h39zM131 47h318l-162 463z" />
    <glyph glyph-name="Delta" unicode="&#x2206;" horiz-adv-x="610" 
d="M550 0h-490l223 641h39zM131 47h318l-162 463z" />
    <glyph glyph-name="Omega" unicode="&#x3a9;" horiz-adv-x="716" 
d="M411 0v227q67 20 112.5 77.5t45.5 141.5q0 89 -56 148t-156 59q-98 0 -154 -61t-56 -150q0 -156 158 -215v-227h-230l-7 178h25q5 -40 27 -68q23 -29 76 -29h69v93q-102 30 -158.5 97t-56.5 155q0 105 83.5 183.5t223.5 78.5q78 0 139.5 -21.5t97.5 -57.5t54 -77.5
t18 -84.5q0 -93 -57.5 -166t-156.5 -106v-94h68q53 0 76 29q22 28 27 68h25l-7 -178h-230z" />
    <glyph glyph-name="Omega" unicode="&#x2126;" horiz-adv-x="716" 
d="M411 0v227q67 20 112.5 77.5t45.5 141.5q0 89 -56 148t-156 59q-98 0 -154 -61t-56 -150q0 -156 158 -215v-227h-230l-7 178h25q5 -40 27 -68q23 -29 76 -29h69v93q-102 30 -158.5 97t-56.5 155q0 105 83.5 183.5t223.5 78.5q78 0 139.5 -21.5t97.5 -57.5t54 -77.5
t18 -84.5q0 -93 -57.5 -166t-156.5 -106v-94h68q53 0 76 29q22 28 27 68h25l-7 -178h-230z" />
    <glyph glyph-name="pi" unicode="&#x3c0;" horiz-adv-x="619" 
d="M556 488l23 -9q-21 -111 -56 -135q-22 -15 -69 -15q0 -41 -0.5 -139.5t-0.5 -107.5q0 -27 8.5 -37.5t26.5 -10.5q29 0 57 29l8 -23q-14 -21 -40 -36.5t-52 -15.5q-89 0 -89 99q0 55 12 242h-158v-37q0 -102 -11 -166t-20 -79.5t-25 -32.5q-24 -26 -68 -26l-9 23
q58 36 77 113.5t19 204.5h-28q-73 0 -98 -100l-23 9q16 90 41 126q23 34 87 34h273q51 0 75 18q25 19 40 72z" />
    <glyph glyph-name="afii10023" unicode="&#x401;" horiz-adv-x="619" 
d="M364 355h-166v-73q0 -156 5 -199q3 -24 14.5 -36.5t35.5 -12.5h167q58 0 91.5 39t42.5 97h25l-7 -170h-527v24q44 0 55 43q8 30 8 176v205v33v29.5v24.5t-0.5 23t-1 18.5t-1 16.5t-2 13t-3 12t-3.5 9q-15 30 -52 30v24h438q17 19 27 35h25v-216h-26q-12 76 -47.5 111.5
t-107.5 35.5h-104q-25 0 -37 -11.5t-13 -38.5q-2 -41 -2 -150v-58h166q43 0 65 21q19 18 21 55h25v-192h-25q-3 42 -21 61q-18 21 -65 21zM166 798q0 21 15 36t35 15q21 0 36 -15t15 -36q0 -20 -15 -35t-36 -15q-20 0 -35 15t-15 35zM341 798q0 21 15 36t35 15q21 0 36 -15
t15 -36q0 -20 -15 -35t-36 -15q-20 0 -35 15t-15 35z" />
    <glyph glyph-name="afii10051" unicode="&#x402;" horiz-adv-x="852" 
d="M92 677h569q15 21 22 36h25v-207h-26q-28 80 -51.5 108t-77.5 28h-125q0 -94 -0.5 -190.5t-0.5 -123.5q20 39 62.5 66t96.5 27q75 0 118.5 -40t43.5 -125q0 -71 0.5 -121t0.5 -54q0 -72 -26 -112.5t-74 -69.5q-42 -26 -95 -36l-6 30q33 7 53 22q30 23 41 58t11 98
q0 11 1 74t1 100q0 125 -97 125q-53 0 -92 -37t-39 -91q0 -126 5 -156q6 -62 71 -62v-24h-241v24q31 0 46 9t20 36q9 52 9 254v319h-130q-59 0 -86 -29t-48 -107h-26v207h25q12 -25 20 -36z" />
    <glyph glyph-name="afii10052" unicode="&#x403;" horiz-adv-x="546" 
d="M349 647h-93q-43 0 -52 -50q-4 -23 -4 -83v-271q0 -135 6 -166q5 -22 22.5 -36.5t45.5 -16.5v-24h-228v24q24 0 37.5 12t19.5 40q7 32 7 165v263q0 45 -2 78q-3 36 -16 55.5t-46 19.5v24h430q16 18 25 35h26v-212h-26q-13 71 -48.5 107t-103.5 36zM222 708h-27l124 98
q28 23 55 23q17 0 28 -8.5t11 -21.5q0 -22 -22 -30z" />
    <glyph glyph-name="afii10053" unicode="&#x404;" horiz-adv-x="723" 
d="M340 327h-183q13 -134 95 -206t215 -72q103 0 189 44l12 -28q-113 -74 -251 -74q-161 0 -261.5 92.5t-100.5 242.5q0 170 98.5 264.5t247.5 94.5q102 0 190 -47q27 32 38 64h25v-216h-28q-72 165 -233 165q-95 0 -166 -78.5t-71 -207.5h170q29 0 42.5 0.5t28.5 5t21 13.5
q13 19 15 57h25v-196h-25q-3 48 -20 65q-16 17 -73 17z" />
    <glyph glyph-name="afii10054" unicode="&#x405;" horiz-adv-x="589" 
d="M500 499h-26q-19 65 -71.5 109.5t-118.5 44.5q-47 0 -73.5 -22.5t-26.5 -62.5q0 -25 12 -47t42 -45.5t55 -39l77 -45.5q103 -59 141 -98t38 -105q0 -90 -63.5 -142t-145.5 -52q-49 0 -93 16t-69 32l-24 16q-4 0 -8 -6q-20 -36 -29 -71h-24v241h25q24 -96 87 -145t133 -49
q62 0 96 35t34 89q0 51 -33.5 84t-117.5 82l-49 28t-42.5 26.5t-41.5 29.5l-31.5 29t-28 34t-14.5 35t-7 42q0 74 51.5 109.5t124.5 35.5q76 0 162 -54q19 27 34 64h25v-198z" />
    <glyph glyph-name="afii10055" unicode="&#x406;" horiz-adv-x="317" 
d="M216 640q-15 -17 -18.5 -43.5t-3.5 -92.5v-260q0 -110 2.5 -143t14.5 -53q15 -24 47 -24v-24h-218v24q28 0 42 16q15 16 18.5 58.5t3.5 145.5v253q0 78 -4 103.5t-18 41.5q-14 15 -42 15v24h218v-24q-27 0 -42 -17z" />
    <glyph glyph-name="afii10056" unicode="&#x407;" horiz-adv-x="323" 
d="M226 640q-15 -17 -18.5 -43.5t-3.5 -92.5v-260q0 -110 2.5 -143t14.5 -53q15 -24 47 -24v-24h-218v24q28 0 42 16q15 16 18.5 58.5t3.5 145.5v253q0 78 -4 103.5t-18 41.5q-14 15 -42 15v24h218v-24q-27 0 -42 -17zM21 794q0 21 15 36t35 15q21 0 36 -15t15 -36
q0 -20 -15 -35t-36 -15q-20 0 -35 15t-15 35zM196 794q0 21 15 36t35 15q21 0 36 -15t15 -36q0 -20 -15 -35t-36 -15q-20 0 -35 15t-15 35z" />
    <glyph glyph-name="afii10057" unicode="&#x408;" horiz-adv-x="305" 
d="M214 641q-15 -14 -19 -43.5t-4 -93.5v-338q0 -13 0.5 -43.5t0.5 -49.5q0 -122 -107 -180q-16 -8 -37 -15.5t-34 -11.5l-14 -3l-6 27q32 6 58 26q40 31 44 104q5 112 5 143v342q0 63 -3.5 91t-17.5 44q-16 17 -43 17v24h218v-24q-25 0 -41 -16z" />
    <glyph glyph-name="afii10058" unicode="&#x409;" horiz-adv-x="1062" 
d="M249 647v34h482v-24q-2 0 -7.5 -0.5t-7.5 -1t-6.5 -1.5t-7 -2.5t-6.5 -4.5t-8 -7q-14 -14 -18 -41.5t-4 -84.5v-106q60 11 116 11q123 0 186.5 -50.5t63.5 -131.5q0 -117 -76.5 -177t-196.5 -60h-247v24q45 0 56 47q8 35 8 97v361q0 88 -8 100q-7 12 -29 12h-134
q-35 0 -40 -33q-52 -320 -137 -489q-66 -131 -144 -131q-27 0 -44.5 15.5t-17.5 39.5q0 22 14 37t36 15q27 0 47 -22q9 -10 15 -10q16 0 45 50q47 82 85.5 220t54.5 265q1 6 1 14q0 22 -17 28.5t-54 6.5zM666 275q0 -163 3 -191q6 -50 52 -50h24q95 0 141 54.5t46 134.5
q0 75 -43.5 118.5t-128.5 43.5q-53 0 -76 -8q-18 -6 -18 -20v-82z" />
    <glyph glyph-name="afii10059" unicode="&#x40a;" horiz-adv-x="1091" 
d="M541 681h218v-24q-26 -3 -42 -19q-22 -23 -22 -96v-134q60 11 116 11q123 0 186.5 -50.5t63.5 -131.5q0 -117 -76.5 -177t-196.5 -60h-247v24q46 0 56 47q8 40 8 173v104h-405v-104q0 -107 3.5 -144t16.5 -55q13 -17 44 -21v-24h-218v24q32 0 44 19q13 19 16.5 61.5
t3.5 140.5v259q0 56 -1 72q-3 46 -22 65q-13 13 -41 16v24h218v-24q-22 0 -35 -11q-18 -15 -23.5 -40.5t-5.5 -108.5v-115h405v156q0 70 -13 89q-17 25 -51 30v24zM695 275v-141q0 -65 15 -84q13 -16 40 -16h24q95 0 141 54.5t46 134.5q0 75 -43.5 118.5t-128.5 43.5
q-53 0 -76 -8q-18 -7 -18 -22v-80z" />
    <glyph glyph-name="afii10060" unicode="&#x40b;" horiz-adv-x="864" 
d="M93 677h567q1 2 23 36h25v-207h-26q-26 79 -50.5 107.5t-75.5 28.5h-129v-316q21 40 62 67.5t97 27.5q75 0 118.5 -40.5t43.5 -127.5q0 -148 9 -185q11 -44 64 -44v-24h-238v24q43 0 60 36q12 26 12 189q0 121 -96 121q-43 0 -77 -27t-47 -65q-8 -24 -8 -59
q0 -108 5 -133q6 -62 71 -62v-24h-241v24q31 0 46 9.5t20 35.5q9 43 9 254v319h-124q-66 0 -90.5 -27.5t-50.5 -108.5h-25v207h26q11 -26 20 -36z" />
    <glyph glyph-name="afii10061" unicode="&#x40c;" horiz-adv-x="710" 
d="M41 657v24h218v-24q-34 0 -49 -26q-10 -17 -12.5 -39.5t-2.5 -86.5v-116h39q17 0 34 15l174 172q30 30 30 56q0 25 -41 25v24h196v-24q-55 -6 -102 -53l-220 -217q74 -99 151 -189q61 -73 112 -120q29 -27 50 -38.5t52 -15.5v-24h-158q-149 170 -276 342q-10 13 -27 13
h-14v-108q0 -157 11 -188q12 -35 53 -35v-24h-218v24q39 0 52 33q12 31 12 188v260q0 58 -4 93q-6 59 -60 59zM281 717h-27l124 98q28 23 55 23q17 0 28 -8.5t11 -21.5q0 -22 -22 -30z" />
    <glyph glyph-name="afii10062" unicode="&#x40e;" horiz-adv-x="675" 
d="M144 620q0 -25 25 -65l181 -299l196 332q13 21 13 40q0 29 -61 29v24h197v-24q-65 -4 -102 -66l-246 -414q-77 -130 -110 -162q-34 -34 -73 -34q-32 0 -49 15t-17 36t13.5 35t34.5 14t39 -12.5t23 -12.5q16 0 34 25q21 27 61 94l-256 419q-34 56 -87 63v24h228v-24
q-44 0 -44 -37zM350 706q-71 0 -115 27t-44 66q0 24 12.5 37t34.5 13q36 0 36 -33q0 -9 -4.5 -20t-4.5 -18q0 -16 24 -28t62 -12t60.5 11.5t22.5 28.5q0 7 -4 18t-4 20q0 15 11 24t28 9q43 0 43 -50q0 -37 -45 -65t-113 -28z" />
    <glyph glyph-name="afii10145" unicode="&#x40f;" horiz-adv-x="816" 
d="M106 95q4 107 4 241q0 203 -3 254q-3 34 -14 48q-16 19 -43 19v24h206v-24q-25 0 -36 -12q-16 -17 -16 -50q0 -2 -0.5 -41.5t-1 -100t-0.5 -126.5t-0.5 -131t-0.5 -104q0 -51 33 -51h317q22 0 34.5 15.5t12.5 39.5q0 454 -3 490q-2 38 -17 53q-13 13 -40 18v24h205v-24
q-24 0 -35 -12q-15 -15 -17 -50q-4 -144 -4 -255l1 -224q0 -51 21 -73q18 -20 57 -20v-23h-306l-41 -186h-25l-38 186h-304v24q19 0 32 11q20 17 22 60z" />
    <glyph glyph-name="afii10017" unicode="&#x410;" horiz-adv-x="756" 
d="M76 80l281 623h53l264 -616q18 -40 39 -53q15 -10 42 -10v-24h-224v24q58 0 58 35q0 7 -4 17l-79 184h-308l-72 -159q-10 -24 -10 -41q0 -18 11 -27t42 -9v-24h-165v24q47 0 72 56zM359 623l-146 -329h281z" />
    <glyph glyph-name="afii10018" unicode="&#x411;" horiz-adv-x="653" 
d="M371 647h-106q-54 0 -57 -60q-1 -32 -1 -82v-116q72 11 128 11q130 0 201.5 -52t71.5 -129q0 -104 -70.5 -161.5t-205.5 -57.5h-279v24q23 0 35.5 9.5t19.5 33.5q9 30 9 110v327q0 42 -0.5 61t-4 38t-11.5 31q-16 24 -48 24v23h444q15 17 27 35h25v-212h-25
q-15 79 -47 111t-106 32zM207 335v-95q0 -134 4 -159q8 -47 59 -47h56q91 0 136.5 49t45.5 127q0 74 -48 115t-142 41q-55 0 -95 -9q-16 -4 -16 -22z" />
    <glyph glyph-name="afii10019" unicode="&#x412;" horiz-adv-x="638" 
d="M535 544q0 -59 -42.5 -101.5t-108.5 -59.5v-4q104 -12 159 -58t55 -118q0 -96 -77.5 -149.5t-203.5 -53.5h-272v24q48 0 57 50q7 37 7 169v263q0 107 -15 127q-17 22 -49 24v24h279q211 0 211 -137zM199 357v-273q0 -28 12.5 -39t36.5 -11h59q99 0 145 48.5t46 124.5
q0 80 -49.5 115t-163.5 35h-86zM199 391h86q66 0 108 32.5t42 102.5q0 121 -134 121h-53q-49 0 -49 -50v-206z" />
    <glyph glyph-name="afii10020" unicode="&#x413;" horiz-adv-x="546" 
d="M349 647h-93q-43 0 -52 -50q-4 -23 -4 -83v-271q0 -135 6 -166q5 -22 22.5 -36.5t45.5 -16.5v-24h-228v24q24 0 37.5 12t19.5 40q7 32 7 165v263q0 45 -2 78q-3 36 -16 55.5t-46 19.5v24h430q16 18 25 35h26v-212h-26q-13 71 -48.5 107t-103.5 36z" />
    <glyph glyph-name="afii10021" unicode="&#x414;" horiz-adv-x="750" 
d="M205 657v24h480v-24q-25 0 -42 -17q-22 -24 -22 -136v-260q0 -120 3 -160q3 -50 50 -50h36v-166h-25q-15 75 -42 103.5t-87 28.5h-374q-103 0 -131 -132h-25v166h33q33 0 52 28q58 83 114 254q55 169 55 276q0 65 -75 65zM481 647h-106q-23 0 -33 -10.5t-14 -39.5
q-19 -145 -66 -292q-46 -141 -100 -238q-7 -14 -7 -20q0 -13 13 -13h313q19 0 30 11t13.5 21t2.5 18q4 120 4 160v265q0 62 -2 88t-12.5 38t-35.5 12z" />
    <glyph glyph-name="afii10022" unicode="&#x415;" horiz-adv-x="621" 
d="M366 355h-166v-73q0 -156 5 -199q3 -24 14.5 -36.5t35.5 -12.5h167q58 0 91.5 39t42.5 97h25l-7 -170h-527v24q44 0 55 43q8 30 8 176v205v33v29.5v24.5t-0.5 23t-1 18.5t-1 16.5t-2 13t-3 12t-3.5 9q-15 30 -52 30v24h438q17 19 27 35h25v-216h-26q-12 76 -47.5 111.5
t-107.5 35.5h-104q-25 0 -37 -11.5t-13 -38.5q-2 -41 -2 -150v-58h166q43 0 65 21q19 18 21 55h25v-192h-25q-3 42 -21 61q-18 21 -65 21z" />
    <glyph glyph-name="afii10024" unicode="&#x416;" horiz-adv-x="1062" 
d="M157 688q56 0 86 -53l114 -208q25 -45 77 -45h52v122q0 65 -3 92q-3 29 -19 45t-42 16v24h218v-24q-28 0 -45 -20q-11 -14 -15 -40.5t-4 -90.5v-124h45q28 0 51.5 13t34.5 32l113 208q29 53 87 53q78 0 78 -65q0 -24 -15.5 -42t-40.5 -18q-24 0 -38 13.5t-14 34.5
q0 11 5 22l5 11q0 5 -5 5q-11 0 -22 -20l-116 -212q-19 -35 -55 -47v-4q47 -15 75.5 -40.5t57.5 -67.5l106 -154q46 -69 122 -80v-24h-163l-179 267q-31 46 -51.5 65.5t-43.5 19.5h-37v-107q0 -100 2 -136.5t11 -53.5q14 -30 51 -30v-25h-218v24q39 0 52 33q12 30 12 187
v108h-37q-23 0 -45 -20.5t-51 -64.5l-177 -267h-163v24q73 5 124 80l99 147q58 87 137 115v4q-35 13 -55 47l-116 212q-11 20 -22 20q-5 0 -5 -5q0 -2 5 -12.5t5 -20.5q0 -21 -14 -34.5t-38 -13.5q-27 0 -41 16t-14 39q0 30 19.5 50t59.5 20z" />
    <glyph glyph-name="afii10025" unicode="&#x417;" horiz-adv-x="565" 
d="M134 641q62 46 156 46q80 0 133.5 -32t53.5 -101q0 -56 -38.5 -101.5t-112.5 -68.5v-4q96 -14 140 -62.5t44 -114.5q0 -90 -67 -151t-173 -61q-126 0 -223 84l18 26q89 -51 182 -51q84 0 123.5 46.5t39.5 119.5q0 65 -45 105t-132 40h-60v34h62q61 0 101.5 39t40.5 107
q0 112 -111 112q-62 0 -106.5 -37t-59.5 -111h-26v207h24q23 -51 36 -71z" />
    <glyph glyph-name="afii10026" unicode="&#x418;" horiz-adv-x="813" 
d="M718 640q-15 -17 -18.5 -44.5t-3.5 -98.5v-327q0 -107 23 -130q16 -16 41 -16v-24h-218v24q27 0 41 15q23 25 23 131v422h-4l-410 -592h-146v24q29 0 42 16q16 20 19 62q3 45 3 244v194q0 72 -17 95q-17 22 -47 22v24h218v-24q-25 0 -40 -15q-24 -25 -24 -103v-456h4
l414 598h142v-24q-27 0 -42 -17z" />
    <glyph glyph-name="afii10027" unicode="&#x419;" horiz-adv-x="813" 
d="M718 640q-15 -17 -18.5 -44.5t-3.5 -98.5v-327q0 -107 23 -130q16 -16 41 -16v-24h-218v24q27 0 41 15q23 25 23 131v422h-4l-410 -592h-146v24q29 0 42 16q16 20 19 62q3 45 3 244v194q0 72 -17 95q-17 22 -47 22v24h218v-24q-25 0 -40 -15q-24 -25 -24 -103v-456h4
l414 598h142v-24q-27 0 -42 -17zM444 705q-71 0 -115 27t-44 66q0 24 12.5 37t34.5 13q36 0 36 -33q0 -9 -4.5 -20t-4.5 -18q0 -16 24 -28t62 -12t60.5 11.5t22.5 28.5q0 7 -4 18t-4 20q0 15 11 24t28 9q43 0 43 -50q0 -37 -45 -65t-113 -28z" />
    <glyph glyph-name="afii10028" unicode="&#x41a;" horiz-adv-x="696" 
d="M538 688q77 0 77 -65q0 -22 -14 -39.5t-42 -17.5q-48 0 -48 45q0 11 5 22l5 11q0 4 -5 4q-10 0 -22 -19l-122 -195q-29 -45 -57 -56v-4q32 -10 57 -27.5t36 -31t30 -39.5l126 -172q54 -74 122 -80v-24h-166l-198 288q-28 40 -46 55.5t-41 15.5h-35v-112q0 -157 11 -188
q12 -35 53 -35v-24h-218v24q39 0 52 33q12 31 12 188v260q0 58 -4 93q-6 59 -60 59v24h218v-24q-34 0 -49 -26q-10 -18 -12.5 -38t-2.5 -83v-121h51q49 0 80 49l123 197q33 53 84 53z" />
    <glyph glyph-name="afii10029" unicode="&#x41b;" horiz-adv-x="756" 
d="M221 657v24h481v-24q-25 0 -40 -15t-19.5 -39.5t-4.5 -97.5v-299q0 -104 7 -132q11 -50 57 -50v-24h-218v24q29 0 42 15t17 46q5 35 5 122v301q0 63 -2 89q-4 49 -51 49h-111q-24 0 -35 -9.5t-15 -40.5q-45 -319 -124 -477q-66 -131 -144 -131q-29 0 -47.5 15.5
t-18.5 38.5q0 24 14 38.5t39 14.5q26 0 48 -22q10 -10 15 -10q16 0 45 50q47 83 82.5 217.5t47.5 267.5q0 3 0.5 7.5t0.5 6.5q0 21 -15 33q-16 12 -56 12z" />
    <glyph glyph-name="afii10030" unicode="&#x41c;" horiz-adv-x="967" 
d="M15 0v24q47 0 66 42q8 19 16 66l76 441q4 28 4 37q0 39 -52 45v24h142l205 -551l243 553h154v-24q-35 0 -51 -17q-19 -19 -19 -57q0 -53 6 -99q14 -125 35 -247t35 -165q8 -24 23 -35.5t44 -12.5v-24h-242v24q40 0 55 12q17 13 17 52q0 18 -7 67q-41 276 -54 421
l-256 -586h-30l-213 587q-22 -122 -49 -287.5t-30 -180.5q-5 -27 -5 -49q0 -17 16 -26t39 -9v-25h-168z" />
    <glyph glyph-name="afii10031" unicode="&#x41d;" horiz-adv-x="812" 
d="M717 640q-15 -17 -18.5 -43.5t-3.5 -92.5v-260q0 -110 2.5 -143t14.5 -53q15 -24 47 -24v-24h-218v24q28 0 42 16q15 16 18.5 58.5t3.5 145.5v104h-405v-104q0 -107 3.5 -144t16.5 -55q13 -17 44 -21v-24h-218v24q32 0 44 19q13 19 16.5 61.5t3.5 140.5v259q0 56 -1 72
q-3 46 -22 65q-13 13 -41 16v24h218v-24q-22 0 -35 -11q-18 -15 -23.5 -40.5t-5.5 -108.5v-115h405v115q0 78 -4 103t-18 41q-15 16 -42 16v24h218v-24q-27 0 -42 -17z" />
    <glyph glyph-name="afii10032" unicode="&#x41e;" horiz-adv-x="836" 
d="M429 691q154 0 250.5 -90.5t96.5 -237.5q0 -165 -107.5 -270.5t-270.5 -105.5q-155 0 -251.5 94.5t-96.5 241.5q0 163 106 265.5t273 102.5zM429 27q107 0 176 87t69 222q0 149 -68.5 233t-205.5 84q-103 0 -176.5 -82t-73.5 -218q0 -152 72.5 -239t206.5 -87z" />
    <glyph glyph-name="afii10033" unicode="&#x41f;" horiz-adv-x="813" 
d="M726 648q-19 -14 -24.5 -42.5t-5.5 -94.5v-344q0 -94 17 -119q17 -24 47 -24v-24h-218v24q27 0 42 16q22 24 22 126v346q0 68 -1 85q-3 49 -50 49h-299q-44 0 -52 -49q-3 -15 -3 -84v-346q0 -101 21 -125q16 -18 43 -18v-24h-218v24q27 0 42 16q22 24 22 128v339
q0 117 -22 135q-13 11 -43 15v24h714v-24q-20 0 -34 -9z" />
    <glyph glyph-name="afii10034" unicode="&#x420;" horiz-adv-x="592" 
d="M46 657v24h282q42 0 79 -7.5t72.5 -25t56.5 -52.5t21 -83q0 -96 -74 -152.5t-174 -56.5h-108v-65q0 -121 6 -161q8 -54 78 -54v-24h-238v24q44 0 55 43q9 36 9 137v301q0 107 -15 127q-19 25 -50 25zM201 338h84q84 0 128 46.5t44 121.5q0 68 -42.5 104.5t-114.5 36.5
h-46q-44 0 -50 -50q-3 -29 -3 -87v-172z" />
    <glyph glyph-name="afii10035" unicode="&#x421;" horiz-adv-x="706" 
d="M383 685q107 0 201 -47q23 25 38 64h25v-216h-27q-68 165 -235 165q-98 0 -167 -79.5t-69 -203.5q0 -157 84.5 -238t223.5 -81q108 0 192 44l12 -28q-105 -74 -250 -74q-161 0 -262 91t-101 247q0 112 48.5 195t123 122t163.5 39z" />
    <glyph glyph-name="afii10036" unicode="&#x422;" horiz-adv-x="767" 
d="M92 677h569q8 12 22 36h25v-207h-26q-25 75 -49.5 105.5t-68.5 30.5h-117q-20 0 -20 -20v-298q0 -206 4 -238q8 -62 60 -62v-24h-218v24q47 0 56 45q8 39 8 254v299q0 20 -20 20h-126q-45 0 -72.5 -32t-45.5 -104h-26v207h25q8 -17 20 -36z" />
    <glyph glyph-name="afii10037" unicode="&#x423;" horiz-adv-x="687" 
d="M159 620q0 -25 25 -65l181 -299l196 332q13 21 13 40q0 29 -61 29v24h197v-24q-65 -4 -102 -66l-246 -414q-77 -130 -110 -162q-34 -34 -73 -34q-32 0 -49 15t-17 36t13.5 35t34.5 14t39 -12.5t23 -12.5q16 0 34 25q21 27 61 94l-256 419q-34 56 -87 63v24h228v-24
q-44 0 -44 -37z" />
    <glyph glyph-name="afii10038" unicode="&#x424;" horiz-adv-x="850" 
d="M343 639q23 0 34 -1q-2 31 -17 48q-16 18 -44 18v24h218v-24q-19 0 -33 -9q-26 -17 -28 -57q19 1 38 1q123 0 208.5 -66t85.5 -190q0 -84 -47.5 -146t-116 -90.5t-144.5 -28.5l-25 1q0 -49 15 -71q16 -24 47 -24v-24h-218v24q26 0 42 16t20 79q-24 -1 -35 -1
q-77 0 -143 26t-110.5 84t-44.5 139q0 84 45.5 148t112 94t140.5 30zM472 166q2 -14 21 -14q88 0 150.5 60t62.5 167q0 106 -57.5 165.5t-154.5 59.5q-23 0 -23 -27q0 -47 -0.5 -121.5t-0.5 -110.5q0 -158 2 -179zM364 152q14 0 14 15q2 38 2 178q0 36 -0.5 110t-0.5 121
q0 28 -31 28q-35 0 -70 -13t-65 -39t-49 -70.5t-19 -101.5q0 -115 65.5 -171.5t153.5 -56.5z" />
    <glyph glyph-name="afii10039" unicode="&#x425;" horiz-adv-x="732" 
d="M732 24v-24h-247v24q47 0 47 22q0 15 -14 33l-171 229l-197 -249q-8 -10 -8 -17q0 -18 56 -18v-24h-198v24q75 0 106 41l217 274l-208 273q-33 44 -80 44v24h238v-24q-20 0 -33 -7.5t-13 -19.5q0 -21 17 -42l138 -185l162 213q7 11 7 19q0 23 -54 23v24h177v-24
q-31 0 -49.5 -12.5t-41.5 -42.5l-177 -231l216 -284q41 -55 110 -63z" />
    <glyph glyph-name="afii10040" unicode="&#x426;" horiz-adv-x="829" 
d="M83 35q27 23 27 132v335q0 71 -4.5 98.5t-19.5 42.5q-14 14 -40 14v24h218v-24q-26 0 -42 -17q-14 -16 -18 -39t-4 -97v-342q0 -58 2 -77q2 -27 13.5 -38.5t36.5 -11.5h294q48 0 50 51q2 38 2 76v342q0 73 -4 98t-17 38q-17 17 -43 17v24h218v-24q-24 0 -39 -14
q-16 -14 -20.5 -38.5t-4.5 -100.5v-342q0 -54 3 -77q7 -50 56 -50h29v-165h-24q-17 78 -43.5 104t-91.5 26h-571v24q25 0 37 11z" />
    <glyph glyph-name="afii10041" unicode="&#x427;" horiz-adv-x="761" 
d="M667 646q-29 -20 -29 -105v-399q0 -84 20 -104q13 -14 50 -14v-24h-236v24q31 0 47 12q29 23 29 104v189q-112 -73 -233 -73q-104 0 -160 48.5t-56 132.5v117q0 62 -20 85q-14 18 -44 18v24h218v-24q-22 0 -37 -12q-27 -21 -27 -91v-109q0 -145 162 -145q43 0 93 16
t83 39q21 15 21 34v149q0 76 -20 101q-14 18 -44 18v24h218v-24q-19 0 -35 -11z" />
    <glyph glyph-name="afii10042" unicode="&#x428;" horiz-adv-x="1074" 
d="M250 35h186q46 0 50 50q2 26 2 70v349q0 75 -4.5 99t-18.5 39q-13 13 -41 15v24h218v-24q-26 0 -42 -17q-22 -23 -22 -135v-349q0 -49 1 -71q2 -26 13 -38t37 -12h186q27 0 37.5 12t12.5 38t2 72v346q0 110 -18 134q-17 20 -46 20v24h218v-24q-29 0 -47 -23
q-17 -22 -17 -132v-344q0 -89 20 -113q16 -21 44 -21v-24h-975v24q27 0 42 16q22 23 22 118v347q0 72 -4.5 96t-14.5 36q-16 20 -45 20v24h218v-24q-23 0 -39 -14q-15 -13 -20 -39t-5 -100v-348q0 -37 2 -71q2 -27 13.5 -38.5t34.5 -11.5z" />
    <glyph glyph-name="afii10043" unicode="&#x429;" horiz-adv-x="1101" 
d="M251 35h191q42 0 46 49q2 24 2 56v364q0 72 -4.5 98t-17.5 39q-16 16 -42 16v24h218v-24q-21 0 -33 -9q-19 -14 -25 -40t-6 -104v-363q0 -40 1 -56q4 -50 48 -50h189q45 0 50 50q2 17 2 49v372q0 107 -17 129q-19 22 -48 22v24h219v-24q-30 0 -46 -21q-12 -17 -15 -42
t-3 -91v-371q0 -37 1 -47q2 -21 14 -35.5t36 -14.5h37v-165h-25q-12 72 -40 101t-92 29h-845v24q30 0 45 20q19 25 19 95v374q0 68 -4.5 90.5t-17.5 37.5q-16 16 -42 16v24h218v-24q-25 0 -38 -13q-14 -14 -20 -38t-6 -94v-371q0 -44 1 -56q4 -50 50 -50z" />
    <glyph glyph-name="afii10044" unicode="&#x42a;" horiz-adv-x="745" 
d="M78 681h322v-24q-24 -2 -39 -17q-25 -23 -25 -95v-138q64 12 108 12q127 0 197.5 -51.5t70.5 -136.5q0 -110 -81 -170.5t-199 -60.5h-250v24q43 0 55 45q9 36 9 107v369q0 65 -15 83q-16 19 -52 19q-57 0 -84.5 -33t-39.5 -109h-25v211h25q9 -18 23 -35zM336 348v-171
q0 -77 3 -93q7 -50 52 -50h19q98 0 150 52t52 133q0 82 -46.5 124t-127.5 42q-56 0 -83 -10q-19 -6 -19 -27z" />
    <glyph glyph-name="afii10045" unicode="&#x42b;" horiz-adv-x="908" 
d="M44 681h218v-24q-23 0 -42 -17q-14 -13 -18 -41t-4 -85v-106q60 11 119 11q123 0 185 -50.5t62 -131.5q0 -117 -76.5 -177t-196.5 -60h-247v24q45 0 56 46q8 35 8 98v361q0 87 -18 108q-16 17 -46 20v24zM198 275q0 -159 3 -191q5 -50 49 -50h27q95 0 141 54.5t46 134.5
q0 75 -43.5 118.5t-128.5 43.5q-53 0 -76 -8q-18 -6 -18 -20v-82zM816 640q-15 -17 -18.5 -43.5t-3.5 -92.5v-260q0 -110 2.5 -143t14.5 -53q15 -24 47 -24v-24h-218v24q28 2 42 18q15 16 18.5 58t3.5 144v260q0 71 -4 96t-18 41q-15 16 -42 16v24h218v-24q-27 0 -42 -17z
" />
    <glyph glyph-name="afii10046" unicode="&#x42c;" horiz-adv-x="613" 
d="M53 681h218v-24q-23 0 -42 -17q-14 -13 -18 -41t-4 -85v-106q60 11 116 11q123 0 186.5 -50.5t63.5 -131.5q0 -117 -76.5 -177t-196.5 -60h-247v24q45 0 56 47q8 35 8 97v361q0 87 -18 108q-16 17 -46 20v24zM207 275q0 -163 3 -191q6 -50 52 -50h24q95 0 141 54.5
t46 134.5q0 75 -43.5 118.5t-128.5 43.5q-53 0 -76 -8q-18 -6 -18 -20v-82z" />
    <glyph glyph-name="afii10047" unicode="&#x42d;" horiz-adv-x="754" 
d="M361 686q146 0 242 -83.5t96 -242.5q0 -162 -98 -266t-269 -104q-149 0 -257 91l16 26q105 -60 220 -60q110 0 192 74.5t93 207.5h-219q-57 0 -73 -17q-17 -17 -20 -68h-25v195h25q2 -38 15 -57q6 -9 21 -13.5t28.5 -5t42.5 -0.5h205q-4 133 -73.5 211t-182.5 78
q-78 0 -147.5 -40.5t-83.5 -111.5h-25v206h25q16 -46 38 -69q91 49 214 49z" />
    <glyph glyph-name="afii10048" unicode="&#x42e;" horiz-adv-x="1093" 
d="M229 640q-15 -17 -18.5 -43.5t-3.5 -92.5v-122h129q19 143 117.5 224.5t246.5 81.5q154 0 246 -91.5t92 -234.5q0 -157 -106 -264.5t-263 -107.5q-142 0 -238.5 92t-96.5 244v22h-127v-104q0 -110 2.5 -143t14.5 -53q15 -24 47 -24v-24h-218v24q28 0 42 16
q15 16 18.5 58.5t3.5 145.5v253q0 78 -4 103t-18 41q-15 16 -42 16v24h218v-24q-27 0 -42 -17zM697 25q104 0 172 91t68 222q0 155 -76 235t-190 80q-101 0 -169.5 -83.5t-68.5 -224.5q0 -142 73 -231t191 -89z" />
    <glyph glyph-name="afii10049" unicode="&#x42f;" horiz-adv-x="712" 
d="M668 681v-24q-40 0 -60 -25q-17 -21 -17 -115v-273q0 -134 7 -162q14 -55 68 -58v-24h-258v24q62 0 80 38q13 28 13 180v86h-48q-57 0 -109 -75l-178 -253h-161v24q40 5 66.5 23.5t52.5 53.5l96 132q27 36 56.5 60.5t81.5 44.5v4q-108 1 -167.5 42.5t-59.5 117.5
q0 84 66 131.5t178 47.5h293zM396 361h55q28 0 39 11.5t11 38.5v188q0 27 -12 38.5t-38 11.5h-60q-73 0 -116 -38.5t-43 -104.5q0 -62 47.5 -103.5t116.5 -41.5z" />
    <glyph glyph-name="afii10065" unicode="&#x430;" horiz-adv-x="486" 
d="M469 26l4 -23q-25 -12 -60 -12q-55 0 -78 35q-10 16 -16 52q-1 10 -5 10t-8 -7q-29 -45 -69.5 -69t-83.5 -24q-53 0 -83 28.5t-30 74.5q0 137 270 161l-2 41q-5 91 -93 91q-24 0 -42.5 -5.5t-26.5 -12t-8 -12.5t5 -11q1 -1 4.5 -4t4.5 -4.5t3.5 -4t3.5 -4t2 -5t1.5 -7
t0.5 -7.5q0 -17 -13.5 -29.5t-34.5 -12.5q-20 0 -33 13t-13 35q0 45 47.5 72.5t109.5 27.5q81 0 118 -32.5t40 -92.5l5 -104q7 -114 15 -134q7 -16 16 -21.5t27 -5.5q13 0 22 3zM192 44q48 0 85.5 45.5t35.5 89.5l-1 32q0 9 -9 9q-68 0 -115 -24q-60 -31 -60 -87
q0 -30 17 -47.5t47 -17.5z" />
    <glyph glyph-name="afii10066" unicode="&#x431;" horiz-adv-x="541" 
d="M276 356q-50 0 -90.5 -42.5t-40.5 -120.5q0 -77 38 -125t104 -48q56 0 90 45t34 115q0 93 -38 134.5t-97 41.5zM436 679l26 -14q-29 -77 -42 -98q-31 -47 -114 -71q-94 -26 -133 -53q-32 -22 -56 -73t-27 -114h4q23 60 79.5 97.5t126.5 37.5q87 0 141.5 -53.5
t54.5 -137.5q0 -89 -66.5 -153t-157.5 -64q-100 0 -161.5 65t-61.5 167q0 101 35 190.5t97 131.5q21 14 42 22q17 6 50.5 15t41.5 12q54 15 80 37t41 56z" />
    <glyph glyph-name="afii10067" unicode="&#x432;" horiz-adv-x="471" 
d="M409 316q0 -35 -22.5 -60.5t-58.5 -35.5v-4q107 -21 107 -96q0 -61 -43 -90.5t-118 -29.5h-230v24q39 0 52 35q12 33 12 132v56q0 86 -20 109q-15 18 -44 18v24h247q118 0 118 -82zM243 198h-59v-144q0 -21 20 -23q17 -1 48 -1q99 0 99 88q0 40 -25 60t-83 20zM248 368
h-34q-16 0 -22 -5.5t-7 -21.5q-1 -29 -1 -113h76q31 0 49 20t18 52q0 68 -79 68z" />
    <glyph glyph-name="afii10068" unicode="&#x433;" horiz-adv-x="408" 
d="M45 374v24h304l16 27h23v-159h-25q-11 55 -37 76t-87 21h-31q-21 0 -22 -20q-1 -15 -1 -52v-114q0 -100 15 -125q17 -28 62 -28v-24h-217v24q28 0 43 17q13 15 17 44.5t4 91.5v93q0 62 -20 86q-16 18 -44 18z" />
    <glyph glyph-name="afii10069" unicode="&#x434;" horiz-adv-x="526" 
d="M429 49q13 -19 43 -19h4v-134h-25q-5 56 -34.5 80t-90.5 24h-179q-58 0 -89 -34q-27 -29 -29 -70h-25v134h10q45 0 67 30q71 98 86 257v10q0 25 -16 37q-13 10 -44 10v24h374v-24q-26 0 -40 -14t-19 -40.5t-5 -81.5v-96q0 -74 12 -93zM128 30h188q19 0 22 21q3 27 3 91
v96q0 86 -1 110q-1 20 -21 20h-88q-20 0 -23 -20q-18 -122 -30 -165q-19 -68 -55 -127q-6 -9 -6 -15q0 -11 11 -11z" />
    <glyph glyph-name="afii10070" unicode="&#x435;" horiz-adv-x="476" 
d="M434 286q2 -14 2 -21q0 -6 -8 -14t-13 -8h-283q-1 -15 -1 -25q0 -81 44.5 -127t116.5 -46q68 0 123 34l15 -29q-28 -24 -74 -43t-96 -19q-104 0 -159.5 59.5t-55.5 144.5q0 102 65.5 161.5t146.5 59.5q46 0 82 -15t55 -37.5t28.5 -41.5t11.5 -33zM137 273h191q19 0 19 18
q0 36 -27.5 63t-69.5 27t-73.5 -32.5t-39.5 -75.5z" />
    <glyph glyph-name="afii10072" unicode="&#x436;" horiz-adv-x="788" 
d="M111 407q24 0 45.5 -14t51.5 -54l44 -59q39 -52 79 -52h24v30q0 73 -19 96q-15 19 -45 20v24h204v-24q-28 0 -44 -19q-20 -24 -20 -97v-30h23q28 0 47 10.5t38 39.5l43 64q42 65 96 65q30 0 51 -16t21 -42q0 -21 -12.5 -39t-40.5 -18q-18 0 -31.5 10.5t-13.5 33.5
q0 10 4.5 18.5t4.5 10.5q0 4 -4 4q-18 0 -47 -44l-38 -58q-24 -37 -65 -52v-4q84 -18 123 -75l43 -60q16 -23 48 -41q19 -11 56 -11v-24h-148l-43 65q-46 70 -72 99q-31 34 -63 34h-20v-33q0 -71 9 -101q11 -39 57 -40v-24h-208v24q43 0 56 39q10 30 10 102v33h-22
q-26 0 -53 -26q-23 -22 -77 -103l-46 -69h-146v24q18 0 37 5q36 10 61 42l39 53q47 67 131 87v4q-27 8 -56 47l-48 66q-31 41 -44 41q-3 0 -3 -4q0 -3 3.5 -13t3.5 -16q0 -18 -12 -31t-33 -13q-20 0 -34.5 12.5t-14.5 36.5q0 25 21 45.5t49 20.5z" />
    <glyph glyph-name="afii10073" unicode="&#x437;" horiz-adv-x="416" 
d="M213 412q70 0 105 -25.5t35 -70.5q0 -74 -106 -98v-4q123 -21 123 -101q0 -59 -50 -92t-119 -33q-95 0 -170 56l18 28q62 -35 137 -35q48 0 74 22.5t26 62.5q0 73 -106 73h-39l5 30h29q42 0 68 23t26 64q0 67 -77 67q-53 0 -81 -28q-4 -4 -4 -7q0 -2 12.5 -14t12.5 -27
q0 -17 -11 -30t-31 -13q-19 0 -32.5 12.5t-13.5 33.5q0 41 48.5 73.5t120.5 32.5z" />
    <glyph glyph-name="afii10074" unicode="&#x438;" 
d="M430 398h125v-24q-27 0 -44 -19q-13 -14 -16.5 -42t-3.5 -91v-61q0 -99 22 -120q18 -17 55 -17l2 -24h-219v24q32 0 46 22q18 28 18 115v60l-1 100l-236 -321h-133v24q32 0 45 20q19 30 19 117v60q0 65 -4 93t-19 44q-16 16 -41 16v24h204v-24q-25 0 -41 -16t-19.5 -42
t-3.5 -94v-61v-95z" />
    <glyph glyph-name="afii10075" unicode="&#x439;" 
d="M430 398h125v-24q-27 0 -44 -19q-13 -14 -16.5 -42t-3.5 -91v-61q0 -99 22 -120q18 -17 55 -17l2 -24h-219v24q32 0 46 22q18 28 18 115v60l-1 100l-236 -321h-133v24q32 0 45 20q19 30 19 117v60q0 65 -4 93t-19 44q-16 16 -41 16v24h204v-24q-25 0 -41 -16t-19.5 -42
t-3.5 -94v-61v-95zM307 462q-71 0 -115 27t-44 66q0 24 12.5 37t34.5 13q36 0 36 -33q0 -9 -4.5 -20t-4.5 -18q0 -16 24 -28t62 -12t60.5 11.5t22.5 28.5q0 7 -4 18t-4 20q0 15 11 24t28 9q43 0 43 -50q0 -37 -45 -65t-113 -28z" />
    <glyph glyph-name="afii10076" unicode="&#x43a;" horiz-adv-x="537" 
d="M424 408q40 0 56 -18.5t16 -43.5q0 -20 -13.5 -37t-40.5 -17q-18 0 -31 11t-13 32q0 10 4 19l5 10q0 5 -5 5q-9 0 -22 -20l-56 -85q-22 -32 -57 -47v-4q45 -11 71 -29t46 -47l38 -55q20 -29 43.5 -43t63.5 -14v-25h-146l-77 114q-31 47 -50.5 66t-42.5 19h-28v-49
q0 -82 17 -104q16 -22 47 -22v-24h-204v24q25 0 40 14q24 21 24 112v79q0 40 -1 58t-5.5 38t-14.5 31q-15 16 -43 18v24h204v-24q-17 0 -33 -9q-31 -18 -31 -92v-44h27q49 0 78 45l53 81q34 53 81 53z" />
    <glyph glyph-name="afii10077" unicode="&#x43b;" horiz-adv-x="562" 
d="M146 374v24h371v-24q-25 0 -40 -15q-11 -11 -16.5 -31.5t-6.5 -36.5t-1 -47v-76q0 -66 7 -97q11 -47 70 -47v-24h-217v24q28 0 42 16q22 27 22 127v78q0 70 -2 103q-1 20 -22 20h-83q-20 0 -22 -20q-15 -156 -58 -251q-49 -109 -121 -109q-27 0 -47.5 15t-20.5 41
q0 21 12 35t32 14q34 0 44 -34q4 -16 11 -16q9 0 22 16q32 37 54 106q27 85 27 158q0 26 -19 40q-16 11 -38 11z" />
    <glyph glyph-name="afii10078" unicode="&#x43c;" horiz-adv-x="669" 
d="M20 0v23q24 0 40.5 10.5t19.5 29.5l43 251q3 15 3 27q0 20 -13 27t-35 7v23h126l115 -298h4l147 298h137v-23q-31 0 -48 -13q-18 -15 -18 -38q0 -16 3 -32l20 -157q6 -50 15 -69.5t25 -30.5q15 -9 40 -11v-24h-205v24q35 0 48 20q10 16 10 41q0 9 -4 43l-24 191
l-160 -323h-21l-130 327l-39 -239q-3 -15 -3 -27q0 -17 12 -25q15 -9 40 -9v-23h-148z" />
    <glyph glyph-name="afii10079" unicode="&#x43d;" horiz-adv-x="601" 
d="M523 365q-15 -11 -22 -31.5t-8 -37.5t-1 -52v-78q0 -102 22 -125q16 -17 42 -17v-24h-204v24q29 0 43 17q21 24 21 108v40h-231v-30q0 -54 4.5 -80t18.5 -39q6 -5 12.5 -8.5t10 -4.5t10.5 -2t8 -1v-24h-204v24q26 0 40 14q24 24 24 128v79q0 50 -3.5 72t-15.5 37
q-15 20 -45 20v24h204v-24q-23 0 -35 -11q-18 -15 -23.5 -38t-5.5 -85v-19h231v23l-1 39q0 53 -22 75q-16 16 -41 16v24h204v-24q-21 0 -33 -9z" />
    <glyph glyph-name="afii10080" unicode="&#x43e;" horiz-adv-x="530" 
d="M132 204q0 -90 41.5 -134.5t98.5 -44.5t91.5 48t34.5 122q0 89 -37 135t-101 46q-55 0 -91.5 -44t-36.5 -128zM43 189q0 105 66.5 164.5t165.5 59.5q91 0 151.5 -52t60.5 -147q0 -105 -68 -166t-166 -61q-89 0 -149.5 50.5t-60.5 151.5z" />
    <glyph glyph-name="afii10081" unicode="&#x43f;" horiz-adv-x="601" 
d="M45 374v24h511v-23q-27 0 -43 -16q-14 -14 -16 -37q-6 -39 -6 -78v-87q0 -92 25 -118q15 -15 39 -15v-24h-204v24q31 0 45 20q19 29 19 113v87q0 75 -1 102q-1 20 -22 20h-183q-21 0 -22 -20q-2 -24 -2 -102v-99q0 -74 16 -98q16 -23 48 -23v-24h-204v24q30 0 46 21
q18 24 18 97v103q0 50 -4 75.5t-19 39.5q-16 14 -41 14z" />
    <glyph glyph-name="afii10082" unicode="&#x440;" horiz-adv-x="574" 
d="M345 412q80 0 131.5 -49t51.5 -147q0 -101 -58.5 -164.5t-144.5 -63.5q-79 0 -140 59q0 -222 9 -257q12 -44 67 -44v-24h-216v24q39 0 52 35q12 32 12 275v79q0 114 -4.5 151t-18.5 56q-13 18 -52 26l5 24l126 22l20 -5v-72q66 75 160 75zM319 21q56 0 89.5 47t33.5 118
q0 176 -134 176q-46 0 -84.5 -34.5t-38.5 -95.5v-76q0 -59 41.5 -97t92.5 -38z" />
    <glyph glyph-name="afii10083" unicode="&#x441;" horiz-adv-x="466" 
d="M324 279q0 21 14 35q3 3 8 6.5l8.5 6t3.5 4.5q0 19 -24.5 33t-59.5 14q-60 0 -102.5 -42t-42.5 -121q0 -81 45 -126.5t121 -45.5q70 0 125 31l12 -31q-78 -57 -175 -57q-94 0 -154 55t-60 150q0 106 69 164t155 58q75 0 115 -33.5t40 -80.5q0 -28 -14.5 -45t-37.5 -17
q-18 0 -32 11.5t-14 30.5z" />
    <glyph glyph-name="afii10084" unicode="&#x442;" horiz-adv-x="509" 
d="M77 397h358q13 24 16 32h25v-160h-27q0 44 -26.5 70t-63.5 26h-43q-19 0 -21 -20q-2 -23 -2 -81v-86q0 -100 14 -126q15 -28 50 -28v-24h-204v24q36 0 50 28t14 125v87q0 61 -1 81q-2 20 -23 20h-40q-38 0 -64 -25.5t-26 -70.5h-27v160h25z" />
    <glyph glyph-name="afii10085" unicode="&#x443;" horiz-adv-x="538" 
d="M171 292l113 -218l121 223q16 28 16 47q0 30 -61 30v24h183v-24q-51 0 -82 -56l-265 -478q-12 -21 -22 -36.5t-26.5 -33.5t-36.5 -28t-42 -10q-37 0 -58.5 20t-21.5 50q0 24 13.5 41t38.5 17q19 0 32.5 -10.5t13.5 -29.5q0 -15 -8.5 -28.5t-8.5 -15.5q0 -7 11 -7
q22 0 50 39q24 35 58 97l49 92l-164 318q-27 53 -81 59v24h225v-24q-60 0 -60 -37q0 -19 13 -45z" />
    <glyph glyph-name="afii10086" unicode="&#x444;" horiz-adv-x="753" 
d="M524 412q81 0 131 -53.5t50 -151.5q0 -56 -16 -103.5t-58.5 -81.5t-105.5 -34q-28 0 -61 14.5t-52 36.5q3 -219 10 -248q11 -43 56 -45v-24h-206v24q44 0 56 42q9 30 10 251q-48 -51 -115 -51q-78 0 -126.5 57t-48.5 151q0 100 51 158t132 58q65 0 107 -47
q0 113 -5 156.5t-22 61.5q-16 17 -55 29l5 24l135 45l23 -6l-1 -9v-22.5t-0.5 -32.5t-1 -42t-0.5 -48v-155q52 46 108 46zM246 26q44 0 67 22t23 60q2 26 2 93v93q0 41 -28 60.5t-60 19.5q-56 0 -85 -45.5t-29 -129.5q0 -85 30.5 -129t79.5 -44zM509 26q48 0 78 50.5
t30 131.5t-30.5 123.5t-82.5 42.5q-39 0 -64.5 -23t-25.5 -57v-93v-91q0 -43 28.5 -63.5t66.5 -20.5z" />
    <glyph glyph-name="afii10087" unicode="&#x445;" horiz-adv-x="517" 
d="M510 24v-24h-211v24q41 0 41 22q0 11 -9 20l-90 108l-108 -117q-9 -10 -9 -18q0 -15 45 -15v-24h-162v24q22 0 48 12.5t40 27.5l127 132l-106 130q-35 43 -85 48v24h207v-24q-36 0 -36 -22q0 -14 48 -69l28 -32l77 82q13 15 13 26q0 15 -28 15v24h142v-24q-46 0 -83 -37
l-103 -109l133 -162q35 -42 81 -42z" />
    <glyph glyph-name="afii10088" unicode="&#x446;" horiz-adv-x="597" 
d="M412 168v63q0 59 -4 85t-18 41q-17 17 -42 17v24h204v-24q-16 0 -27 -6q-23 -13 -30 -39.5t-7 -97.5v-64q0 -77 3 -117q1 -20 23 -20h57v-169h-26q-2 62 -32 100.5t-92 38.5h-376v24q24 0 39 13q25 21 25 129v65q0 40 -1 58.5t-7 39.5t-18 32q-14 13 -38 13v24h204v-24
q-21 0 -35 -10q-20 -15 -24.5 -43.5t-4.5 -89.5v-69v-112q0 -20 19 -20h184q19 0 21 20q3 39 3 118z" />
    <glyph glyph-name="afii10089" unicode="&#x447;" horiz-adv-x="545" 
d="M470 367q-34 -18 -34 -87v-138q0 -67 9 -87q14 -31 55 -31v-24h-204v24q27 0 42 16q22 23 22 102v41q-62 -45 -140 -45q-145 0 -145 123v25q0 48 -19 68q-17 18 -45 20v24h204v-24q-18 0 -33 -9q-31 -19 -31 -79v-27q0 -84 91 -84q54 0 102 30q16 9 16 30v43q0 60 -23 80
q-15 14 -41 16v24h204v-24q-16 0 -30 -7z" />
    <glyph glyph-name="afii10090" unicode="&#x448;" horiz-adv-x="814" 
d="M629 143v101q0 32 -1 47.5t-6 34.5t-15 31q-13 17 -42 17v24h204v-24q-18 0 -31 -8q-21 -12 -27 -39.5t-6 -81.5v-103q0 -79 21 -100q18 -18 43 -18v-24h-724v24q28 0 44 19q20 24 20 99v102q0 90 -23 114q-15 15 -41 16v24h204v-24q-21 0 -36 -12q-19 -15 -23.5 -39.5
t-4.5 -76.5v-104q0 -69 2 -87q2 -20 21 -20h137q20 0 22 20q2 22 2 88v101q0 91 -24 115q-14 14 -40 15v24h204v-24q-17 0 -31 -8q-22 -13 -27.5 -40t-5.5 -82v-102q0 -68 2 -87q2 -20 23 -20h137q18 0 20 20q2 22 2 88z" />
    <glyph glyph-name="afii10091" unicode="&#x449;" horiz-adv-x="818" 
d="M630 142v130q0 62 -22 85q-17 17 -42 17v24h204v-24q-18 0 -31 -8q-33 -21 -33 -82v-142q0 -72 3 -96q2 -16 18 -16h62v-169h-25q0 68 -26 100q-33 39 -110 39h-583v24q28 0 44 16q20 21 20 102v102q0 86 -20 111q-14 18 -43 19l-1 24h204v-24q-17 0 -29 -7
q-17 -9 -25 -29.5t-9 -38.5t-1 -55v-101q0 -79 2 -97q2 -16 16 -16h149q13 0 15 16q2 22 2 96v102q0 91 -21 112q-17 17 -43 18v24h204v-24q-19 0 -33 -9q-19 -13 -25 -38t-6 -83v-102q0 -74 2 -97q1 -15 17 -15h147q15 0 17 16q2 24 2 96z" />
    <glyph glyph-name="afii10092" unicode="&#x44a;" horiz-adv-x="518" 
d="M59 398h244v-24q-27 0 -42 -14q-22 -20 -22 -76v-37q53 15 103 15q63 0 109.5 -27.5t46.5 -90.5q0 -71 -53 -107.5t-136 -36.5h-210v24q26 0 43 18q21 23 21 100v102l-2 119h-36q-37 0 -61 -27t-24 -70h-25v163h24zM259 30h44q52 0 79.5 29.5t27.5 79.5q0 91 -92 91
q-34 0 -60 -10q-19 -7 -19 -30v-140q0 -20 20 -20z" />
    <glyph glyph-name="afii10093" unicode="&#x44b;" horiz-adv-x="720" 
d="M611 244v-103q0 -74 21 -98q18 -19 43 -19v-24h-204v24q32 0 47 23q17 26 17 94v104q0 87 -21 111q-14 18 -43 18v24h204v-24q-20 0 -32 -9q-21 -14 -26.5 -41t-5.5 -80zM45 374v24h204v-24q-21 0 -35 -9q-19 -14 -24 -35t-5 -65v-18q53 15 104 15q26 0 49.5 -4.5
t47.5 -16.5t38 -37t14 -61q0 -69 -52 -106t-140 -37h-201v24q27 0 44 19q20 20 20 99v102q0 91 -22 113q-17 17 -42 17zM206 30h33q54 0 82 30t28 80q0 90 -90 90q-30 0 -53 -9q-21 -8 -21 -30v-139q0 -22 21 -22z" />
    <glyph glyph-name="afii10094" unicode="&#x44c;" horiz-adv-x="464" 
d="M45 374v24h204v-24q-18 0 -31 -7q-21 -12 -27 -35t-6 -65v-20q52 15 102 15q27 0 51 -4.5t49.5 -16.5t41 -38t15.5 -63q0 -69 -49.5 -104.5t-135.5 -35.5h-214v24q27 0 44 19q20 20 20 99v102q0 92 -22 114q-16 16 -42 16zM204 30h42q109 0 109 106q0 94 -97 94
q-37 0 -59 -11q-14 -7 -14 -23v-144q0 -22 19 -22z" />
    <glyph glyph-name="afii10095" unicode="&#x44d;" horiz-adv-x="464" 
d="M337 187h-185v34h185q0 69 -33 111.5t-99 42.5q-32 0 -59 -13t-27 -24l13 -13q13 -13 13 -31q0 -20 -11 -32.5t-34 -12.5q-22 0 -35 12t-13 35q0 43 48 80t124 37q91 0 143.5 -53.5t52.5 -152.5q0 -101 -60 -160t-148 -59q-98 0 -172 68l19 27q58 -44 135 -44
q127 0 143 148z" />
    <glyph glyph-name="afii10096" unicode="&#x44e;" horiz-adv-x="737" 
d="M365 202q0 -87 35.5 -131.5t91.5 -44.5q53 0 84 45t31 118q0 90 -33.5 138t-92.5 48q-53 0 -84.5 -47.5t-31.5 -125.5zM478 -12q-82 0 -137.5 53t-62.5 146h-93v-46q0 -71 21 -98q15 -19 43 -19v-24h-204v24q27 0 44 18q20 22 20 101v100q0 89 -22 114q-14 17 -42 17v24
h204v-24q-26 0 -42 -16q-14 -15 -18 -39t-4 -74v-24h93q10 90 68 140.5t146 50.5t144 -54.5t56 -145.5q0 -102 -58.5 -163t-155.5 -61z" />
    <glyph glyph-name="afii10097" unicode="&#x44f;" horiz-adv-x="522" 
d="M434 358q-21 -29 -21 -118v-59q0 -98 14 -127q15 -30 52 -30v-24h-206v24q31 0 46 21q18 24 18 112v22h-38q-9 0 -16.5 -1.5t-15 -7t-12 -8.5t-11.5 -12.5l-9.5 -13t-10.5 -15.5l-10 -15l-70 -106h-147v25q33 0 52 9q28 13 49 41l33 44q36 50 91 66v4q-144 5 -144 96
q0 48 41.5 81t135.5 33h222v-24q-31 0 -43 -17zM337 229v120q0 20 -22 20h-51q-103 0 -103 -81q0 -38 28 -58.5t72 -20.5h57q19 0 19 20z" />
    <glyph glyph-name="afii10071" unicode="&#x451;" horiz-adv-x="481" 
d="M434 286q2 -14 2 -21q0 -6 -8 -14t-13 -8h-283q-1 -15 -1 -25q0 -81 44.5 -127t116.5 -46q68 0 123 34l15 -29q-28 -24 -74 -43t-96 -19q-104 0 -159.5 59.5t-55.5 144.5q0 102 65.5 161.5t146.5 59.5q46 0 82 -15t55 -37.5t28.5 -41.5t11.5 -33zM137 273h191q19 0 19 18
q0 36 -27.5 63t-69.5 27t-73.5 -32.5t-39.5 -75.5zM120 555q0 21 15 36t35 15q21 0 36 -15t15 -36q0 -20 -15 -35t-36 -15q-20 0 -35 15t-15 35zM295 555q0 21 15 36t35 15q21 0 36 -15t15 -36q0 -20 -15 -35t-36 -15q-20 0 -35 15t-15 35z" />
    <glyph glyph-name="afii10099" unicode="&#x452;" horiz-adv-x="571" 
d="M26 507v42h68q0 29 -23.5 51.5t-57.5 27.5l5 24q9 2 30 9l30 10q19 6 45 15.5t31 10.5l21 -7l-3 -141h177v-42h-177v-181q21 40 61.5 67.5t94.5 27.5q153 0 153 -168v-197q0 -56 -20.5 -90.5t-58.5 -61.5q-19 -13 -44.5 -23.5t-41.5 -14.5l-17 -3l-6 30q18 2 41 15t33 28
q12 16 17.5 28.5t10.5 40.5t5 70v171q0 124 -98 124q-56 0 -93 -40t-37 -92v-45q0 -94 9 -123q13 -46 64 -46v-24h-213v24q40 0 51 31q13 34 13 257v195h-70z" />
    <glyph glyph-name="afii10100" unicode="&#x453;" horiz-adv-x="418" 
d="M50 374v24h304l16 27h23v-159h-25q-11 55 -37 76t-87 21h-31q-21 0 -22 -20q-1 -15 -1 -52v-114q0 -100 15 -125q17 -28 62 -28v-24h-217v24q28 0 43 17q13 15 17 44.5t4 91.5v93q0 62 -20 86q-16 18 -44 18zM196 479h-27l106 140q20 25 53 25q17 0 28 -8t11 -20
q0 -18 -18 -30z" />
    <glyph glyph-name="afii10101" unicode="&#x454;" horiz-adv-x="477" 
d="M317 187h-180q10 -72 56.5 -108t114.5 -36q73 0 118 31l12 -30q-68 -56 -168 -56q-93 0 -156.5 54.5t-63.5 147.5q0 106 64.5 166t151.5 60q69 0 109 -35t40 -76q0 -26 -13 -41.5t-35 -15.5q-17 0 -29.5 10.5t-12.5 27.5q0 20 13 33q2 3 7 6t8 5t3 4q0 18 -23 32.5
t-58 14.5q-60 0 -100 -44t-40 -118h182v-32z" />
    <glyph glyph-name="afii10102" unicode="&#x455;" horiz-adv-x="426" 
d="M324 430h25v-164h-25q-47 116 -137 116q-28 0 -43 -14t-15 -35q0 -27 34 -52q36 -26 76 -43q29 -13 61 -31q65 -38 65 -93q0 -54 -39 -89t-99 -35q-65 0 -121 37q-8 4 -10 4q-5 0 -7 -6l-11 -41h-25v163h25q14 -65 59 -96t94 -31q30 0 48.5 17t18.5 44q0 18 -8.5 29
t-30.5 25q-16 10 -54 28q-66 34 -88 50q-54 39 -54 97q0 49 36 75.5t85 26.5q58 0 119 -40z" />
    <glyph glyph-name="afii10103" unicode="&#x456;" horiz-adv-x="266" 
d="M78 336q-17 25 -57 32l5 24l126 22l23 -5q-3 -104 -3 -160v-75q0 -75 8 -104q13 -46 58 -46v-24h-206v24q26 0 37.5 11.5t18.5 37.5q8 30 8 100v69q0 67 -18 94zM173 545q0 -21 -14.5 -36t-35.5 -15t-35.5 15t-14.5 36q0 20 14.5 34.5t35.5 14.5t35.5 -14.5t14.5 -34.5z
" />
    <glyph glyph-name="afii10104" unicode="&#x457;" horiz-adv-x="325" 
d="M98 336q-17 25 -57 32l5 24l126 22l23 -5q-3 -104 -3 -160v-75q0 -75 8 -104q13 -46 58 -46v-24h-206v24q26 0 37.5 11.5t18.5 37.5q8 30 8 100v69q0 67 -18 94zM17 555q0 21 15 36t35 15q21 0 36 -15t15 -36q0 -20 -15 -35t-36 -15q-20 0 -35 15t-15 35zM192 555
q0 21 15 36t35 15q21 0 36 -15t15 -36q0 -20 -15 -35t-36 -15q-20 0 -35 15t-15 35z" />
    <glyph glyph-name="afii10105" unicode="&#x458;" horiz-adv-x="257" 
d="M77 335q-14 23 -56 33l5 24l126 22l23 -6l-1 -12v-34t-0.5 -46.5t-1 -58.5t-0.5 -64v-131q0 -89 -12.5 -149t-45.5 -106q-60 -83 -147 -83q-50 0 -80 25.5t-30 65.5q0 25 14.5 43t39.5 18q20 0 32.5 -11t12.5 -30q0 -15 -8.5 -27t-17 -18.5t-8.5 -9.5q0 -8 10 -14
q11 -8 32 -8q45 0 76 34.5t43.5 83t12.5 106.5v216q0 107 -19 137zM170 545q0 -21 -14.5 -36t-34.5 -15q-21 0 -36 15t-15 36q0 20 15 34.5t36 14.5q20 0 34.5 -14.5t14.5 -34.5z" />
    <glyph glyph-name="afii10106" unicode="&#x459;" horiz-adv-x="735" 
d="M149 374v24h371v-24q-27 0 -42 -14q-13 -13 -17 -30.5t-5 -57.5v-25q56 15 102 15q27 0 51 -4.5t49.5 -16t41 -36t15.5 -59.5q0 -67 -50.5 -106.5t-134.5 -39.5h-214v24q30 0 44 19q20 24 20 124v97q0 71 -3 88q-2 11 -8.5 13.5t-20.5 2.5h-76q-20 0 -21 -20
q-15 -155 -56 -246q-51 -113 -127 -113q-28 0 -46 15.5t-18 39.5t13.5 36.5t31.5 12.5q27 0 39 -23q2 -4 4 -11t3 -9q3 -7 8 -7q9 0 23 17q32 38 53 105q27 85 27 158q0 26 -19 40q-16 11 -38 11zM479 30h38q109 0 109 107q0 93 -94 93q-31 0 -54 -8q-22 -7 -22 -28v-140
q0 -14 5 -19t18 -5z" />
    <glyph glyph-name="afii10107" unicode="&#x45a;" horiz-adv-x="771" 
d="M352 374v24h204v-24q-26 0 -39 -11q-15 -13 -19.5 -31t-5.5 -57v-28q56 15 102 15q27 0 51 -4.5t49.5 -16.5t41 -38t15.5 -63q0 -69 -49.5 -104.5t-135.5 -35.5h-214v24q30 1 43 17q21 24 21 108v40h-231v-30q0 -97 23 -118q12 -11 41 -17v-24h-204v24q26 0 40 14
q24 24 24 128v79q0 50 -3.5 72t-15.5 37q-15 20 -45 20v24h204v-24q-23 0 -35 -11q-18 -15 -23.5 -38t-5.5 -85v-19h231v38q0 48 -11 78q-6 17 -21.5 27t-31.5 10zM514 30h44q53 0 78.5 28.5t25.5 77.5q0 94 -94 94q-32 0 -55 -9q-21 -9 -21 -28v-139q0 -24 22 -24z" />
    <glyph glyph-name="afii10108" unicode="&#x45b;" horiz-adv-x="569" 
d="M13 627l5 24l133 45l23 -6q-1 -21 -3 -141h180v-42h-180v-192q24 43 66 69t89 26q73 0 111 -37.5t38 -124.5q0 -144 9 -179q11 -45 57 -45v-24h-206v24q39 0 52 37q12 33 12 178q0 120 -98 120q-54 0 -92 -40.5t-38 -91.5q0 -124 10 -160q6 -21 22.5 -32t33.5 -11v-24
h-206v24q37 0 52 36q12 29 12 252v139q0 39 -1 56h-69v42h70q-6 35 -25.5 52.5t-56.5 25.5z" />
    <glyph glyph-name="afii10109" unicode="&#x45c;" horiz-adv-x="537" 
d="M424 408q40 0 56 -18.5t16 -43.5q0 -20 -13.5 -37t-40.5 -17q-18 0 -31 11t-13 32q0 10 4 19l5 10q0 5 -5 5q-9 0 -22 -20l-56 -85q-22 -32 -57 -47v-4q45 -11 71 -29t46 -47l38 -55q20 -29 43.5 -43t63.5 -14v-25h-146l-77 114q-31 47 -50.5 66t-42.5 19h-28v-49
q0 -82 17 -104q16 -22 47 -22v-24h-204v24q25 0 40 14q24 21 24 112v79q0 40 -1 58t-5.5 38t-14.5 31q-15 16 -43 18v24h204v-24q-17 0 -33 -9q-31 -18 -31 -92v-44h27q49 0 78 45l53 81q34 53 81 53zM254 479h-27l106 140q20 25 53 25q17 0 28 -8t11 -20q0 -18 -18 -30z
" />
    <glyph glyph-name="afii10110" unicode="&#x45e;" horiz-adv-x="548" 
d="M171 292l113 -218l121 223q16 28 16 47q0 30 -61 30v24h183v-24q-51 0 -82 -56l-265 -478q-12 -21 -22 -36.5t-26.5 -33.5t-36.5 -28t-42 -10q-37 0 -58.5 20t-21.5 50q0 24 13.5 41t38.5 17q19 0 32.5 -10.5t13.5 -29.5q0 -15 -8.5 -28.5t-8.5 -15.5q0 -7 11 -7
q22 0 50 39q24 35 58 97l49 92l-164 318q-27 53 -81 59v24h225v-24q-60 0 -60 -37q0 -19 13 -45zM308 504q-71 0 -115 27t-44 66q0 24 12.5 37t34.5 13q36 0 36 -33q0 -9 -4.5 -20t-4.5 -18q0 -16 24 -28t62 -12t60.5 11.5t22.5 28.5q0 7 -4 18t-4 20q0 15 11 24t28 9
q43 0 43 -50q0 -37 -45 -65t-113 -28z" />
    <glyph glyph-name="afii10193" unicode="&#x45f;" 
d="M415 217l-1 65q0 56 -20 77q-16 16 -46 16v23h210v-23q-14 0 -26 -5q-32 -13 -37 -60q-4 -42 -4 -99q1 -66 2 -121q2 -44 19 -55q7 -4 18 -7t19 -4h8v-24h-209l-28 -139h-32l-33 139h-210v23q26 0 41 15q16 16 19 47q4 40 4 108q0 73 -1 89q-3 59 -22 79q-14 14 -41 14
v23h198v-23q-9 0 -21 -6q-25 -12 -32 -54q-5 -29 -5 -118q0 -134 2 -145q3 -22 22 -22h183q18 0 20 22q1 13 1.5 41.5t1 67.5t0.5 56z" />
    <glyph glyph-name="afii10050" unicode="&#x490;" horiz-adv-x="541" 
d="M229 638q-29 0 -32 -33q-3 -35 -3 -143v-295q0 -54 7 -90q11 -53 88 -53v-24h-240v24q44 0 50 49q5 39 5 95v291q0 105 -2 123q-5 42 -16.5 58.5t-45.5 16.5v24h263q75 0 115.5 32t54.5 98h23l-6 -173h-261z" />
    <glyph glyph-name="afii10098" unicode="&#x491;" horiz-adv-x="411" 
d="M185 363q0 -3 -0.5 -64.5t-0.5 -81.5l1 -114q0 -40 13 -60q12 -20 53 -20v-23h-201v23q25 0 36 11q16 18 19 73q2 32 2 70v114q0 52 -18 70q-15 14 -44 14v23h197q64 0 88.5 21.5t35.5 75.5h25v-132h-206z" />
    <glyph glyph-name="endash" unicode="&#x2013;" horiz-adv-x="613" 
d="M100 213v48h413v-48h-413z" />
    <glyph glyph-name="emdash" unicode="&#x2014;" horiz-adv-x="881" 
d="M100 213v48h681v-48h-681z" />
    <glyph glyph-name="quoteleft" unicode="&#x2018;" horiz-adv-x="245" 
d="M175 617q0 -26 -18 -44.5t-44 -18.5q-25 0 -44 18t-19 45q0 42 22 90.5t67 83.5l20 -17q-41 -39 -55 -96q3 1 9 1q25 0 43.5 -18.5t18.5 -43.5z" />
    <glyph glyph-name="quoteright" unicode="&#x2019;" horiz-adv-x="245" 
d="M70 616q0 26 18 44.5t44 18.5q25 0 44 -18t19 -45q0 -42 -22 -90.5t-67 -83.5l-20 17q41 39 55 96q-3 -1 -9 -1q-26 0 -44 18t-18 44z" />
    <glyph glyph-name="quotesinglbase" unicode="&#x201a;" horiz-adv-x="255" 
d="M80 54q0 26 18 44.5t44 18.5q25 0 44 -18t19 -45q0 -42 -22 -90.5t-67 -83.5l-20 17q41 39 55 96q-3 -1 -9 -1q-26 0 -44 18t-18 44z" />
    <glyph glyph-name="quotedblleft" unicode="&#x201c;" horiz-adv-x="415" 
d="M175 617q0 -26 -18 -44.5t-44 -18.5q-25 0 -44 18t-19 45q0 42 22 90.5t67 83.5l20 -17q-41 -39 -55 -96q3 1 9 1q25 0 43.5 -18.5t18.5 -43.5zM345 617q0 -26 -18 -44.5t-44 -18.5q-25 0 -44 18t-19 45q0 42 22 90.5t67 83.5l20 -17q-41 -39 -55 -96q3 1 9 1
q25 0 43.5 -18.5t18.5 -43.5z" />
    <glyph glyph-name="quotedblright" unicode="&#x201d;" horiz-adv-x="409" 
d="M70 616q0 26 18 44.5t44 18.5q25 0 44 -18t19 -45q0 -42 -22 -90.5t-67 -83.5l-20 17q41 39 55 96q-3 -1 -9 -1q-26 0 -44 18t-18 44zM234 616q0 26 18 44.5t44 18.5q25 0 44 -18t19 -45q0 -42 -22 -90.5t-67 -83.5l-20 17q41 39 55 96q-3 -1 -9 -1q-26 0 -44 18t-18 44z
" />
    <glyph glyph-name="quotedblbase" unicode="&#x201e;" horiz-adv-x="430" 
d="M80 54q0 26 18 44.5t44 18.5q25 0 44 -18t19 -45q0 -42 -22 -90.5t-67 -83.5l-20 17q41 39 55 96q-3 -1 -9 -1q-26 0 -44 18t-18 44zM255 54q0 26 18 44.5t44 18.5q25 0 44 -18t19 -45q0 -42 -22 -90.5t-67 -83.5l-20 17q41 39 55 96q-3 -1 -9 -1q-25 0 -43.5 18
t-18.5 44z" />
    <glyph glyph-name="dagger" unicode="&#x2020;" horiz-adv-x="469" 
d="M246 591q-22 -43 -24 -79q10 1 24 5t23.5 7.5l22 8t14.5 5.5q12 4 21 4q19 0 30.5 -12.5t11.5 -31.5q0 -17 -11.5 -29.5t-27.5 -12.5q-14 0 -30 7q-43 19 -78 24q2 -29 8 -50q4 -13 9 -23.5t9 -14.5l3 -4l-29 -562h-25l-28 562q12 15 20 41q5 18 8 51q-42 -6 -78 -24
q-16 -7 -27 -7q-19 0 -30.5 12t-11.5 30q0 19 11.5 31.5t30.5 12.5q10 0 25 -6q56 -22 80 -24q-1 19 -9.5 44t-14.5 34q-7 16 -7 28q0 18 12 29.5t30 11.5q19 0 31.5 -11.5t12.5 -29.5q0 -15 -6 -27z" />
    <glyph glyph-name="daggerdbl" unicode="&#x2021;" horiz-adv-x="469" 
d="M246 591q-22 -43 -24 -79q10 1 24 5t23.5 7.5l22 8t14.5 5.5q12 4 21 4q19 0 30.5 -12.5t11.5 -31.5q0 -17 -11.5 -29.5t-27.5 -12.5q-14 0 -30 7q-43 19 -78 24q2 -22 8 -50q3 -13 8.5 -26.5t9.5 -20.5l3 -7q-23 -56 -29 -117q35 5 78 24q16 7 30 7q16 0 27.5 -12.5
t11.5 -29.5q0 -19 -11.5 -31.5t-30.5 -12.5q-9 0 -21 4q-3 1 -19.5 7.5t-34 12t-30.5 6.5q5 -38 30 -67q-12 -39 -19.5 -124t-8.5 -151l-2 -66h-25q-3 251 -28 340q22 28 28 68q-34 -3 -80 -24q-15 -6 -25 -6q-19 0 -30.5 12.5t-11.5 31.5q0 18 11.5 30t30.5 12q11 0 27 -7
q36 -18 78 -24q-9 66 -28 117q13 25 20 53q6 25 8 51q-42 -6 -78 -24q-16 -7 -27 -7q-19 0 -30.5 12t-11.5 30q0 19 11.5 31.5t30.5 12.5q10 0 25 -6q56 -22 80 -24q-1 19 -9.5 44t-14.5 34q-7 16 -7 28q0 18 12 29.5t30 11.5q19 0 31.5 -11.5t12.5 -29.5q0 -15 -6 -27z" />
    <glyph glyph-name="bullet" unicode="&#x2022;" horiz-adv-x="359" 
d="M100 267q0 33 23.5 56.5t55.5 23.5q33 0 56.5 -23.5t23.5 -56.5q0 -32 -23.5 -55.5t-56.5 -23.5q-32 0 -55.5 23.5t-23.5 55.5z" />
    <glyph glyph-name="ellipsis" unicode="&#x2026;" horiz-adv-x="895" 
d="M80 54q0 26 18 44.5t44 18.5t44.5 -18.5t18.5 -44.5t-18.5 -44t-44.5 -18t-44 18t-18 44zM385 54q0 26 18 44.5t44 18.5t44.5 -18.5t18.5 -44.5t-18.5 -44t-44.5 -18q-25 0 -43.5 18t-18.5 44zM690 54q0 26 18 44.5t44 18.5t44.5 -18.5t18.5 -44.5t-18.5 -44t-44.5 -18
t-44 18t-18 44z" />
    <glyph glyph-name="perthousand" unicode="&#x2030;" horiz-adv-x="1054" 
d="M148 -43l390 739h48l-390 -739h-48zM390 129q0 61 42 98.5t103 37.5t103.5 -37t42.5 -97q0 -62 -43.5 -101t-102.5 -39q-60 0 -102.5 37t-42.5 101zM463 126q0 -47 20 -74t52 -27t52.5 27.5t20.5 75.5t-19.5 76t-52.5 28q-34 0 -53.5 -28.5t-19.5 -77.5zM50 521
q0 61 42 98.5t103 37.5t103.5 -37t42.5 -97q0 -62 -43.5 -101t-102.5 -39q-60 0 -102.5 37t-42.5 101zM123 518q0 -47 20 -74t52 -27t52.5 27.5t20.5 75.5t-19.5 76t-52.5 28q-34 0 -53.5 -28.5t-19.5 -77.5zM733 129q0 61 42 98.5t103 37.5t103.5 -37t42.5 -97
q0 -62 -43.5 -101t-102.5 -39q-60 0 -102.5 37t-42.5 101zM806 126q0 -47 20 -74t52 -27t52.5 27.5t20.5 75.5t-19.5 76t-52.5 28q-34 0 -53.5 -28.5t-19.5 -77.5z" />
    <glyph glyph-name="guilsinglleft" unicode="&#x2039;" horiz-adv-x="389" 
d="M301 -1l-276 216l276 210h38l-208 -209l208 -217h-38z" />
    <glyph glyph-name="guilsinglright" unicode="&#x203a;" horiz-adv-x="386" 
d="M361 216l-274 -217h-37l208 217l-208 209h37z" />
    <glyph glyph-name="fraction" unicode="&#x2044;" horiz-adv-x="349" 
d="M-5 -43l296 738h48l-296 -738h-48z" />
    <glyph glyph-name="Euro" unicode="&#x20ac;" 
d="M-28 311h63q0 36 2 60h-79l16 34h67q20 122 102 201t204 79q73 0 130 -29q27 -14 43 -26l18.5 32t17.5 32h24v-193h-24q-30 74 -94 117q-50 33 -112 33q-94 0 -147 -69.5t-70 -176.5h399l-16 -34h-386q-2 -24 -2 -60h372l-17 -34h-352q13 -107 68 -177.5t157 -70.5
q158 0 200 178h25v-221h-25q-13 33 -32 61q-32 -27 -82.5 -42.5t-97.5 -15.5q-135 0 -213.5 75t-92.5 213h-83z" />
    <glyph glyph-name="uni20B4" unicode="&#x20b4;" 
d="M35 370h237q63 47 96.5 88.5t33.5 95.5q0 47 -29 72t-69 25q-51 0 -88 -22q-65 -37 -83 -116h-26v184h25q1 -2 34 -50q78 40 152 40q181 0 181 -140q0 -52 -29 -93t-83 -84h127v-34h-171q-52 -40 -75 -60h246v-34h-280q-41 -49 -41 -98q0 -55 31.5 -86.5t74.5 -31.5
q67 0 116.5 49.5t73.5 121.5h25v-212h-24q-6 18 -26 54q-6 11 -11 11q-1 0 -24 -15.5t-64.5 -31t-86.5 -15.5q-94 0 -138 44.5t-44 110.5q0 53 32 99h-93v34h121q23 25 70 60h-191v34z" />
    <glyph glyph-name="uni20B6" unicode="&#x20b6;" 
d="M68 657v24h282q42 0 79 -7.5t72.5 -25t56.5 -52.5t21 -83q0 -97 -74 -153t-184 -56h-98v-60h247v-34h-247q0 -96 6 -132q8 -54 78 -54v-24h-238v24q44 0 55 43q9 36 9 137v6h-128v34h128v60h-128v34h128v167q0 107 -15 127q-19 25 -50 25zM223 338h84q84 0 128 46.5
t44 121.5q0 68 -42.5 104.5t-114.5 36.5h-46q-44 0 -50 -50q-3 -29 -3 -87v-172z" />
    <glyph glyph-name="uni20B7" unicode="&#x20b7;" 
d="M68 657v24h282q42 0 79 -7.5t72.5 -25t56.5 -52.5t21 -83q0 -97 -74 -153t-184 -56h-98v-60h247v-34h-247q0 -96 6 -132q8 -54 78 -54v-24h-238v24q44 0 55 43q9 36 9 137v6h-128v34h128v60h-128v34h128v167q0 107 -15 127q-19 25 -50 25zM223 338h84q84 0 128 46.5
t44 121.5q0 68 -42.5 104.5t-114.5 36.5h-46q-44 0 -50 -50q-3 -29 -3 -87v-172z" />
    <glyph glyph-name="uni20B9" unicode="&#x20b9;" 
d="M68 657v24h282q42 0 79 -7.5t72.5 -25t56.5 -52.5t21 -83q0 -97 -74 -153t-184 -56h-98v-60h247v-34h-247q0 -96 6 -132q8 -54 78 -54v-24h-238v24q44 0 55 43q9 36 9 137v6h-128v34h128v60h-128v34h128v167q0 107 -15 127q-19 25 -50 25zM223 338h84q84 0 128 46.5
t44 121.5q0 68 -42.5 104.5t-114.5 36.5h-46q-44 0 -50 -50q-3 -29 -3 -87v-172z" />
    <glyph glyph-name="uni20BA" unicode="&#x20ba;" 
d="M68 657v24h282q42 0 79 -7.5t72.5 -25t56.5 -52.5t21 -83q0 -97 -74 -153t-184 -56h-98v-60h247v-34h-247q0 -96 6 -132q8 -54 78 -54v-24h-238v24q44 0 55 43q9 36 9 137v6h-128v34h128v60h-128v34h128v167q0 107 -15 127q-19 25 -50 25zM223 338h84q84 0 128 46.5
t44 121.5q0 68 -42.5 104.5t-114.5 36.5h-46q-44 0 -50 -50q-3 -29 -3 -87v-172z" />
    <glyph glyph-name="uni20BB" unicode="&#x20bb;" 
d="M68 657v24h282q42 0 79 -7.5t72.5 -25t56.5 -52.5t21 -83q0 -97 -74 -153t-184 -56h-98v-60h247v-34h-247q0 -96 6 -132q8 -54 78 -54v-24h-238v24q44 0 55 43q9 36 9 137v6h-128v34h128v60h-128v34h128v167q0 107 -15 127q-19 25 -50 25zM223 338h84q84 0 128 46.5
t44 121.5q0 68 -42.5 104.5t-114.5 36.5h-46q-44 0 -50 -50q-3 -29 -3 -87v-172z" />
    <glyph glyph-name="uni20BC" unicode="&#x20bc;" 
d="M68 657v24h282q42 0 79 -7.5t72.5 -25t56.5 -52.5t21 -83q0 -97 -74 -153t-184 -56h-98v-60h247v-34h-247q0 -96 6 -132q8 -54 78 -54v-24h-238v24q44 0 55 43q9 36 9 137v6h-128v34h128v60h-128v34h128v167q0 107 -15 127q-19 25 -50 25zM223 338h84q84 0 128 46.5
t44 121.5q0 68 -42.5 104.5t-114.5 36.5h-46q-44 0 -50 -50q-3 -29 -3 -87v-172z" />
    <glyph glyph-name="uni20BD" unicode="&#x20bd;" 
d="M68 657v24h282q42 0 79 -7.5t72.5 -25t56.5 -52.5t21 -83q0 -97 -74 -153t-184 -56h-98v-60h247v-34h-247q0 -96 6 -132q8 -54 78 -54v-24h-238v24q44 0 55 43q9 36 9 137v6h-128v34h128v60h-128v34h128v167q0 107 -15 127q-19 25 -50 25zM223 338h84q84 0 128 46.5
t44 121.5q0 68 -42.5 104.5t-114.5 36.5h-46q-44 0 -50 -50q-3 -29 -3 -87v-172z" />
    <glyph glyph-name="uni20BE" unicode="&#x20be;" 
d="M68 657v24h282q42 0 79 -7.5t72.5 -25t56.5 -52.5t21 -83q0 -97 -74 -153t-184 -56h-98v-60h247v-34h-247q0 -96 6 -132q8 -54 78 -54v-24h-238v24q44 0 55 43q9 36 9 137v6h-128v34h128v60h-128v34h128v167q0 107 -15 127q-19 25 -50 25zM223 338h84q84 0 128 46.5
t44 121.5q0 68 -42.5 104.5t-114.5 36.5h-46q-44 0 -50 -50q-3 -29 -3 -87v-172z" />
    <glyph glyph-name="uni20BF" unicode="&#x20bf;" 
d="M68 657v24h282q42 0 79 -7.5t72.5 -25t56.5 -52.5t21 -83q0 -97 -74 -153t-184 -56h-98v-60h247v-34h-247q0 -96 6 -132q8 -54 78 -54v-24h-238v24q44 0 55 43q9 36 9 137v6h-128v34h128v60h-128v34h128v167q0 107 -15 127q-19 25 -50 25zM223 338h84q84 0 128 46.5
t44 121.5q0 68 -42.5 104.5t-114.5 36.5h-46q-44 0 -50 -50q-3 -29 -3 -87v-172z" />
    <glyph glyph-name="uni20C0" unicode="&#x20c0;" 
d="M68 657v24h282q42 0 79 -7.5t72.5 -25t56.5 -52.5t21 -83q0 -97 -74 -153t-184 -56h-98v-60h247v-34h-247q0 -96 6 -132q8 -54 78 -54v-24h-238v24q44 0 55 43q9 36 9 137v6h-128v34h128v60h-128v34h128v167q0 107 -15 127q-19 25 -50 25zM223 338h84q84 0 128 46.5
t44 121.5q0 68 -42.5 104.5t-114.5 36.5h-46q-44 0 -50 -50q-3 -29 -3 -87v-172z" />
    <glyph glyph-name="uni20C1" unicode="&#x20c1;" 
d="M68 657v24h282q42 0 79 -7.5t72.5 -25t56.5 -52.5t21 -83q0 -97 -74 -153t-184 -56h-98v-60h247v-34h-247q0 -96 6 -132q8 -54 78 -54v-24h-238v24q44 0 55 43q9 36 9 137v6h-128v34h128v60h-128v34h128v167q0 107 -15 127q-19 25 -50 25zM223 338h84q84 0 128 46.5
t44 121.5q0 68 -42.5 104.5t-114.5 36.5h-46q-44 0 -50 -50q-3 -29 -3 -87v-172z" />
    <glyph glyph-name="uni20C2" unicode="&#x20c2;" 
d="M68 657v24h282q42 0 79 -7.5t72.5 -25t56.5 -52.5t21 -83q0 -97 -74 -153t-184 -56h-98v-60h247v-34h-247q0 -96 6 -132q8 -54 78 -54v-24h-238v24q44 0 55 43q9 36 9 137v6h-128v34h128v60h-128v34h128v167q0 107 -15 127q-19 25 -50 25zM223 338h84q84 0 128 46.5
t44 121.5q0 68 -42.5 104.5t-114.5 36.5h-46q-44 0 -50 -50q-3 -29 -3 -87v-172z" />
    <glyph glyph-name="uni20C3" unicode="&#x20c3;" 
d="M68 657v24h282q42 0 79 -7.5t72.5 -25t56.5 -52.5t21 -83q0 -97 -74 -153t-184 -56h-98v-60h247v-34h-247q0 -96 6 -132q8 -54 78 -54v-24h-238v24q44 0 55 43q9 36 9 137v6h-128v34h128v60h-128v34h128v167q0 107 -15 127q-19 25 -50 25zM223 338h84q84 0 128 46.5
t44 121.5q0 68 -42.5 104.5t-114.5 36.5h-46q-44 0 -50 -50q-3 -29 -3 -87v-172z" />
    <glyph glyph-name="uni20C4" unicode="&#x20c4;" 
d="M68 657v24h282q42 0 79 -7.5t72.5 -25t56.5 -52.5t21 -83q0 -97 -74 -153t-184 -56h-98v-60h247v-34h-247q0 -96 6 -132q8 -54 78 -54v-24h-238v24q44 0 55 43q9 36 9 137v6h-128v34h128v60h-128v34h128v167q0 107 -15 127q-19 25 -50 25zM223 338h84q84 0 128 46.5
t44 121.5q0 68 -42.5 104.5t-114.5 36.5h-46q-44 0 -50 -50q-3 -29 -3 -87v-172z" />
    <glyph glyph-name="uni20C5" unicode="&#x20c5;" 
d="M68 657v24h282q42 0 79 -7.5t72.5 -25t56.5 -52.5t21 -83q0 -97 -74 -153t-184 -56h-98v-60h247v-34h-247q0 -96 6 -132q8 -54 78 -54v-24h-238v24q44 0 55 43q9 36 9 137v6h-128v34h128v60h-128v34h128v167q0 107 -15 127q-19 25 -50 25zM223 338h84q84 0 128 46.5
t44 121.5q0 68 -42.5 104.5t-114.5 36.5h-46q-44 0 -50 -50q-3 -29 -3 -87v-172z" />
    <glyph glyph-name="uni20C6" unicode="&#x20c6;" 
d="M68 657v24h282q42 0 79 -7.5t72.5 -25t56.5 -52.5t21 -83q0 -97 -74 -153t-184 -56h-98v-60h247v-34h-247q0 -96 6 -132q8 -54 78 -54v-24h-238v24q44 0 55 43q9 36 9 137v6h-128v34h128v60h-128v34h128v167q0 107 -15 127q-19 25 -50 25zM223 338h84q84 0 128 46.5
t44 121.5q0 68 -42.5 104.5t-114.5 36.5h-46q-44 0 -50 -50q-3 -29 -3 -87v-172z" />
    <glyph glyph-name="uni20C7" unicode="&#x20c7;" 
d="M68 657v24h282q42 0 79 -7.5t72.5 -25t56.5 -52.5t21 -83q0 -97 -74 -153t-184 -56h-98v-60h247v-34h-247q0 -96 6 -132q8 -54 78 -54v-24h-238v24q44 0 55 43q9 36 9 137v6h-128v34h128v60h-128v34h128v167q0 107 -15 127q-19 25 -50 25zM223 338h84q84 0 128 46.5
t44 121.5q0 68 -42.5 104.5t-114.5 36.5h-46q-44 0 -50 -50q-3 -29 -3 -87v-172z" />
    <glyph glyph-name="uni20C8" unicode="&#x20c8;" 
d="M68 657v24h282q42 0 79 -7.5t72.5 -25t56.5 -52.5t21 -83q0 -97 -74 -153t-184 -56h-98v-60h247v-34h-247q0 -96 6 -132q8 -54 78 -54v-24h-238v24q44 0 55 43q9 36 9 137v6h-128v34h128v60h-128v34h128v167q0 107 -15 127q-19 25 -50 25zM223 338h84q84 0 128 46.5
t44 121.5q0 68 -42.5 104.5t-114.5 36.5h-46q-44 0 -50 -50q-3 -29 -3 -87v-172z" />
    <glyph glyph-name="uni20C9" unicode="&#x20c9;" 
d="M68 657v24h282q42 0 79 -7.5t72.5 -25t56.5 -52.5t21 -83q0 -97 -74 -153t-184 -56h-98v-60h247v-34h-247q0 -96 6 -132q8 -54 78 -54v-24h-238v24q44 0 55 43q9 36 9 137v6h-128v34h128v60h-128v34h128v167q0 107 -15 127q-19 25 -50 25zM223 338h84q84 0 128 46.5
t44 121.5q0 68 -42.5 104.5t-114.5 36.5h-46q-44 0 -50 -50q-3 -29 -3 -87v-172z" />
    <glyph glyph-name="uni20CA" unicode="&#x20ca;" 
d="M68 657v24h282q42 0 79 -7.5t72.5 -25t56.5 -52.5t21 -83q0 -97 -74 -153t-184 -56h-98v-60h247v-34h-247q0 -96 6 -132q8 -54 78 -54v-24h-238v24q44 0 55 43q9 36 9 137v6h-128v34h128v60h-128v34h128v167q0 107 -15 127q-19 25 -50 25zM223 338h84q84 0 128 46.5
t44 121.5q0 68 -42.5 104.5t-114.5 36.5h-46q-44 0 -50 -50q-3 -29 -3 -87v-172z" />
    <glyph glyph-name="uni20CB" unicode="&#x20cb;" 
d="M68 657v24h282q42 0 79 -7.5t72.5 -25t56.5 -52.5t21 -83q0 -97 -74 -153t-184 -56h-98v-60h247v-34h-247q0 -96 6 -132q8 -54 78 -54v-24h-238v24q44 0 55 43q9 36 9 137v6h-128v34h128v60h-128v34h128v167q0 107 -15 127q-19 25 -50 25zM223 338h84q84 0 128 46.5
t44 121.5q0 68 -42.5 104.5t-114.5 36.5h-46q-44 0 -50 -50q-3 -29 -3 -87v-172z" />
    <glyph glyph-name="uni20CC" unicode="&#x20cc;" 
d="M68 657v24h282q42 0 79 -7.5t72.5 -25t56.5 -52.5t21 -83q0 -97 -74 -153t-184 -56h-98v-60h247v-34h-247q0 -96 6 -132q8 -54 78 -54v-24h-238v24q44 0 55 43q9 36 9 137v6h-128v34h128v60h-128v34h128v167q0 107 -15 127q-19 25 -50 25zM223 338h84q84 0 128 46.5
t44 121.5q0 68 -42.5 104.5t-114.5 36.5h-46q-44 0 -50 -50q-3 -29 -3 -87v-172z" />
    <glyph glyph-name="uni20CD" unicode="&#x20cd;" 
d="M68 657v24h282q42 0 79 -7.5t72.5 -25t56.5 -52.5t21 -83q0 -97 -74 -153t-184 -56h-98v-60h247v-34h-247q0 -96 6 -132q8 -54 78 -54v-24h-238v24q44 0 55 43q9 36 9 137v6h-128v34h128v60h-128v34h128v167q0 107 -15 127q-19 25 -50 25zM223 338h84q84 0 128 46.5
t44 121.5q0 68 -42.5 104.5t-114.5 36.5h-46q-44 0 -50 -50q-3 -29 -3 -87v-172z" />
    <glyph glyph-name="uni20CE" unicode="&#x20ce;" 
d="M68 657v24h282q42 0 79 -7.5t72.5 -25t56.5 -52.5t21 -83q0 -97 -74 -153t-184 -56h-98v-60h247v-34h-247q0 -96 6 -132q8 -54 78 -54v-24h-238v24q44 0 55 43q9 36 9 137v6h-128v34h128v60h-128v34h128v167q0 107 -15 127q-19 25 -50 25zM223 338h84q84 0 128 46.5
t44 121.5q0 68 -42.5 104.5t-114.5 36.5h-46q-44 0 -50 -50q-3 -29 -3 -87v-172z" />
    <glyph glyph-name="uni20CF" unicode="&#x20cf;" 
d="M68 657v24h282q42 0 79 -7.5t72.5 -25t56.5 -52.5t21 -83q0 -97 -74 -153t-184 -56h-98v-60h247v-34h-247q0 -96 6 -132q8 -54 78 -54v-24h-238v24q44 0 55 43q9 36 9 137v6h-128v34h128v60h-128v34h128v167q0 107 -15 127q-19 25 -50 25zM223 338h84q84 0 128 46.5
t44 121.5q0 68 -42.5 104.5t-114.5 36.5h-46q-44 0 -50 -50q-3 -29 -3 -87v-172z" />
    <glyph glyph-name="afii61352" unicode="&#x2116;" horiz-adv-x="1202" 
d="M820 298v48h253v-48h-253zM801 554q0 61 42 98.5t103 37.5t103.5 -37t42.5 -97q0 -62 -43.5 -101t-102.5 -39q-60 0 -102.5 37t-42.5 101zM874 551q0 -47 20 -74t52 -27t52.5 27.5t20.5 75.5t-19.5 76t-52.5 28q-34 0 -53.5 -28.5t-19.5 -77.5zM820 220v48h253v-48h-253z
M648 580v-579l-26 -7l-468 559v-454q0 -41 17 -58q15 -17 61 -17v-24h-192v24q44 0 56 12q20 20 20 132v255l-1 141q0 53 -20 72q-18 17 -54 21v24h122l447 -540v439q0 41 -22 60q-18 17 -55 17v24h193v-24q-27 0 -42 -7q-36 -17 -36 -70z" />
    <glyph glyph-name="trademark" unicode="&#x2122;" horiz-adv-x="1228" 
d="M131 676h376l15 22h20v-136h-20q-16 47 -33 66t-45 19h-87v-194q0 -131 3 -154q5 -41 39 -41v-16h-151v16q30 0 35 30q6 38 6 164v195h-92q-30 0 -48 -19.5t-30 -65.5h-20v136h19q11 -20 13 -22zM547 242v17q32 0 43 24q3 9 5 20q25 166 37 305q1 10 1 26q-2 25 -32 25
v17h112l120 -348l140 348h117v-17q-23 0 -34 -11t-11 -38q0 -11 5 -61q21 -191 44 -257q10 -33 43 -33v-17h-167v17q21 0 33 8q16 12 7 77q-14 94 -32 261l-150 -369h-34l-129 373q-18 -169 -36 -297q-2 -20 -2 -26q0 -27 35 -27v-17h-115z" />
    <glyph glyph-name="partialdiff" unicode="&#x2202;" horiz-adv-x="540" 
d="M203 679l12 21q126 -46 200.5 -135t74.5 -217q0 -79 -38.5 -161t-110 -139t-153.5 -57q-61 0 -99.5 37t-38.5 104q0 118 75.5 203.5t167.5 85.5q51 0 83.5 -38.5t32.5 -113.5h4q7 25 7 63q0 125 -64 216t-153 131zM300 376q-69 0 -117.5 -71.5t-48.5 -165.5q0 -49 23 -78
t66 -29q63 0 113 72t50 151q0 57 -24 89t-62 32z" />
    <glyph glyph-name="product" unicode="&#x220f;" horiz-adv-x="714" 
d="M630 648q-19 -14 -24.5 -42.5t-5.5 -94.5v-453q0 -94 17 -119q17 -24 47 -24v-24h-218v24q27 0 42 16q22 24 22 126v589h-305v-588q0 -101 21 -125q16 -18 43 -18v-24h-218v24q27 0 42 16q22 24 22 128v448q0 117 -22 135q-13 11 -43 15v24h614v-24q-20 0 -34 -9z" />
    <glyph glyph-name="summation" unicode="&#x2211;" horiz-adv-x="615" 
d="M365 304l-223 -378h179q95 0 141 32t61 99l22 -1l-12 -165h-493v26l253 419l-223 319v26h406q9 12 22 34h24v-210h-25q-14 73 -50 107t-100 34h-219z" />
    <glyph glyph-name="minus" unicode="&#x2212;" 
d="M94 291h413v-46h-413v46z" />
    <glyph glyph-name="radical" unicode="&#x221a;" horiz-adv-x="574" 
d="M250 -53h-25l-145 397l86 33l99 -285l292 708h42z" />
    <glyph glyph-name="infinity" unicode="&#x221e;" 
d="M463 161q-81 0 -144 82l-17 22l-18 -23q-63 -81 -141 -81q-51 0 -92.5 35t-41.5 100q0 72 43 108.5t102 36.5q77 0 121 -60l30 -41q78 102 157 102q53 0 91 -33.5t38 -103.5q0 -66 -40.5 -105t-87.5 -39zM275 303l-14 19q-31 42 -56 57.5t-58 15.5q-39 0 -62.5 -28
t-23.5 -67q0 -41 25.5 -66.5t62.5 -25.5q22 0 43.5 12.5t32.5 23.5t27 31zM333 303l18 -25q26 -37 52 -53.5t59 -16.5q31 0 54 27.5t23 68.5q0 43 -21 67t-59 24q-34 0 -62.5 -22t-63.5 -70z" />
    <glyph glyph-name="integral" unicode="&#x222b;" horiz-adv-x="399" 
d="M143 -239q30 0 55 28.5t25 85.5q0 20 -4 54l-55 532q-4 42 -4 71q0 114 50 169q43 47 110 47q48 0 83.5 -25t35.5 -67q0 -21 -11.5 -34.5t-33.5 -13.5q-15 0 -26 10t-11 28q0 7 2.5 17.5t2.5 15.5q0 13 -12.5 21.5t-33.5 8.5q-35 0 -57 -32.5t-22 -89.5q0 -12 4 -60
l58 -558q3 -24 3 -53q0 -91 -53 -147q-43 -47 -110 -47q-48 0 -83.5 25t-35.5 67q0 20 13 34t32 14q37 0 37 -34q0 -7 -2.5 -19.5t-2.5 -17.5q0 -13 12.5 -21.5t33.5 -8.5z" />
    <glyph glyph-name="approxequal" unicode="&#x2248;" 
d="M66 309l-27 8q18 81 56.5 115.5t85.5 34.5q25 0 57.5 -13t78 -37.5t69.5 -35.5q33 -15 57 -15q33 0 61 39q9 13 17 29t11 26l4 9l25 -14q-17 -60 -58 -105q-35 -39 -88 -39q-39 0 -80 19l-70 33.5l-67 32.5q-26 12 -46 12q-41 0 -70 -56zM66 166l-27 8q18 81 56.5 115.5
t85.5 34.5q25 0 57.5 -13t78 -37.5t69.5 -35.5q33 -15 57 -15q33 0 61 39q9 13 17 29t11 25l4 10l25 -14q-17 -60 -58 -105q-35 -39 -88 -39q-39 0 -80 19l-70 33.5l-67 32.5q-26 12 -46 12q-41 0 -70 -56z" />
    <glyph glyph-name="notequal" unicode="&#x2260;" 
d="M94 345v48h225l59 111h48l-59 -111h140v-48h-165l-29 -54h194v-48h-219l-63 -119h-48l63 119h-146v48h171l29 54h-200z" />
    <glyph glyph-name="lessequal" unicode="&#x2264;" 
d="M522 101l-443 242l443 242v-66l-334 -177l334 -174v-67zM109 46h413v-46h-413v46z" />
    <glyph glyph-name="greaterequal" unicode="&#x2265;" 
d="M522 343l-443 -242v67l334 174l-334 177v66zM79 46h413v-46h-413v46z" />
    <glyph glyph-name="lozenge" unicode="&#x25ca;" 
d="M302 26l-150 240l150 238l150 -238zM208 266l94 -151l94 151l-94 149z" />
    <glyph glyph-name="Dieresis" horiz-adv-x="276" 
d="M0 798q0 21 15 36t35 15q21 0 36 -15t15 -36q0 -20 -15 -35t-36 -15q-20 0 -35 15t-15 35zM175 798q0 21 15 36t35 15q21 0 36 -15t15 -36q0 -20 -15 -35t-36 -15q-20 0 -35 15t-15 35z" />
    <glyph glyph-name="Tilde" horiz-adv-x="273" 
d="M133 820l21 -7q50 -16 60 -16q16 0 23.5 10.5t13.5 34.5l22 -5q-12 -57 -31 -77t-47 -20q-19 0 -52 11l-27 9q-56 18 -65 18q-20 0 -29 -43l-22 5q12 60 26 77.5t43 17.5q17 0 64 -15z" />
    <glyph glyph-name="Grave" horiz-adv-x="218" 
d="M218 748h-27l-169 61q-22 8 -22 30q0 13 11 21.5t28 8.5q27 0 55 -23z" />
    <glyph glyph-name="Circumflex" horiz-adv-x="286" 
d="M143 885l143 -118l-18 -19l-126 59l-124 -59l-18 20z" />
    <glyph glyph-name="Caron" horiz-adv-x="286" 
d="M286 866l-145 -118l-141 117l18 20l125 -69l125 69z" />
    <glyph glyph-name="Ring" horiz-adv-x="153" 
d="M0 824q0 33 22 54.5t54 21.5q33 0 55 -21.5t22 -54.5q0 -32 -22.5 -54t-54.5 -22t-54 21.5t-22 54.5zM39 824q0 -16 11 -27.5t26 -11.5q16 0 26.5 11.5t10.5 27.5t-10.5 27.5t-26.5 11.5q-15 0 -26 -11.5t-11 -27.5z" />
    <glyph glyph-name="Acute" horiz-adv-x="218" 
d="M27 748h-27l124 98q28 23 55 23q17 0 28 -8.5t11 -21.5q0 -22 -22 -30z" />
    <glyph glyph-name="Hungarumlaut" horiz-adv-x="390" 
d="M27 748h-27l124 98q28 23 55 23q17 0 28 -8.5t11 -21.5q0 -22 -27 -32zM169 748h-27l154 103q28 18 55 18q39 0 39 -30q0 -23 -26 -31z" />
    <glyph glyph-name="commaaccent" horiz-adv-x="100" 
d="M0 556q0 21 14.5 35.5t34.5 14.5q21 0 36 -14.5t15 -35.5q0 -34 -17.5 -72.5t-53.5 -66.5l-16 14q31 30 44 76q-3 -1 -8 -1q-20 0 -34.5 15t-14.5 35z" />
    <glyph glyph-name="one_oldstyle" horiz-adv-x="348" 
d="M272 478v-24q-29 0 -45 -18q-17 -18 -17 -108v-127q0 -101 13 -138q5 -12 13 -20t21 -12t20 -5t21 -2v-24q-68 3 -128 3l-120 -3v24h6t15 2.5t20 6.5t17.5 12.5t11.5 19.5q10 36 10 136v125q0 81 -16 102t-50 26v24q55 -3 104 -3z" />
    <glyph glyph-name="three_oldstyle" horiz-adv-x="577" 
d="M295 196v-4q125 -9 178.5 -64.5t53.5 -132.5q0 -84 -65 -144t-172 -60q-127 0 -214 74l16 24q77 -42 164 -42q81 0 124.5 49.5t43.5 116.5q0 75 -46.5 117.5t-139.5 42.5h-60v34h61q52 0 88.5 36.5t36.5 93.5q0 44 -26 68.5t-75 24.5q-97 0 -164 -86l-21 20
q25 42 86 83.5t139 41.5q71 0 116.5 -34.5t45.5 -89.5q0 -58 -40.5 -104t-129.5 -65z" />
    <glyph glyph-name="five_oldstyle" horiz-adv-x="538" 
d="M95 478h227q80 0 106 93h25l-11 -173h-308v-142q9 0 29.5 -0.5t27.5 -1.5q85 -6 148.5 -30t106 -76.5t42.5 -129.5q0 -91 -64.5 -158.5t-171.5 -67.5t-198 66l14 26q70 -37 151 -37q79 0 124.5 43.5t45.5 121.5q0 38 -13.5 67.5t-38.5 46.5t-50.5 28t-61 15.5t-57.5 5.5
t-52 1l-21 -1v303z" />
    <glyph glyph-name="six_oldstyle" horiz-adv-x="537" 
d="M474 624q-18 9 -57 9q-78 0 -137.5 -49.5t-89 -121t-34.5 -153.5q77 70 177 70q85 0 139.5 -46t54.5 -122q0 -88 -72 -155t-164 -67q-110 0 -175.5 70t-65.5 200q0 184 102.5 294t249.5 110q35 0 77 -13zM303 332q-85 0 -151 -62v-24q0 -104 40 -163.5t105 -59.5
q59 0 95 51t36 119q0 63 -33 101t-92 38z" />
    <glyph glyph-name="seven_oldstyle" horiz-adv-x="595" 
d="M96 527h25q5 -12 25 -48h379l20 -24l-353 -669l-84 41l362 574h-205q-69 0 -100 -24.5t-44 -91.5h-25v242z" />
    <glyph glyph-name="eight_oldstyle" horiz-adv-x="564" 
d="M288 652q79 0 129.5 -34.5t50.5 -96.5q0 -29 -13.5 -55.5t-35.5 -45.5t-40 -30t-37 -20l41 -21q67 -35 99 -71t32 -93q0 -71 -64 -132.5t-173 -61.5q-100 0 -165.5 48.5t-65.5 120.5q0 39 16.5 73t44 57t52 36.5t49.5 23.5q-35 23 -54 37.5t-38.5 45.5t-19.5 67
q0 65 55 108.5t137 43.5zM131 175q0 -68 46.5 -109t112.5 -41q57 0 99.5 38t42.5 92q0 17 -4.5 31.5t-8.5 23.5t-16.5 20t-17.5 15t-22.5 15t-21.5 13l-109 62q-35 -18 -68 -61.5t-33 -98.5zM385 526q0 43 -28.5 67.5t-71.5 24.5t-72.5 -25t-29.5 -66q0 -37 23 -64t75 -57
l37 -22q23 19 45 59t22 83z" />
    <glyph glyph-name="nine_oldstyle" horiz-adv-x="577" 
d="M97 -173l4 26q34 -8 60 -8q77 0 137.5 52t89.5 124t31 146q-71 -65 -175 -65q-86 0 -140 46.5t-54 125.5q0 98 69.5 156t166.5 58q107 0 174 -73t67 -191q0 -179 -98 -295t-242 -116q-45 0 -90 14zM274 150q88 0 150 59q0 3 0.5 11t0.5 11q0 103 -41 163t-104 60
q-54 0 -92.5 -46.5t-38.5 -113.5t34 -105.5t91 -38.5z" />
    <glyph glyph-name="cyrbreve" horiz-adv-x="317" 
d="M159 706q-71 0 -115 27t-44 66q0 24 12.5 37t34.5 13q36 0 36 -33q0 -9 -4.5 -20t-4.5 -18q0 -16 24 -28t62 -12t60.5 11.5t22.5 28.5q0 7 -4 18t-4 20q0 15 11 24t28 9q43 0 43 -50q0 -37 -45 -65t-113 -28z" />
    <glyph glyph-name="F639" horiz-adv-x="627" 
d="M55 334q0 156 75.5 255t185.5 99q111 0 183.5 -95.5t72.5 -254.5q0 -95 -29.5 -173t-89.5 -126.5t-139 -48.5q-122 0 -190.5 93.5t-68.5 250.5zM316 24q73 0 115 90.5t42 234.5q0 139 -45 222t-117 83q-71 0 -114 -83.5t-43 -222.5q0 -141 44 -232.5t118 -91.5z" />
    <glyph glyph-name="F6D6" horiz-adv-x="369" 
d="M235 686q-4 -310 -4 -390q0 -129 2.5 -170t10.5 -63q5 -12 13 -20t21 -12t20 -5t21 -2v-24h-258v24q6 0 16 1t28.5 11.5t23.5 28.5q12 40 12 227v245q0 34 -15 44.5t-46 10.5l-37 -2l-3 25l172 81z" />
    <glyph glyph-name="F63A" horiz-adv-x="583" 
d="M320 689q77 0 130 -44.5t53 -128.5q0 -60 -33 -127t-80.5 -119.5t-95 -97t-80.5 -68.5l-33 -24h234q62 0 83 83h25l-7 -163h-456l2 36q86 52 160 120.5t127.5 160.5t53.5 179q0 63 -34.5 98.5t-91.5 35.5q-106 0 -164 -98l-20 15q25 53 83.5 97.5t143.5 44.5z" />
    <glyph glyph-name="F63B" horiz-adv-x="554" 
d="M267 390v-4q123 -10 177.5 -63t54.5 -123q0 -84 -65.5 -148t-187.5 -64q-85 0 -136.5 29t-51.5 73q0 24 13 37.5t34 13.5q20 0 33 -12.5t13 -29.5q0 -15 -9 -28t-9 -16q0 -9 13 -16q34 -17 84 -17q80 0 124.5 52t44.5 127q0 80 -55 124.5t-140 44.5h-44v29h45
q57 0 100.5 43.5t43.5 107.5q0 105 -116 105q-60 0 -101 -31q-7 -6 -7 -11q0 -3 7.5 -8t15.5 -14.5t8 -23.5q0 -17 -13.5 -30t-33.5 -13q-23 0 -35 13.5t-12 33.5q0 39 60 78.5t146 39.5q74 0 126 -33.5t52 -93.5q0 -59 -44 -106t-135 -66z" />
    <glyph glyph-name="F63C" horiz-adv-x="595" 
d="M540 327h25l-8 -149h-116q0 -72 2 -86q2 -34 18 -50q17 -18 49 -18v-24h-255v24q45 0 68 18q21 17 25 60q3 29 3 76h-336l-5 29l402 474h29v-434h22q35 0 52.5 20t24.5 60zM351 550l-256 -303h256v303z" />
    <glyph glyph-name="F63D" horiz-adv-x="553" 
d="M110 676h227q47 0 69.5 22t32.5 71h24l-6 -173h-307v-134h5q338 0 338 -243q0 -92 -71.5 -160.5t-189.5 -68.5q-56 0 -103 15.5t-65 30.5l-19 16l12 25q58 -38 155 -38q75 0 128 46t53 134q0 53 -23.5 88t-65.5 50.5t-81.5 21t-91.5 5.5l-21 -1v293z" />
    <glyph glyph-name="F63E" horiz-adv-x="601" 
d="M500 665l-6 -25q-42 15 -87 15q-57 0 -103 -29t-75 -77.5t-46 -102.5t-24 -113q30 31 81.5 53.5t106.5 22.5q92 0 148 -49.5t56 -140.5q0 -93 -72.5 -161.5t-173.5 -68.5q-117 0 -183.5 74.5t-66.5 200.5q0 181 91.5 302.5t240.5 121.5q66 0 113 -23zM155 250
q0 -108 44.5 -167.5t111.5 -59.5q59 0 99 53t40 133q0 73 -36 116.5t-103 43.5q-47 0 -90.5 -23t-63.5 -48q-2 -14 -2 -48z" />
    <glyph glyph-name="zero_oldstyle" horiz-adv-x="606" 
d="M50 240q0 106 74 180t178 74q106 0 180 -74t74 -180q0 -104 -74 -178t-180 -74q-104 0 -178 74t-74 178zM126 240q0 -78 50 -133t126 -55q78 0 127.5 54.5t49.5 133.5q0 81 -49.5 135t-127.5 54q-77 0 -126.5 -54.5t-49.5 -134.5z" />
    <glyph glyph-name="two_oldstyle" horiz-adv-x="522" 
d="M305 0h-274v36q279 158 279 305q0 86 -86 86q-90 0 -154 -77l-20 19q79 120 214 120q67 0 106 -32.5t39 -93.5q0 -47 -26 -92.5t-62 -78t-76 -58.5t-65 -38.5t-31 -14.5h266l9 -162h-25q-10 47 -27 64t-67 17z" />
    <glyph glyph-name="four_oldstyle" horiz-adv-x="665" 
d="M570 151h25l-8 -151h-116v-38q0 -74 3 -92q3 -40 19 -56q17 -18 43 -18v-24h-228v24q39 0 56.5 15.5t21.5 58.5q5 45 5 130h-341v29l400 461h21v-421h17q30 0 50.5 20.5t25.5 40.5zM391 365l-252 -296h252v296z" />
    <glyph glyph-name="F63F" horiz-adv-x="545" 
d="M60 723h25q14 -24 30 -42h380l20 -24l-353 -669l-84 41q39 56 362 574h-251q-39 0 -66.5 -28.5t-36.5 -81.5h-26v230z" />
    <glyph glyph-name="F640" horiz-adv-x="595" 
d="M305 692q77 0 130 -33.5t53 -97.5q0 -54 -40 -92t-86 -59l22 -13q32 -19 47.5 -29t40.5 -30t37 -37.5t21.5 -44t9.5 -56.5q0 -81 -69 -145t-174 -64q-112 0 -177 51.5t-65 132.5q0 45 16.5 82t46.5 63t53.5 40.5t56.5 29.5q-112 72 -112 146q0 72 55.5 114t133.5 42z
M140 181q0 -72 44.5 -114t118.5 -42q64 0 108 40t44 103q0 27 -8.5 49.5t-27 41t-31 28t-36.5 24.5l-100 64q-35 -19 -73.5 -73.5t-38.5 -120.5zM405 560q0 47 -28 72.5t-72 25.5q-43 0 -72.5 -26t-29.5 -67q0 -34 23.5 -61.5t74.5 -57.5l37 -22q23 19 45 57t22 79z" />
    <glyph glyph-name="F641" horiz-adv-x="597" 
d="M102 38q44 -16 85 -16q74 0 130 47.5t83.5 117.5t32.5 154q-31 -32 -79.5 -53.5t-106.5 -21.5q-92 0 -147 49.5t-55 140.5q0 93 72 161.5t172 68.5q117 0 185 -75.5t68 -200.5q0 -57 -11.5 -114.5t-37.5 -113.5t-63.5 -98.5t-93.5 -68.5t-124 -26q-63 0 -116 22zM439 425
q0 108 -44.5 167.5t-111.5 59.5q-58 0 -98.5 -51t-40.5 -133q0 -70 35.5 -115t103.5 -45q36 0 71.5 14.5t53 27.5t29.5 26q2 14 2 49z" />
    <glyph glyph-name="DLE" horiz-adv-x="428" 
d="M329 430h25v-164h-25q-47 116 -137 116q-28 0 -43 -14t-15 -35q0 -27 34 -52q36 -26 76 -43q29 -13 61 -31q65 -38 65 -93q0 -54 -39 -89t-99 -35q-65 0 -121 37q-8 4 -10 4q-5 0 -7 -6l-11 -41h-25v163h25q14 -65 59 -96t94 -31q30 0 48.5 17t18.5 44q0 18 -8.5 29
t-30.5 25q-16 10 -54 28q-66 34 -88 50q-54 39 -54 97q0 49 36 75.5t85 26.5q58 0 119 -40z" />
    <glyph glyph-name="DC2" horiz-adv-x="0" 
 />
    </font>
</defs>
</svg>
